<svg width="59" height="52" viewBox="0 0 59 52" fill="none" xmlns="http://www.w3.org/2000/svg">
<g opacity="0.8">
<path d="M59 50.6869C58.2304 52.1576 57.2452 52.3898 55.8753 51.3991C52.9199 49.2782 49.9645 47.1729 47.0245 45.0366C46.024 44.309 44.9311 43.9684 43.6843 43.9684C36.9423 43.9839 30.2004 43.9684 23.4738 43.9684C19.3332 43.9684 16.4855 41.1045 16.4855 36.9558C16.4855 35.996 16.4855 35.0362 16.4855 33.9835C16.7318 33.9835 16.9627 33.9835 17.1782 33.9835C23.366 33.9835 29.5385 33.999 35.7263 33.9835C40.3749 33.968 44.3154 31.0422 45.5622 26.6303C45.8239 25.7015 45.947 24.6952 45.9624 23.72C46.0086 20.531 45.9778 17.342 45.9778 14.1685C45.9778 13.9673 45.9778 13.7505 45.9778 13.4874C47.0091 13.4874 47.9789 13.4719 48.9486 13.4874C50.4109 13.5028 51.8732 13.41 53.3201 13.5957C56.2293 13.9827 58.3535 16.15 58.8923 19.0603C58.9076 19.1687 58.9538 19.2771 59 19.3854C59 29.8347 59 40.2531 59 50.6869Z" fill="url(#paint0_linear_359_9)"/>
<path d="M23.4276 0.00387012C29.0459 0.00387012 34.6796 0.00387012 40.2979 0.00387012C41.9296 0.00387012 42.5145 0.592128 42.5145 2.21758C42.5145 9.38504 42.5145 16.537 42.5145 23.7045C42.5145 26.9399 40.4211 29.5871 37.2964 30.3146C36.7115 30.454 36.0804 30.5004 35.4646 30.5004C28.7227 30.5159 21.9807 30.5159 15.2541 30.5004C14.0381 30.5004 12.9606 30.841 11.9755 31.5531C8.95852 33.7513 5.92617 35.9186 2.89382 38.0858C1.72398 38.9218 0.307853 38.4419 0.0461779 37.1261C0 36.9093 0.0153926 36.6616 0.0153926 36.4294C0 26.6303 0 16.8157 0 7.01653C0 2.89872 2.83225 0.0193506 6.94208 0.0193506C12.4373 -0.0116104 17.9324 0.00387012 23.4276 0.00387012ZM22.4117 12.9455C23.8894 12.9455 25.3671 12.9455 26.8448 12.9455C28.6919 12.9455 30.5236 12.961 32.3707 12.9455C33.4636 12.9301 34.2178 12.0632 34.0947 11.0105C33.987 10.0662 33.2327 9.47792 32.1244 9.47792C26.8294 9.47792 21.5343 9.47792 16.2392 9.47792C15.0078 9.47792 13.7764 9.47792 12.5604 9.47792C11.8369 9.47792 11.252 9.75657 10.898 10.4222C10.2669 11.6142 11.1135 12.9301 12.5142 12.9455C15.8236 12.9455 19.1177 12.9301 22.4117 12.9455ZM22.3809 21.0418C25.5672 21.0418 28.7535 21.0418 31.9397 21.0418C32.1552 21.0418 32.3553 21.0418 32.5708 21.0264C33.3866 20.949 34.0331 20.2988 34.1101 19.4938C34.1871 18.6733 33.6945 17.8993 32.9095 17.6671C32.6324 17.5897 32.3399 17.5742 32.0629 17.5742C25.6288 17.5742 19.21 17.5742 12.7759 17.5742C12.5142 17.5742 12.191 17.5433 11.9909 17.6671C11.5753 17.9303 11.0827 18.2399 10.8672 18.6578C10.2823 19.8034 11.1751 21.0418 12.5296 21.0418C15.8236 21.0573 19.1023 21.0418 22.3809 21.0418Z" fill="url(#paint1_linear_359_9)"/>
</g>
<defs>
<linearGradient id="paint0_linear_359_9" x1="29.5" y1="0" x2="29.5" y2="52" gradientUnits="userSpaceOnUse">
<stop stop-color="#503614"/>
<stop offset="1" stop-color="#503614" stop-opacity="0"/>
</linearGradient>
<linearGradient id="paint1_linear_359_9" x1="29.5" y1="0" x2="29.5" y2="52" gradientUnits="userSpaceOnUse">
<stop stop-color="#503614"/>
<stop offset="1" stop-color="#503614" stop-opacity="0"/>
</linearGradient>
</defs>
</svg>
