<svg width="49" height="44" viewBox="0 0 49 44" fill="none" xmlns="http://www.w3.org/2000/svg">
<g filter="url(#filter0_di_903_3513)">
<path d="M46 38.0405C45.4391 39.1152 44.7211 39.2849 43.7227 38.5608C41.5687 37.011 39.4148 35.4725 37.2721 33.9113C36.5429 33.3796 35.7464 33.1308 34.8377 33.1308C29.9241 33.1421 25.0104 33.1308 20.108 33.1308C17.0903 33.1308 15.0149 31.0379 15.0149 28.0061C15.0149 27.3048 15.0149 26.6034 15.0149 25.8341C15.1944 25.8341 15.3626 25.8341 15.5197 25.8341C20.0295 25.8341 24.528 25.8454 29.0378 25.8341C32.4258 25.8228 35.2977 23.6847 36.2064 20.4606C36.3971 19.7818 36.4868 19.0465 36.498 18.3338C36.5317 16.0034 36.5093 13.673 36.5093 11.3539C36.5093 11.2068 36.5093 11.0485 36.5093 10.8561C37.2609 10.8561 37.9677 10.8448 38.6744 10.8561C39.7402 10.8675 40.8059 10.7996 41.8604 10.9353C43.9807 11.2182 45.5288 12.8019 45.9215 14.9287C45.9327 15.0079 45.9663 15.0871 46 15.1663C46 22.8023 46 30.4157 46 38.0405Z" fill="white"/>
<path d="M20.0744 1.00283C24.1691 1.00283 28.275 1.00283 32.3697 1.00283C33.5588 1.00283 33.9851 1.43271 33.9851 2.62054C33.9851 7.8583 33.9851 13.0847 33.9851 18.3225C33.9851 20.6868 32.4594 22.6213 30.1821 23.153C29.7558 23.2548 29.2959 23.2888 28.8471 23.2888C23.9335 23.3001 19.0198 23.3001 14.1174 23.2888C13.2312 23.2888 12.4459 23.5376 11.7279 24.058C9.52909 25.6644 7.31907 27.2482 5.10905 28.832C4.25646 29.4428 3.22437 29.0922 3.03366 28.1306C3 27.9722 3.01122 27.7912 3.01122 27.6215C3 20.4606 3 13.2884 3 6.12746C3 3.11829 5.06418 1.01414 8.05948 1.01414C12.0644 0.991516 16.0694 1.00283 20.0744 1.00283ZM19.3339 10.4602C20.4109 10.4602 21.4879 10.4602 22.5648 10.4602C23.911 10.4602 25.246 10.4715 26.5922 10.4602C27.3887 10.4489 27.9384 9.81539 27.8487 9.04613C27.7702 8.35605 27.2205 7.92617 26.4127 7.92617C22.5536 7.92617 18.6945 7.92617 14.8354 7.92617C13.9379 7.92617 13.0404 7.92617 12.1542 7.92617C11.6269 7.92617 11.2006 8.1298 10.9426 8.61625C10.4827 9.48732 11.0997 10.4489 12.1205 10.4602C14.5325 10.4602 16.9332 10.4489 19.3339 10.4602ZM19.3115 16.3767C21.6337 16.3767 23.9559 16.3767 26.2781 16.3767C26.4352 16.3767 26.581 16.3767 26.7381 16.3654C27.3326 16.3089 27.8038 15.8337 27.8599 15.2455C27.916 14.6459 27.557 14.0803 26.9849 13.9106C26.7829 13.854 26.5698 13.8427 26.3679 13.8427C21.6786 13.8427 17.0005 13.8427 12.3112 13.8427C12.1205 13.8427 11.8849 13.8201 11.7391 13.9106C11.4362 14.1029 11.0772 14.3291 10.9202 14.6346C10.4939 15.4717 11.1445 16.3767 12.1318 16.3767C14.5325 16.388 16.922 16.3767 19.3115 16.3767Z" fill="white"/>
</g>
<defs>
<filter id="filter0_di_903_3513" x="0" y="0" width="49" height="44" filterUnits="userSpaceOnUse" color-interpolation-filters="sRGB">
<feFlood flood-opacity="0" result="BackgroundImageFix"/>
<feColorMatrix in="SourceAlpha" type="matrix" values="0 0 0 0 0 0 0 0 0 0 0 0 0 0 0 0 0 0 127 0" result="hardAlpha"/>
<feOffset dy="2"/>
<feGaussianBlur stdDeviation="1.5"/>
<feComposite in2="hardAlpha" operator="out"/>
<feColorMatrix type="matrix" values="0 0 0 0 1 0 0 0 0 1 0 0 0 0 1 0 0 0 0.4 0"/>
<feBlend mode="normal" in2="BackgroundImageFix" result="effect1_dropShadow_903_3513"/>
<feBlend mode="normal" in="SourceGraphic" in2="effect1_dropShadow_903_3513" result="shape"/>
<feColorMatrix in="SourceAlpha" type="matrix" values="0 0 0 0 0 0 0 0 0 0 0 0 0 0 0 0 0 0 127 0" result="hardAlpha"/>
<feOffset dy="3"/>
<feGaussianBlur stdDeviation="1.5"/>
<feComposite in2="hardAlpha" operator="arithmetic" k2="-1" k3="1"/>
<feColorMatrix type="matrix" values="0 0 0 0 0 0 0 0 0 0 0 0 0 0 0 0 0 0 0.21 0"/>
<feBlend mode="normal" in2="shape" result="effect2_innerShadow_903_3513"/>
</filter>
</defs>
</svg>
