<svg width="51" height="46" viewBox="0 0 51 46" fill="none" xmlns="http://www.w3.org/2000/svg">
<g opacity="0.8" filter="url(#filter0_di_915_22744)">
<path d="M47 37.0405C46.4391 38.1152 45.7211 38.2849 44.7227 37.5608C42.5687 36.011 40.4148 34.4725 38.2721 32.9113C37.5429 32.3796 36.7464 32.1308 35.8377 32.1308C30.9241 32.1421 26.0104 32.1308 21.108 32.1308C18.0903 32.1308 16.0149 30.0379 16.0149 27.0061C16.0149 26.3048 16.0149 25.6034 16.0149 24.8341C16.1944 24.8341 16.3626 24.8341 16.5197 24.8341C21.0295 24.8341 25.528 24.8454 30.0378 24.8341C33.4258 24.8228 36.2977 22.6847 37.2064 19.4606C37.3971 18.7818 37.4868 18.0465 37.498 17.3338C37.5317 15.0034 37.5093 12.673 37.5093 10.3539C37.5093 10.2068 37.5093 10.0485 37.5093 9.85615C38.2609 9.85615 38.9677 9.84484 39.6744 9.85615C40.7402 9.86746 41.8059 9.79959 42.8604 9.93534C44.9807 10.2182 46.5288 11.8019 46.9215 13.9287C46.9327 14.0079 46.9663 14.0871 47 14.1663C47 21.8023 47 29.4157 47 37.0405Z" fill="#503614"/>
<path d="M21.0744 0.00282816C25.1691 0.00282816 29.275 0.00282816 33.3697 0.00282816C34.5588 0.00282816 34.9851 0.432709 34.9851 1.62054C34.9851 6.8583 34.9851 12.0847 34.9851 17.3225C34.9851 19.6868 33.4594 21.6213 31.1821 22.153C30.7558 22.2548 30.2959 22.2888 29.8471 22.2888C24.9335 22.3001 20.0198 22.3001 15.1174 22.2888C14.2312 22.2888 13.4459 22.5376 12.7279 23.058C10.5291 24.6644 8.31907 26.2482 6.10905 27.832C5.25646 28.4428 4.22437 28.0922 4.03366 27.1306C4 26.9722 4.01122 26.7912 4.01122 26.6215C4 19.4606 4 12.2884 4 5.12746C4 2.11829 6.06418 0.0141408 9.05948 0.0141408C13.0644 -0.00848449 17.0694 0.00282816 21.0744 0.00282816ZM20.3339 9.46021C21.4109 9.46021 22.4879 9.46021 23.5648 9.46021C24.911 9.46021 26.246 9.47152 27.5922 9.46021C28.3887 9.4489 28.9384 8.81539 28.8487 8.04613C28.7702 7.35605 28.2205 6.92617 27.4127 6.92617C23.5536 6.92617 19.6945 6.92617 15.8354 6.92617C14.9379 6.92617 14.0404 6.92617 13.1542 6.92617C12.6269 6.92617 12.2006 7.1298 11.9426 7.61625C11.4827 8.48732 12.0997 9.4489 13.1205 9.46021C15.5325 9.46021 17.9332 9.4489 20.3339 9.46021ZM20.3115 15.3767C22.6337 15.3767 24.9559 15.3767 27.2781 15.3767C27.4352 15.3767 27.581 15.3767 27.7381 15.3654C28.3326 15.3089 28.8038 14.8337 28.8599 14.2455C28.916 13.6459 28.557 13.0803 27.9849 12.9106C27.7829 12.854 27.5698 12.8427 27.3679 12.8427C22.6786 12.8427 18.0005 12.8427 13.3112 12.8427C13.1205 12.8427 12.8849 12.8201 12.7391 12.9106C12.4362 13.1029 12.0772 13.3291 11.9202 13.6346C11.4939 14.4717 12.1445 15.3767 13.1318 15.3767C15.5325 15.388 17.922 15.3767 20.3115 15.3767Z" fill="#503614"/>
</g>
<defs>
<filter id="filter0_di_915_22744" x="0" y="0" width="51" height="46" filterUnits="userSpaceOnUse" color-interpolation-filters="sRGB">
<feFlood flood-opacity="0" result="BackgroundImageFix"/>
<feColorMatrix in="SourceAlpha" type="matrix" values="0 0 0 0 0 0 0 0 0 0 0 0 0 0 0 0 0 0 127 0" result="hardAlpha"/>
<feOffset dy="4"/>
<feGaussianBlur stdDeviation="2"/>
<feComposite in2="hardAlpha" operator="out"/>
<feColorMatrix type="matrix" values="0 0 0 0 1 0 0 0 0 1 0 0 0 0 1 0 0 0 0.55 0"/>
<feBlend mode="normal" in2="BackgroundImageFix" result="effect1_dropShadow_915_22744"/>
<feBlend mode="normal" in="SourceGraphic" in2="effect1_dropShadow_915_22744" result="shape"/>
<feColorMatrix in="SourceAlpha" type="matrix" values="0 0 0 0 0 0 0 0 0 0 0 0 0 0 0 0 0 0 127 0" result="hardAlpha"/>
<feOffset dy="4"/>
<feGaussianBlur stdDeviation="2"/>
<feComposite in2="hardAlpha" operator="arithmetic" k2="-1" k3="1"/>
<feColorMatrix type="matrix" values="0 0 0 0 0 0 0 0 0 0 0 0 0 0 0 0 0 0 0.65 0"/>
<feBlend mode="normal" in2="shape" result="effect2_innerShadow_915_22744"/>
</filter>
</defs>
</svg>
