<svg width="135" height="342" viewBox="0 0 135 342" fill="none" xmlns="http://www.w3.org/2000/svg">
<g clip-path="url(#clip0_146:3776)">
<path d="M118.85 183.836C126.588 181.378 130.868 173.113 128.409 165.375C125.951 157.638 117.686 153.358 109.948 155.816C102.211 158.275 97.9309 166.54 100.389 174.277C102.848 182.015 111.113 186.295 118.85 183.836Z" fill="#666666"/>
<path d="M110.767 183.39C118.261 185.398 125.963 180.951 127.971 173.457C129.979 165.964 125.532 158.261 118.038 156.253C110.545 154.245 102.842 158.692 100.834 166.186C98.8265 173.679 103.274 181.382 110.767 183.39Z" fill="#A66D44"/>
<path fill-rule="evenodd" clip-rule="evenodd" d="M109.407 156.716L109.983 158.889C110.733 160.905 113.418 168.134 114.877 169.062C115.409 169.396 115.804 169.168 115.976 168.127C116.465 165.188 116.437 161.192 115.808 157.297C115.735 156.812 115.64 156.32 115.539 155.851C115.34 155.834 115.128 155.825 114.915 155.816C115.019 156.321 115.114 156.812 115.195 157.312C115.815 161.061 115.834 164.912 115.375 167.739C115.3 168.197 115.178 168.343 115.025 168.242C113.779 167.455 111.096 160.131 110.469 158.458C110.408 158.286 110.365 158.179 110.354 158.129C110.148 157.608 110 157.09 109.88 156.556C109.714 156.596 109.556 156.649 109.407 156.716ZM122.83 158.593L122.777 158.567L122.847 158.753C123.144 159.561 124.44 160.697 126.015 162.086L126.238 162.277C125.358 160.883 124.223 159.635 122.83 158.593ZM122.349 158.249C123.229 160.981 124.293 163.118 125.557 163.48C126.167 163.656 126.704 163.835 127.199 164.04C127.366 164.395 127.506 164.767 127.645 165.138C127.049 164.823 126.384 164.586 125.582 164.371C123.894 163.894 122.594 161.122 121.574 157.755C121.839 157.922 122.097 158.074 122.349 158.249ZM120.32 157.085C120.85 159.83 121.31 162.127 121.433 162.602C122.224 165.669 123.524 165.408 124.824 165.147C125.871 164.938 126.919 164.729 127.869 165.819C128.017 166.337 128.15 166.862 128.248 167.39C128.065 167.138 127.881 166.886 127.676 166.628C126.939 165.678 125.993 165.866 125.047 166.055C123.458 166.369 121.882 166.676 120.865 162.761C120.732 162.235 120.231 159.736 119.675 156.816C119.87 156.892 120.095 156.989 120.32 157.085ZM119.077 156.596C119.161 157.264 119.253 157.945 119.331 158.635C120.021 164.039 120.718 169.553 122.285 171.191C124.46 173.458 124.274 175.223 124.038 177.62C123.952 178.385 123.879 179.238 123.877 180.181C123.684 180.368 123.468 180.549 123.258 180.708C123.202 179.403 123.31 178.285 123.411 177.285C123.616 175.226 123.759 173.712 121.989 171.852C120.14 169.923 119.417 164.2 118.706 158.563C118.617 157.823 118.521 157.068 118.427 156.35C118.652 156.447 118.86 156.514 119.077 156.596ZM117.975 156.253C118.599 160.565 118.949 165.054 118.829 167.195C118.762 168.515 119.615 169.699 120.477 170.897C121.505 172.319 122.533 173.741 122.398 175.628C122.346 176.355 122.489 178.722 122.722 181.149C122.54 181.292 122.351 181.42 122.147 181.556C121.878 178.905 121.714 176.173 121.775 175.366C121.866 173.957 120.989 172.73 120.097 171.512C119.093 170.132 118.097 168.767 118.201 166.955C118.309 164.858 117.961 160.406 117.331 156.117C117.552 156.14 117.752 156.194 117.975 156.253ZM116.849 155.999C117.098 157.344 117.314 158.632 117.495 159.696C117.632 160.521 117.754 161.222 117.844 161.736C118.617 165.849 117.845 168.329 117.226 170.325C116.821 171.614 116.49 172.672 116.752 173.745C117.238 175.762 117.836 177.32 118.446 178.964C118.897 180.136 119.358 181.358 119.801 182.779C119.615 182.849 119.437 182.932 119.243 182.988C118.808 181.581 118.35 180.396 117.921 179.23C117.287 177.543 116.678 175.935 116.165 173.839C115.817 172.42 116.198 171.22 116.645 169.775C117.234 167.89 117.956 165.552 117.253 161.757C117.155 161.229 117.033 160.527 116.896 159.702C116.713 158.602 116.486 157.264 116.235 155.883C116.436 155.936 116.642 155.968 116.849 155.999ZM114.672 155.786C114.814 156.326 114.948 156.852 115.068 157.385C115.558 159.702 115.659 161.999 115.067 164.073C114.904 164.639 114.645 164.713 114.292 164.427C113.538 163.807 112.252 159.784 111.208 156.148C111.41 156.106 111.59 156.059 111.778 156.026C112.752 159.476 113.91 163.178 114.495 163.669C114.525 163.689 114.448 163.621 114.46 163.576C115.012 161.694 114.916 159.602 114.459 157.473C114.346 156.917 114.209 156.355 114.037 155.795C114.264 155.796 114.468 155.791 114.672 155.786ZM117.536 183.522C117.738 183.48 117.932 183.425 118.126 183.369C117.202 180.757 116.223 178.213 115.228 175.642C114.381 173.456 113.547 171.262 112.726 169.023L114.319 174.98L114.683 175.938C115.654 178.467 116.622 180.96 117.536 183.522ZM126.112 177.591C126.319 177.264 126.526 176.937 126.711 176.604C126.627 175.221 126.375 173.935 126.161 172.815C125.708 170.496 125.399 168.884 127.302 168.558C127.527 168.523 127.957 168.877 128.445 169.461C128.432 169.111 128.41 168.747 128.382 168.405C127.884 167.902 127.421 167.622 127.11 167.67C124.643 168.096 125.016 170.047 125.559 172.88C125.824 174.253 126.133 175.864 126.112 177.591ZM120.887 181.756C120.912 181.44 120.859 180.925 120.761 180.265C120.776 179.899 120.821 179.553 120.869 179.375C120.904 179.241 120.928 179.152 120.952 179.063C120.982 178.951 120.998 178.848 121.03 178.773C121.604 176.407 121.404 175.995 120.783 174.789C120.6 174.406 120.344 173.931 120.082 173.216C119.961 172.909 119.865 172.644 119.779 172.43C119.677 172.188 119.599 171.988 119.532 171.838C119.168 171.012 118.895 170.736 118.663 170.889C118.312 171.13 118.777 173.272 119.28 175.676C119.6 177.243 119.972 178.931 120.145 180.112C120.138 180.23 120.138 180.361 120.131 180.479C120.125 180.991 120.192 181.498 120.341 181.789C120.449 182.009 120.652 182.099 120.777 181.989C120.842 181.971 120.88 181.874 120.887 181.756ZM120.405 178.343C120.865 176.4 120.716 176.109 120.283 175.229C120.083 174.817 119.826 174.306 119.531 173.534C119.427 173.255 119.316 172.999 119.236 172.763L119.212 172.72C119.379 173.434 119.61 174.487 119.838 175.599C120.032 176.523 120.235 177.461 120.405 178.343ZM119.012 171.818C119.03 171.752 119.05 171.721 119.007 171.746C119.007 171.746 119.009 171.782 119.012 171.818Z" fill="#9E6338"/>
<path fill-rule="evenodd" clip-rule="evenodd" d="M109.406 156.716L109.983 158.889C110.35 160.994 111.641 168.613 110.834 170.152C110.545 170.696 110.1 170.708 109.423 169.894C107.53 167.595 105.56 164.117 104.162 160.422L104.119 160.315C104.27 160.152 104.421 159.99 104.58 159.841C104.623 159.949 104.658 160.041 104.701 160.149C106.04 163.708 107.951 167.051 109.772 169.259C110.071 169.613 110.243 169.683 110.321 169.525C111.018 168.219 109.672 160.537 109.369 158.772C109.344 158.598 109.315 158.483 109.319 158.424C109.244 157.902 109.126 157.405 108.98 156.924C109.099 156.836 109.249 156.769 109.406 156.716ZM107.649 157.523C107.48 157.621 107.296 157.727 107.127 157.825C107.955 161.152 108.719 164.629 108.467 165.302C108.455 165.347 108.485 165.235 108.455 165.215C107.042 163.845 106.097 161.98 105.41 159.909C105.338 159.686 105.266 159.464 105.194 159.242C105.035 159.39 104.876 159.539 104.703 159.695C104.748 159.839 104.801 159.996 104.846 160.14C105.581 162.391 106.638 164.418 108.191 165.933C108.609 166.331 108.884 166.286 109.034 165.86C109.354 164.978 108.521 161.089 107.649 157.523ZM103.603 160.858C103.46 161.034 103.303 161.219 103.168 161.41C103.422 162.111 103.666 162.762 103.891 163.347C104.18 164.141 104.432 164.806 104.6 165.293C105.992 169.237 107.904 171.015 109.436 172.429C110.434 173.341 111.246 174.097 111.559 175.16C112.138 177.142 112.421 178.806 112.7 180.529C112.872 181.579 113.039 182.651 113.293 183.841C113.492 183.859 113.704 183.868 113.917 183.877C113.654 182.672 113.479 181.586 113.313 180.514C113.024 178.741 112.753 177.032 112.147 174.971C111.726 173.556 110.813 172.726 109.706 171.689C108.259 170.358 106.449 168.691 105.17 165.04C104.993 164.538 104.741 163.874 104.453 163.08C104.178 162.409 103.9 161.666 103.603 160.858ZM102.899 161.792C104.333 165.221 105.893 168.446 106.883 169.966C107.865 171.471 107.689 173.155 107.506 174.862C107.355 176.362 107.19 177.87 107.984 179.051C108.353 179.591 109.222 181.293 110.127 183.22C109.852 183.134 109.59 183.04 109.321 182.932C108.569 181.369 107.906 180.057 107.594 179.615C106.535 178.041 106.715 176.298 106.896 174.555C107.049 173.091 107.21 171.642 106.471 170.524C105.473 168.99 103.922 165.816 102.491 162.423C102.623 162.196 102.75 161.991 102.899 161.792ZM102.218 162.863L102.277 162.998C104.469 168.232 106.711 173.55 106.077 176.139C105.467 178.639 106.345 179.865 107.556 181.54C107.747 181.806 107.947 182.086 108.155 182.381C107.702 182.152 107.256 181.901 106.83 181.62C105.608 179.895 104.812 178.452 105.486 175.67C106.021 173.497 103.936 168.483 101.856 163.543C101.967 163.309 102.085 163.09 102.218 162.863ZM101.45 164.437C101.335 164.729 101.221 165.021 101.116 165.327C101.558 166.616 101.87 167.547 101.946 167.842C102.74 170.719 101.676 171.258 100.502 171.672C100.55 171.983 100.598 172.294 100.66 172.598C102.157 172.091 103.592 171.508 102.528 167.676C102.411 167.31 102.001 166.078 101.45 164.437ZM101.345 174.991C101.852 176.261 102.54 177.484 103.425 178.593C102.814 176.817 102.308 175.452 101.345 174.991ZM111.708 183.608C111.591 183.373 111.487 183.095 111.366 182.787C111.164 182.471 110.951 182.198 110.833 182.059C110.739 181.963 110.662 181.894 110.607 181.832C110.522 181.749 110.459 181.672 110.404 181.61C108.726 179.847 108.706 179.388 108.625 178.04C108.607 177.617 108.574 177.071 108.45 176.333C108.394 176.007 108.348 175.732 108.326 175.5C108.289 175.239 108.262 175.029 108.237 174.855C108.131 173.955 108.241 173.59 108.512 173.603C108.931 173.643 109.604 175.723 110.38 178.044C110.88 179.564 111.41 181.199 111.85 182.32C111.907 182.419 111.972 182.532 112.029 182.631C112.241 182.998 112.411 183.39 112.473 183.693C112.218 183.708 111.967 183.665 111.708 183.608ZM115.143 183.847C115.347 183.842 115.543 183.823 115.74 183.804C115.269 181.194 114.85 178.609 114.438 176.003L114.282 174.982L112.689 169.025C113.1 171.369 113.467 173.7 113.839 176.009C114.26 178.63 114.664 181.223 115.143 183.847ZM110.692 180.935C109.312 179.49 109.292 179.162 109.233 178.179C109.213 177.72 109.178 177.137 109.034 176.334C108.995 176.037 108.949 175.762 108.905 175.524L108.895 175.473C109.113 176.176 109.423 177.203 109.788 178.292C110.097 179.187 110.401 180.104 110.692 180.935ZM108.638 174.604C108.591 174.556 108.561 174.535 108.606 174.547C108.62 174.539 108.614 174.562 108.638 174.604Z" fill="#9E6338"/>
<path fill-rule="evenodd" clip-rule="evenodd" d="M126.317 162.381L110.632 183.343C111.598 183.614 112.572 183.768 113.548 183.826L127.61 165.045C127.27 164.13 126.843 163.227 126.317 162.381Z" fill="#666666"/>
<path fill-rule="evenodd" clip-rule="evenodd" d="M115.237 155.817L101.195 174.568C101.521 175.492 101.962 176.386 102.474 177.24L118.153 156.3C117.186 156.029 116.212 155.876 115.237 155.817Z" fill="#666666"/>
<path fill-rule="evenodd" clip-rule="evenodd" d="M106.986 157.906L127.947 173.591C128.218 172.625 128.372 171.65 128.43 170.675L109.649 156.613C108.72 156.961 107.831 157.38 106.986 157.906Z" fill="#808080"/>
<path fill-rule="evenodd" clip-rule="evenodd" d="M100.4 168.98L119.173 183.028C120.096 182.702 120.99 182.261 121.836 181.735L100.882 166.064C100.611 167.031 100.458 168.005 100.4 168.98Z" fill="#808080"/>
<path d="M114.948 173.637C117.053 173.334 118.514 171.383 118.211 169.278C117.909 167.173 115.957 165.712 113.852 166.014C111.747 166.317 110.286 168.269 110.589 170.374C110.891 172.478 112.843 173.94 114.948 173.637Z" fill="#666666"/>
<path d="M113.566 172.517C115.054 172.979 116.636 172.147 117.098 170.658C117.56 169.169 116.728 167.588 115.239 167.126C113.75 166.664 112.169 167.496 111.707 168.985C111.245 170.474 112.077 172.055 113.566 172.517Z" fill="#4D4D4D"/>
</g>
<g clip-path="url(#clip1_146:3776)">
<path d="M128.812 330.217C130.587 322.13 125.469 314.135 117.381 312.361C109.294 310.586 101.299 315.704 99.5247 323.792C97.7503 331.879 102.868 339.874 110.956 341.648C119.043 343.423 127.038 338.305 128.812 330.217Z" fill="#666666"/>
<path d="M124.296 337.129C129.891 331.534 129.891 322.464 124.296 316.869C118.701 311.274 109.631 311.274 104.036 316.869C98.4415 322.464 98.4415 331.534 104.036 337.129C109.631 342.724 118.701 342.724 124.296 337.129Z" fill="#A66D44"/>
<path fill-rule="evenodd" clip-rule="evenodd" d="M100.043 324.729L102.256 325.328C104.419 325.694 112.173 327.008 113.737 326.193C114.303 325.893 114.303 325.428 113.471 324.745C111.125 322.815 107.58 320.802 103.82 319.371C103.354 319.188 102.872 319.022 102.406 318.872C102.289 319.038 102.173 319.221 102.056 319.404C102.555 319.571 103.038 319.737 103.521 319.92C107.148 321.284 110.559 323.231 112.822 325.078C113.188 325.378 113.254 325.561 113.088 325.644C111.757 326.343 103.92 324.978 102.123 324.679C101.94 324.645 101.823 324.629 101.773 324.612C101.208 324.529 100.675 324.396 100.143 324.23C100.093 324.396 100.06 324.562 100.043 324.729ZM108.545 313.83L108.496 313.863L108.695 313.897C109.56 314.046 111.224 313.481 113.254 312.799L113.537 312.699C111.857 312.765 110.176 313.131 108.545 313.83ZM107.996 314.08C110.858 314.695 113.288 314.845 114.253 313.913C114.719 313.464 115.151 313.081 115.584 312.749C115.983 312.782 116.382 312.848 116.782 312.915C116.199 313.281 115.65 313.747 115.051 314.346C113.77 315.594 110.659 315.328 107.164 314.512C107.447 314.363 107.714 314.213 107.996 314.08ZM105.933 315.278C108.629 316.21 110.892 316.975 111.374 317.108C114.486 317.973 114.918 316.692 115.351 315.411C115.7 314.379 116.05 313.348 117.497 313.065C118.03 313.198 118.562 313.348 119.078 313.531C118.762 313.564 118.446 313.597 118.113 313.647C116.898 313.814 116.582 314.745 116.266 315.677C115.733 317.241 115.201 318.789 111.224 317.69C110.692 317.541 108.229 316.709 105.367 315.71C105.534 315.577 105.733 315.428 105.933 315.278ZM104.868 316.126C105.501 316.393 106.149 316.659 106.798 316.942C111.923 319.088 117.148 321.284 119.394 320.735C122.506 319.97 123.97 321.035 125.966 322.466C126.599 322.932 127.314 323.431 128.146 323.913C128.213 324.18 128.263 324.462 128.296 324.729C127.115 324.113 126.183 323.447 125.351 322.848C123.637 321.617 122.372 320.719 119.827 321.334C117.181 321.983 111.757 319.704 106.416 317.457C105.717 317.158 105.001 316.858 104.319 316.576C104.519 316.426 104.685 316.276 104.868 316.126ZM104.003 316.925C108.129 318.572 112.273 320.552 114.103 321.75C115.234 322.482 116.715 322.333 118.213 322.183C119.993 322 121.773 321.817 123.371 322.898C123.986 323.314 126.149 324.396 128.412 325.428C128.446 325.66 128.462 325.893 128.479 326.143C126 325.028 123.504 323.78 122.822 323.314C121.624 322.516 120.093 322.665 118.562 322.832C116.832 323.015 115.118 323.198 113.57 322.183C111.773 321.018 107.664 319.055 103.554 317.424C103.687 317.241 103.837 317.091 104.003 316.925ZM103.204 317.79C104.519 318.256 105.767 318.722 106.798 319.105C107.597 319.404 108.279 319.654 108.778 319.837C112.805 321.251 114.602 323.198 116.05 324.762C116.981 325.777 117.747 326.609 118.828 326.925C120.858 327.524 122.539 327.79 124.303 328.09C125.567 328.289 126.882 328.506 128.362 328.838C128.329 329.038 128.313 329.238 128.263 329.438C126.798 329.105 125.517 328.905 124.269 328.689C122.456 328.389 120.725 328.106 118.612 327.491C117.181 327.075 116.316 326.126 115.268 324.995C113.903 323.514 112.206 321.684 108.496 320.369C107.98 320.186 107.298 319.937 106.499 319.637C105.434 319.238 104.136 318.755 102.788 318.273C102.938 318.123 103.071 317.957 103.204 317.79ZM101.907 319.604C102.456 319.754 102.988 319.903 103.521 320.07C105.817 320.819 107.897 321.9 109.427 323.481C109.843 323.913 109.777 324.18 109.344 324.346C108.412 324.695 104.203 323.78 100.459 322.848C100.525 322.649 100.575 322.466 100.642 322.283C104.186 323.181 108.046 324.046 108.778 323.78C108.812 323.764 108.712 323.797 108.679 323.764C107.298 322.316 105.401 321.334 103.288 320.652C102.738 320.469 102.173 320.303 101.59 320.17C101.707 319.97 101.807 319.787 101.907 319.604ZM127.863 331.218C127.93 331.018 127.98 330.819 128.03 330.619C125.251 330.103 122.506 329.67 119.727 329.238C117.364 328.872 115.001 328.489 112.605 328.073L118.679 329.704L119.71 329.87C122.439 330.303 125.134 330.719 127.863 331.218ZM126.998 320.619C126.815 320.269 126.632 319.92 126.432 319.587C125.168 318.955 123.903 318.522 122.805 318.14C120.526 317.358 118.945 316.809 119.627 314.962C119.71 314.745 120.243 314.546 121.008 314.413C120.692 314.246 120.359 314.08 120.043 313.93C119.344 314.113 118.862 314.379 118.745 314.679C117.863 317.075 119.777 317.74 122.555 318.705C123.903 319.171 125.484 319.72 126.998 320.619ZM128.013 327.358C127.747 327.175 127.264 326.958 126.632 326.709C126.316 326.509 126.033 326.293 125.9 326.16C125.8 326.06 125.733 325.993 125.667 325.927C125.584 325.843 125.501 325.777 125.451 325.71C123.654 323.997 123.188 323.963 121.807 323.897C121.374 323.863 120.825 323.847 120.06 323.714C119.727 323.664 119.444 323.614 119.211 323.581C118.945 323.547 118.728 323.514 118.562 323.497C117.647 323.398 117.264 323.497 117.281 323.78C117.314 324.213 119.444 324.895 121.823 325.677C123.371 326.193 125.051 326.725 126.183 327.175C126.283 327.241 126.399 327.308 126.499 327.374C126.948 327.64 127.431 327.84 127.763 327.857C128.013 327.873 128.196 327.74 128.163 327.574C128.179 327.507 128.113 327.424 128.013 327.358ZM124.752 326.043C123.271 324.645 122.938 324.629 121.94 324.562C121.474 324.529 120.892 324.496 120.06 324.363C119.76 324.313 119.477 324.279 119.228 324.23H119.178C119.893 324.446 120.941 324.779 122.04 325.145C122.955 325.444 123.887 325.744 124.752 326.043ZM118.279 323.947C118.229 323.897 118.213 323.863 118.213 323.913C118.213 323.913 118.246 323.93 118.279 323.947Z" fill="#9E6338"/>
<path fill-rule="evenodd" clip-rule="evenodd" d="M100.043 324.729L102.256 325.328C104.303 326.077 111.69 328.822 112.639 330.319C112.971 330.852 112.755 331.251 111.69 331.434C108.695 331.933 104.619 331.9 100.642 331.251L100.525 331.235C100.459 331.018 100.392 330.802 100.342 330.586C100.459 330.602 100.559 330.619 100.675 330.636C104.502 331.268 108.429 331.285 111.308 330.802C111.773 330.719 111.923 330.602 111.823 330.453C111.025 329.171 103.554 326.443 101.84 325.81C101.674 325.744 101.557 325.71 101.507 325.677C101.008 325.478 100.509 325.328 100.01 325.211C99.993 325.062 100.01 324.895 100.043 324.729ZM99.8599 326.692C99.8599 326.892 99.8599 327.108 99.8599 327.308C103.221 328.273 106.682 329.371 107.148 329.937C107.181 329.97 107.098 329.887 107.065 329.903C105.134 330.453 103.005 330.336 100.825 329.887C100.592 329.837 100.359 329.787 100.126 329.737C100.176 329.953 100.226 330.17 100.276 330.403C100.426 330.436 100.592 330.469 100.742 330.502C103.105 331.002 105.434 331.101 107.564 330.502C108.129 330.336 108.229 330.07 107.93 329.72C107.314 328.988 103.454 327.74 99.8599 326.692ZM100.742 331.967C100.825 332.183 100.908 332.416 101.008 332.632C101.757 332.765 102.456 332.882 103.088 332.982C103.936 333.131 104.652 333.248 105.168 333.348C109.361 334.13 111.907 333.348 113.936 332.715C115.251 332.299 116.332 331.967 117.431 332.233C119.477 332.732 121.091 333.331 122.755 333.963C123.77 334.346 124.802 334.745 125.983 335.128C126.1 334.962 126.216 334.779 126.332 334.596C125.134 334.213 124.086 333.814 123.055 333.414C121.341 332.765 119.694 332.133 117.564 331.617C116.1 331.268 114.902 331.651 113.421 332.1C111.507 332.699 109.111 333.448 105.234 332.715C104.702 332.616 103.986 332.499 103.138 332.349C102.406 332.25 101.607 332.116 100.742 331.967ZM101.208 333.065C104.968 333.547 108.612 333.814 110.459 333.714C112.289 333.614 113.687 334.629 115.101 335.661C116.349 336.559 117.597 337.474 119.045 337.374C119.71 337.324 121.657 337.424 123.82 337.607C123.604 337.807 123.387 337.99 123.154 338.173C121.391 338.04 119.893 337.957 119.344 338.007C117.414 338.14 115.966 337.091 114.519 336.043C113.304 335.161 112.106 334.28 110.742 334.363C108.878 334.463 105.284 334.213 101.557 333.747C101.424 333.514 101.308 333.298 101.208 333.065ZM101.807 334.213L101.956 334.23C107.697 334.962 113.537 335.694 115.501 337.574C117.397 339.388 118.928 339.238 121.025 339.022C121.357 338.988 121.707 338.955 122.073 338.922C121.64 339.205 121.191 339.471 120.725 339.704C118.579 339.903 116.898 339.87 114.785 337.857C113.138 336.276 107.647 335.561 102.223 334.879C102.073 334.662 101.94 334.446 101.807 334.213ZM102.805 335.694C103.005 335.943 103.204 336.193 103.421 336.443C104.785 336.709 105.767 336.908 106.066 336.992C109.011 337.757 108.945 338.972 108.712 340.22C109.011 340.336 109.311 340.453 109.61 340.552C109.926 338.972 110.143 337.408 106.216 336.393C105.833 336.309 104.535 336.043 102.805 335.694ZM112.073 341.168C113.454 341.368 114.885 341.384 116.316 341.168C114.436 340.802 112.971 340.552 112.073 341.168ZM124.968 336.409C124.702 336.393 124.402 336.343 124.07 336.293C123.687 336.309 123.337 336.359 123.154 336.393C123.021 336.426 122.921 336.459 122.838 336.476C122.722 336.509 122.622 336.526 122.539 336.542C120.126 337.125 119.71 336.908 118.479 336.293C118.096 336.093 117.597 335.844 116.882 335.577C116.565 335.461 116.299 335.361 116.083 335.261C115.833 335.161 115.634 335.078 115.467 335.012C114.619 334.646 114.352 334.363 114.502 334.13C114.752 333.78 116.931 334.246 119.377 334.745C120.975 335.078 122.689 335.444 123.903 335.627C124.02 335.627 124.153 335.627 124.269 335.627C124.702 335.627 125.134 335.677 125.434 335.777C125.317 336.01 125.151 336.21 124.968 336.409ZM126.931 333.497C127.031 333.314 127.114 333.131 127.198 332.948C124.652 332.033 122.156 331.085 119.644 330.12L118.662 329.737L112.589 328.106C114.868 328.938 117.115 329.804 119.344 330.652C121.873 331.617 124.369 332.582 126.931 333.497ZM122.09 335.943C120.11 336.426 119.81 336.276 118.912 335.827C118.496 335.611 117.963 335.344 117.181 335.062C116.898 334.945 116.632 334.845 116.399 334.762L116.349 334.745C117.081 334.912 118.146 335.161 119.294 335.394C120.243 335.577 121.208 335.777 122.09 335.943ZM115.451 334.529C115.384 334.546 115.351 334.562 115.384 334.529C115.384 334.512 115.401 334.529 115.451 334.529Z" fill="#9E6338"/>
<path fill-rule="evenodd" clip-rule="evenodd" d="M113.67 312.682L124.186 337.225C124.918 336.509 125.55 335.727 126.099 334.895L116.682 312.899C115.7 312.732 114.685 312.649 113.67 312.682Z" fill="#666666"/>
<path fill-rule="evenodd" clip-rule="evenodd" d="M102.223 319.121L111.624 341.085C112.605 341.268 113.62 341.334 114.635 341.318L104.136 316.792C103.404 317.507 102.772 318.289 102.223 319.121Z" fill="#666666"/>
<path fill-rule="evenodd" clip-rule="evenodd" d="M99.86 327.474L124.402 316.958C123.687 316.226 122.905 315.594 122.073 315.045L100.076 324.462C99.9099 325.461 99.8267 326.459 99.86 327.474Z" fill="#808080"/>
<path fill-rule="evenodd" clip-rule="evenodd" d="M106.283 338.938L128.263 329.521C128.446 328.539 128.512 327.524 128.479 326.509L103.953 337.025C104.669 337.757 105.451 338.389 106.283 338.938Z" fill="#808080"/>
<path d="M117.814 328.463C118.62 326.45 117.641 324.164 115.628 323.358C113.614 322.552 111.329 323.531 110.523 325.544C109.717 327.557 110.695 329.843 112.709 330.649C114.722 331.455 117.008 330.477 117.814 328.463Z" fill="#666666"/>
<path d="M116.12 329.113C117.287 328.034 117.359 326.212 116.279 325.045C115.2 323.878 113.379 323.807 112.212 324.886C111.044 325.965 110.973 327.786 112.052 328.954C113.132 330.121 114.953 330.192 116.12 329.113Z" fill="#4D4D4D"/>
</g>
<g clip-path="url(#clip2_146:3776)">
<path d="M89.8124 18.2172C91.5867 10.1296 86.4688 2.13498 78.3812 0.360644C70.2937 -1.41369 62.299 3.70421 60.5247 11.7918C58.7503 19.8794 63.8682 27.8741 71.9558 29.6484C80.0434 31.4227 88.0381 26.3048 89.8124 18.2172Z" fill="#666666"/>
<path d="M83.2144 23.0475C87.6594 18.6025 87.6594 11.3958 83.2144 6.95079C78.7695 2.50581 71.5627 2.50581 67.1177 6.95079C62.6728 11.3958 62.6728 18.6025 67.1177 23.0475C71.5627 27.4925 78.7695 27.4925 83.2144 23.0475Z" fill="#A66D44"/>
<path fill-rule="evenodd" clip-rule="evenodd" d="M63.9451 13.1953L65.7034 13.6712C67.4219 13.9621 73.5823 15.0064 74.825 14.3587C75.2745 14.1207 75.2745 13.7506 74.6135 13.2085C72.7495 11.6751 69.9337 10.0755 66.946 8.93857C66.5759 8.79315 66.1925 8.66095 65.8223 8.54198C65.7298 8.67417 65.6373 8.81959 65.5447 8.96501C65.9413 9.09721 66.3247 9.2294 66.7081 9.37482C69.59 10.4588 72.3 12.0055 74.0979 13.4729C74.3887 13.7109 74.4416 13.8563 74.3094 13.9224C73.2518 14.4776 67.0253 13.3936 65.5976 13.1557C65.4522 13.1292 65.3596 13.116 65.32 13.1028C64.8705 13.0367 64.4475 12.9309 64.0244 12.7987C63.9848 12.9309 63.9583 13.0631 63.9451 13.1953ZM70.7004 4.53639L70.6608 4.56283L70.8194 4.58927C71.5068 4.70825 72.8288 4.25878 74.4416 3.71677L74.6663 3.63745C73.3311 3.69033 71.996 3.98116 70.7004 4.53639ZM70.2642 4.73469C72.538 5.22382 74.468 5.3428 75.2348 4.60249C75.6049 4.24556 75.9487 3.94151 76.2924 3.67711C76.6096 3.70355 76.9269 3.75643 77.2442 3.80931C76.7815 4.10014 76.3453 4.4703 75.8693 4.94621C74.8514 5.93769 72.3793 5.72617 69.6032 5.0784C69.8279 4.95943 70.0394 4.84045 70.2642 4.73469ZM68.6249 5.68651C70.7665 6.42682 72.5644 7.03493 72.9478 7.14068C75.4199 7.82811 75.7636 6.81019 76.1073 5.79227C76.3849 4.97265 76.6625 4.15302 77.8126 3.92829C78.2357 4.03404 78.6587 4.15302 79.0685 4.29844C78.8173 4.32488 78.5662 4.35132 78.3018 4.39098C77.3367 4.52317 77.0856 5.26348 76.8344 6.00379C76.4113 7.24644 75.9883 8.47588 72.8288 7.60337C72.4058 7.4844 70.4492 6.82341 68.1754 6.03022C68.3076 5.92447 68.4663 5.80549 68.6249 5.68651ZM67.7789 6.36072C68.2812 6.57223 68.7968 6.78375 69.3123 7.00849C73.384 8.71383 77.535 10.4588 79.3197 10.0226C81.7918 9.41448 82.9551 10.2605 84.5415 11.3974C85.0438 11.7676 85.6123 12.1642 86.2733 12.5476C86.3262 12.7591 86.3658 12.9838 86.3923 13.1953C85.4537 12.7062 84.7133 12.1774 84.0524 11.7015C82.6907 10.7232 81.686 10.0094 79.6634 10.4985C77.5615 11.0141 73.2518 9.20296 69.0083 7.4183C68.4531 7.18034 67.8846 6.94239 67.3426 6.71765C67.5012 6.59867 67.6334 6.4797 67.7789 6.36072ZM67.0914 6.99527C70.3699 8.30402 73.6616 9.87717 75.1158 10.829C76.0148 11.4107 77.1913 11.2917 78.3811 11.1727C79.7956 11.0273 81.2101 10.8819 82.4792 11.7412C82.9683 12.0716 84.6869 12.9309 86.4848 13.7506C86.5112 13.9356 86.5245 14.1207 86.5377 14.319C84.5679 13.4333 82.585 12.4418 82.043 12.0716C81.0911 11.4371 79.8749 11.5561 78.6587 11.6883C77.2839 11.8337 75.9222 11.9791 74.6928 11.1727C73.265 10.2473 69.9998 8.68739 66.7345 7.39186C66.8403 7.24644 66.9592 7.12746 67.0914 6.99527ZM66.4569 7.68269C67.5012 8.05285 68.4927 8.423 69.3123 8.72705C69.9469 8.96501 70.4889 9.1633 70.8855 9.30872C74.0847 10.4324 75.5124 11.9791 76.6625 13.2218C77.4028 14.0282 78.0109 14.6892 78.8702 14.9403C80.483 15.4162 81.8182 15.6278 83.2195 15.8657C84.2242 16.0244 85.2686 16.1962 86.4451 16.4606C86.4187 16.6192 86.4055 16.7779 86.3658 16.9365C85.2025 16.6721 84.1846 16.5135 83.1931 16.3416C81.7521 16.1037 80.3773 15.8789 78.6984 15.3898C77.5615 15.0593 76.874 14.3058 76.0412 13.4068C74.9572 12.2303 73.6088 10.7761 70.6608 9.73175C70.2509 9.58634 69.7089 9.38804 69.0744 9.15008C68.2283 8.83281 67.1972 8.44944 66.1264 8.06607C66.2454 7.94709 66.3511 7.81489 66.4569 7.68269ZM65.4257 9.12364C65.862 9.24262 66.285 9.3616 66.7081 9.4938C68.5324 10.0887 70.1848 10.948 71.4011 12.2038C71.7316 12.5476 71.6787 12.7591 71.335 12.8913C70.5947 13.1689 67.2501 12.4418 64.2756 11.7015C64.3285 11.5429 64.3682 11.3974 64.421 11.252C67.2368 11.9659 70.3038 12.6533 70.8855 12.4418C70.9119 12.4286 70.8326 12.455 70.8062 12.4286C69.7089 11.2785 68.2019 10.4985 66.523 9.95649C66.0867 9.81107 65.6373 9.67887 65.1746 9.57312C65.2671 9.41448 65.3464 9.26906 65.4257 9.12364ZM86.0485 18.351C86.1014 18.1924 86.1411 18.0338 86.1807 17.8751C83.973 17.4653 81.7918 17.1216 79.5841 16.7779C77.7069 16.487 75.8297 16.183 73.926 15.8525L78.7512 17.148L79.5709 17.2802C81.7389 17.6239 83.8805 17.9544 86.0485 18.351ZM85.3611 9.93005C85.2157 9.65243 85.0703 9.37482 84.9116 9.11042C83.9069 8.60807 82.9022 8.26436 82.0297 7.96031C80.2186 7.33898 78.9628 6.90273 79.5048 5.43534C79.5709 5.26348 79.9939 5.10484 80.602 4.99908C80.3508 4.86689 80.0864 4.73469 79.8353 4.61571C79.28 4.76113 78.8967 4.97265 78.8041 5.2106C78.1035 7.11424 79.6237 7.64303 81.8314 8.40978C82.9022 8.77993 84.1581 9.21618 85.3611 9.93005ZM86.1675 15.284C85.956 15.1386 85.5726 14.9668 85.0703 14.7685C84.8191 14.6098 84.5944 14.438 84.4886 14.3322C84.4093 14.2529 84.3564 14.2 84.3035 14.1471C84.2374 14.081 84.1713 14.0282 84.1317 13.9753C82.7039 12.6137 82.3338 12.5872 81.2366 12.5343C80.8928 12.5079 80.4566 12.4947 79.8485 12.3889C79.5841 12.3493 79.3594 12.3096 79.1743 12.2832C78.9628 12.2567 78.7909 12.2303 78.6587 12.2171C77.9316 12.1377 77.6276 12.2171 77.6408 12.4418C77.6672 12.7855 79.3594 13.3275 81.2498 13.9489C82.4792 14.3587 83.8144 14.7817 84.7133 15.1386C84.7927 15.1915 84.8852 15.2444 84.9645 15.2973C85.3215 15.5088 85.7048 15.6674 85.9692 15.6806C86.1675 15.6939 86.3129 15.5881 86.2865 15.4559C86.2997 15.403 86.2468 15.3369 86.1675 15.284ZM83.5764 14.2397C82.3999 13.1292 82.1355 13.116 81.3423 13.0631C80.9722 13.0367 80.5095 13.0103 79.8485 12.9045C79.6105 12.8648 79.3858 12.8384 79.1875 12.7987H79.1478C79.7163 12.9706 80.5491 13.235 81.4216 13.5258C82.1487 13.7638 82.889 14.0017 83.5764 14.2397ZM78.434 12.574C78.3943 12.5343 78.3811 12.5079 78.3811 12.5476C78.3811 12.5476 78.4075 12.5608 78.434 12.574Z" fill="#9E6338"/>
<path fill-rule="evenodd" clip-rule="evenodd" d="M63.9452 13.1954L65.7034 13.6713C67.3294 14.2662 73.199 16.4475 73.9525 17.6373C74.2169 18.0603 74.045 18.3776 73.199 18.523C70.8194 18.9196 67.5806 18.8931 64.4211 18.3776L64.3285 18.3644C64.2757 18.1925 64.2228 18.0206 64.1831 17.8488C64.2757 17.862 64.355 17.8752 64.4475 17.8884C67.4881 18.3908 70.6079 18.404 72.8949 18.0206C73.2651 17.9545 73.3841 17.862 73.3047 17.743C72.6702 16.7251 66.7345 14.5571 65.3729 14.0547C65.2407 14.0018 65.1482 13.9754 65.1085 13.949C64.7119 13.7903 64.3153 13.6713 63.9187 13.5788C63.9055 13.4598 63.9187 13.3276 63.9452 13.1954ZM63.7997 14.7554C63.7997 14.914 63.7997 15.0859 63.7997 15.2445C66.4701 16.0112 69.2198 16.8837 69.59 17.3332C69.6164 17.3597 69.5503 17.2936 69.5239 17.3068C67.9904 17.743 66.2983 17.6505 64.5665 17.2936C64.3814 17.2539 64.1963 17.2142 64.0113 17.1746C64.0509 17.3464 64.0906 17.5183 64.1302 17.7034C64.2492 17.7298 64.3814 17.7562 64.5004 17.7827C66.3776 18.1793 68.2284 18.2586 69.9205 17.7827C70.37 17.6505 70.4493 17.439 70.2113 17.1614C69.7222 16.5797 66.6552 15.5882 63.7997 14.7554ZM64.5004 18.946C64.5665 19.1179 64.6326 19.303 64.7119 19.4748C65.3068 19.5806 65.862 19.6731 66.3644 19.7524C67.0386 19.8714 67.607 19.9639 68.0168 20.0433C71.3482 20.6646 73.3708 20.0433 74.9836 19.5409C76.028 19.2104 76.8873 18.946 77.7598 19.1575C79.3858 19.5541 80.6681 20.03 81.9901 20.5324C82.7965 20.8365 83.6161 21.1537 84.5547 21.4578C84.6473 21.3256 84.7398 21.1802 84.8323 21.0347C83.8805 20.7307 83.0477 20.4134 82.2281 20.0961C80.8664 19.5806 79.5577 19.0782 77.8655 18.6684C76.7022 18.3908 75.7504 18.6949 74.5738 19.0518C73.0536 19.5277 71.1499 20.1226 68.0697 19.5409C67.6467 19.4616 67.0782 19.3691 66.404 19.2501C65.8224 19.1708 65.1878 19.065 64.5004 18.946ZM64.8705 19.8185C67.8582 20.2019 70.7533 20.4134 72.2207 20.3341C73.6749 20.2548 74.7853 21.0612 75.909 21.8808C76.9005 22.5947 77.892 23.3218 79.0421 23.2424C79.5709 23.2028 81.1176 23.2821 82.8362 23.4275C82.6643 23.5862 82.4925 23.7316 82.3074 23.877C80.9061 23.7712 79.7163 23.7051 79.2801 23.7448C77.7466 23.8506 76.5965 23.0177 75.4463 22.1849C74.4813 21.4842 73.5295 20.7836 72.4455 20.8497C70.9648 20.929 68.1094 20.7307 65.1482 20.3605C65.0424 20.1755 64.9499 20.0036 64.8705 19.8185ZM65.3465 20.7307L65.4654 20.7439C70.0262 21.3256 74.6664 21.9072 76.2263 23.4011C77.7334 24.842 78.9496 24.7231 80.6153 24.5512C80.8797 24.5248 81.1573 24.4983 81.4481 24.4719C81.1044 24.6966 80.7475 24.9081 80.3773 25.0932C78.672 25.2518 77.3368 25.2254 75.6579 23.6258C74.3491 22.3699 69.9866 21.8015 65.6769 21.2595C65.558 21.0876 65.4522 20.9158 65.3465 20.7307ZM66.1396 21.9072C66.2983 22.1055 66.4569 22.3038 66.6288 22.5021C67.7128 22.7137 68.4928 22.8723 68.7307 22.9384C71.0706 23.5465 71.0177 24.5115 70.8326 25.503C71.0706 25.5956 71.3086 25.6881 71.5465 25.7674C71.7977 24.5115 71.9695 23.2689 68.8497 22.4625C68.5456 22.3964 67.5145 22.1849 66.1396 21.9072ZM73.503 26.2565C74.6003 26.4152 75.7372 26.4284 76.8741 26.2565C75.3802 25.9657 74.2169 25.7674 73.503 26.2565ZM83.7483 22.4757C83.5368 22.4625 83.2989 22.4228 83.0345 22.3832C82.7304 22.3964 82.4528 22.436 82.3074 22.4625C82.2016 22.4889 82.1223 22.5154 82.0562 22.5286C81.9637 22.555 81.8843 22.5682 81.8182 22.5815C79.9014 23.0441 79.5709 22.8723 78.5926 22.3832C78.2886 22.2245 77.892 22.0262 77.3235 21.8147C77.0724 21.7222 76.8608 21.6429 76.689 21.5635C76.4907 21.4842 76.3321 21.4181 76.1999 21.3652C75.5257 21.0744 75.3141 20.8497 75.4331 20.6646C75.6314 20.387 77.3632 20.7571 79.3065 21.1537C80.5756 21.4181 81.9372 21.709 82.9023 21.8544C82.9948 21.8544 83.1006 21.8544 83.1931 21.8544C83.5368 21.8544 83.8805 21.894 84.1185 21.9733C84.0259 22.1584 83.8937 22.3171 83.7483 22.4757ZM85.3083 20.1622C85.3876 20.0168 85.4537 19.8714 85.5198 19.726C83.4972 18.9989 81.5142 18.2454 79.518 17.4786L78.7381 17.1746L73.9128 15.879C75.724 16.54 77.5086 17.2275 79.2801 17.9017C81.2895 18.6684 83.2724 19.4352 85.3083 20.1622ZM81.4613 22.1055C79.8882 22.4889 79.6502 22.3699 78.9363 22.013C78.6059 21.8412 78.1828 21.6296 77.5615 21.4049C77.3368 21.3124 77.1252 21.233 76.9402 21.1669L76.9005 21.1537C77.4822 21.2859 78.3282 21.4842 79.2404 21.6693C79.9939 21.8147 80.7607 21.9733 81.4613 22.1055ZM76.1866 20.9819C76.1338 20.9951 76.1073 21.0083 76.1338 20.9819C76.1338 20.9686 76.147 20.9819 76.1866 20.9819Z" fill="#9E6338"/>
<path d="M78.8139 16.4632C79.62 14.4498 78.6413 12.1641 76.6279 11.358C74.6144 10.5519 72.3287 11.5306 71.5226 13.5441C70.7165 15.5575 71.6953 17.8432 73.7087 18.6493C75.7221 19.4554 78.0078 18.4767 78.8139 16.4632Z" fill="#666666"/>
<path d="M77.1201 17.1129C78.2873 16.0336 78.3586 14.2125 77.2793 13.0453C76.2 11.8781 74.3788 11.8068 73.2116 12.8861C72.0444 13.9654 71.9731 15.7865 73.0524 16.9538C74.1317 18.121 75.9529 18.1922 77.1201 17.1129Z" fill="#4D4D4D"/>
</g>
<g clip-path="url(#clip3_146:3776)">
<path d="M74.2644 177.543C78.7002 157.324 65.9055 137.338 45.6865 132.902C25.4676 128.466 5.4809 141.261 1.04507 161.48C-3.39077 181.699 9.40398 201.685 29.6229 206.121C49.8419 210.557 69.8286 197.762 74.2644 177.543Z" fill="#666666"/>
<path d="M74.2644 177.543C78.7002 157.324 65.9055 137.338 45.6865 132.902C25.4676 128.466 5.4809 141.261 1.04507 161.48C-3.39077 181.699 9.40398 201.685 29.6229 206.121C49.8419 210.557 69.8286 197.762 74.2644 177.543Z" fill="#666666"/>
<path d="M60.5768 192.426C73.2397 179.763 73.2397 159.232 60.5768 146.569C47.914 133.906 27.3834 133.906 14.7205 146.569C2.05762 159.232 2.05762 179.763 14.7205 192.426C27.3834 205.089 47.914 205.089 60.5768 192.426Z" fill="#A66D44"/>
<path fill-rule="evenodd" clip-rule="evenodd" d="M5.68237 164.359L10.6912 165.715C15.5871 166.543 33.1369 169.518 36.6769 167.673C37.9574 166.995 37.9574 165.941 36.0744 164.397C30.7642 160.028 22.7426 155.471 14.2313 152.232C13.1768 151.818 12.0847 151.441 11.0302 151.102C10.7665 151.479 10.5029 151.893 10.2393 152.308C11.3691 152.684 12.4613 153.061 13.5534 153.475C21.7634 156.563 29.4838 160.969 34.6056 165.15C35.4341 165.828 35.5848 166.242 35.2082 166.43C32.1953 168.012 14.4573 164.924 10.3899 164.246C9.97567 164.171 9.71204 164.133 9.59906 164.095C8.31861 163.907 7.11347 163.606 5.90834 163.229C5.79535 163.606 5.72003 163.982 5.68237 164.359ZM24.9269 139.691L24.8139 139.767L25.2658 139.842C27.2242 140.181 30.9902 138.9 35.5848 137.356L36.225 137.13C32.4213 137.281 28.6176 138.11 24.9269 139.691ZM23.6841 140.256C30.1617 141.65 35.6601 141.989 37.8444 139.88C38.8989 138.863 39.8781 137.997 40.8572 137.243C41.7611 137.319 42.6649 137.469 43.5688 137.62C42.2507 138.448 41.0079 139.503 39.6521 140.859C36.7523 143.683 29.7097 143.081 21.8011 141.235C22.4413 140.896 23.0438 140.557 23.6841 140.256ZM19.0142 142.968C25.1152 145.077 30.237 146.809 31.3291 147.11C38.3717 149.069 39.3508 146.169 40.33 143.269C41.1209 140.934 41.9117 138.599 45.1882 137.959C46.3933 138.26 47.5985 138.599 48.7659 139.013C48.0504 139.089 47.3348 139.164 46.5816 139.277C43.8324 139.654 43.1169 141.763 42.4013 143.872C41.1962 147.412 39.9911 150.914 30.9902 148.429C29.7851 148.09 24.2113 146.207 17.7337 143.947C18.1103 143.646 18.5623 143.307 19.0142 142.968ZM16.6039 144.888C18.035 145.491 19.5038 146.094 20.9725 146.734C32.5719 151.592 44.3973 156.563 49.4815 155.32C56.524 153.588 59.8381 155.998 64.3574 159.237C65.7885 160.292 67.4079 161.421 69.2909 162.514C69.4415 163.116 69.5545 163.756 69.6298 164.359C66.9559 162.965 64.847 161.459 62.9639 160.103C59.0849 157.316 56.2227 155.283 50.4607 156.676C44.4726 158.145 32.1953 152.985 20.1063 147.901C18.5246 147.223 16.9052 146.545 15.3611 145.905C15.813 145.566 16.1896 145.227 16.6039 144.888ZM14.6456 146.696C23.9854 150.425 33.3628 154.906 37.5055 157.618C40.0664 159.275 43.4182 158.936 46.8076 158.597C50.8373 158.183 54.8669 157.768 58.4823 160.216C59.8758 161.158 64.7716 163.606 69.8935 165.941C69.9688 166.468 70.0064 166.995 70.0441 167.56C64.4327 165.037 58.7836 162.212 57.2395 161.158C54.528 159.35 51.0632 159.689 47.5985 160.066C43.6818 160.48 39.8028 160.894 36.3003 158.597C32.233 155.961 22.9309 151.517 13.6287 147.826C13.93 147.412 14.269 147.073 14.6456 146.696ZM12.8379 148.654C15.813 149.709 18.6376 150.763 20.9725 151.63C22.7802 152.308 24.3243 152.872 25.4541 153.287C34.5679 156.488 38.6353 160.894 41.9117 164.434C44.0207 166.731 45.7531 168.615 48.201 169.33C52.7956 170.686 56.5993 171.288 60.5913 171.966C63.4535 172.418 66.4287 172.908 69.7805 173.661C69.7052 174.113 69.6675 174.565 69.5545 175.017C66.2404 174.264 63.3405 173.812 60.516 173.322C56.411 172.644 52.4943 172.004 47.7114 170.611C44.4727 169.669 42.5143 167.522 40.1417 164.961C37.0535 161.61 33.2122 157.467 24.8139 154.492C23.6464 154.078 22.1023 153.513 20.2946 152.835C17.8844 151.931 14.9468 150.839 11.8963 149.747C12.2353 149.408 12.5366 149.031 12.8379 148.654ZM9.90034 152.759C11.1431 153.098 12.3483 153.437 13.5534 153.814C18.7506 155.509 23.4581 157.957 26.9229 161.534C27.8644 162.514 27.7137 163.116 26.7346 163.493C24.6256 164.284 15.0975 162.212 6.62388 160.103C6.77453 159.651 6.88751 159.237 7.03815 158.823C15.0598 160.856 23.7971 162.815 25.4541 162.212C25.5294 162.175 25.3035 162.25 25.2282 162.175C22.1023 158.898 17.809 156.676 13.0262 155.132C11.7834 154.718 10.5029 154.341 9.1848 154.04C9.44842 153.588 9.67438 153.174 9.90034 152.759ZM68.6507 179.046C68.8013 178.595 68.9143 178.143 69.0273 177.691C62.738 176.523 56.524 175.544 50.2347 174.565C44.8869 173.736 39.5391 172.87 34.116 171.929L47.8621 175.619L50.197 175.996C56.3734 176.975 62.4743 177.917 68.6507 179.046ZM66.6923 155.057C66.2781 154.266 65.8638 153.475 65.4119 152.722C62.5497 151.291 59.6875 150.312 57.2019 149.445C52.0424 147.675 48.4647 146.433 50.0087 142.252C50.197 141.763 51.4022 141.311 53.1346 141.009C52.419 140.633 51.6658 140.256 50.9502 139.917C49.3685 140.332 48.2764 140.934 48.0127 141.612C46.0167 147.035 50.3477 148.541 56.637 150.726C59.6875 151.78 63.2652 153.023 66.6923 155.057ZM68.9896 170.309C68.387 169.895 67.2949 169.405 65.8638 168.84C65.1482 168.389 64.508 167.899 64.2067 167.598C63.9808 167.372 63.8301 167.221 63.6795 167.07C63.4912 166.882 63.3029 166.731 63.1899 166.581C59.1226 162.702 58.0681 162.627 54.9423 162.476C53.9631 162.401 52.7203 162.363 50.9879 162.062C50.2347 161.949 49.5945 161.836 49.0672 161.76C48.4647 161.685 47.9751 161.61 47.5985 161.572C45.5271 161.346 44.661 161.572 44.6986 162.212C44.7739 163.191 49.5945 164.735 54.9799 166.506C58.4823 167.673 62.286 168.878 64.847 169.895C65.0729 170.046 65.3365 170.196 65.5625 170.347C66.5793 170.949 67.6715 171.401 68.4247 171.439C68.9896 171.477 69.4039 171.175 69.3286 170.799C69.3662 170.648 69.2156 170.46 68.9896 170.309ZM61.6082 167.334C58.2564 164.171 57.5032 164.133 55.2435 163.982C54.189 163.907 52.8709 163.832 50.9879 163.53C50.31 163.417 49.6698 163.342 49.1049 163.229H48.9919C50.6113 163.719 52.9839 164.472 55.4695 165.3C57.5408 165.978 59.6498 166.656 61.6082 167.334ZM46.9582 162.589C46.8453 162.476 46.8076 162.401 46.8076 162.514C46.8076 162.514 46.8829 162.551 46.9582 162.589Z" fill="#9E6338"/>
<path fill-rule="evenodd" clip-rule="evenodd" d="M5.68239 164.359L10.6912 165.715C15.3235 167.41 32.0447 173.623 34.1914 177.013C34.9446 178.218 34.455 179.122 32.0447 179.536C25.2658 180.666 16.039 180.591 7.03817 179.122L6.77455 179.084C6.6239 178.595 6.47326 178.105 6.36028 177.615C6.6239 177.653 6.84987 177.691 7.11349 177.728C15.7754 179.16 24.6633 179.197 31.1785 178.105C32.233 177.917 32.572 177.653 32.346 177.314C30.5383 174.414 13.6287 168.238 9.74972 166.807C9.37312 166.656 9.10949 166.581 8.99651 166.506C7.8667 166.054 6.73689 165.715 5.60707 165.451C5.56941 165.112 5.60707 164.736 5.68239 164.359ZM5.26813 168.803C5.26813 169.255 5.26813 169.744 5.26813 170.196C12.8755 172.381 20.7089 174.866 21.7634 176.147C21.8387 176.222 21.6504 176.034 21.5751 176.071C17.2065 177.314 12.386 177.051 7.45243 176.034C6.92519 175.921 6.39794 175.808 5.87069 175.695C5.98368 176.184 6.09666 176.674 6.20964 177.201C6.54858 177.277 6.92519 177.352 7.26413 177.427C12.6119 178.557 17.8844 178.783 22.7049 177.427C23.9854 177.051 24.2113 176.448 23.5334 175.657C22.14 174 13.4028 171.176 5.26813 168.803ZM7.26413 180.741C7.45243 181.231 7.64074 181.758 7.8667 182.248C9.56142 182.549 11.1432 182.813 12.5743 183.039C14.4949 183.378 16.1143 183.641 17.2818 183.867C26.7722 185.637 32.5343 183.867 37.1289 182.436C40.104 181.495 42.552 180.741 45.0376 181.344C49.6698 182.474 53.3229 183.829 57.0889 185.261C59.3862 186.127 61.7211 187.031 64.395 187.897C64.6587 187.52 64.9223 187.106 65.1859 186.692C62.4743 185.825 60.1017 184.922 57.7668 184.018C53.8878 182.549 50.1594 181.118 45.3388 179.95C42.0247 179.16 39.3132 180.026 35.9614 181.043C31.6304 182.398 26.2073 184.093 17.4325 182.436C16.2273 182.21 14.6079 181.946 12.6872 181.608C11.0302 181.382 9.22247 181.08 7.26413 180.741ZM8.31862 183.227C16.8299 184.319 25.0775 184.922 29.2578 184.696C33.4005 184.47 36.564 186.767 39.7651 189.102C42.5896 191.136 45.4142 193.207 48.6906 192.981C50.197 192.868 54.6033 193.094 59.4992 193.508C59.0096 193.96 58.52 194.374 57.9928 194.789C54.0008 194.487 50.6113 194.299 49.3685 194.412C44.9999 194.713 41.7234 192.341 38.447 189.968C35.6978 187.972 32.9862 185.976 29.8981 186.164C25.6801 186.39 17.5454 185.825 9.10949 184.771C8.80821 184.244 8.54459 183.754 8.31862 183.227ZM9.6744 185.825L10.0133 185.863C23.0062 187.52 36.225 189.177 40.669 193.433C44.9622 197.538 48.427 197.199 53.1722 196.709C53.9254 196.634 54.7163 196.559 55.5448 196.483C54.5657 197.124 53.5488 197.726 52.4943 198.253C47.6361 198.705 43.8324 198.63 39.0496 194.073C35.3212 190.495 22.8932 188.876 10.6159 187.332C10.277 186.842 9.97568 186.353 9.6744 185.825ZM11.934 189.177C12.386 189.742 12.8379 190.307 13.3275 190.872C16.4156 191.475 18.6376 191.926 19.3155 192.115C25.9814 193.847 25.8307 196.596 25.3035 199.421C25.9814 199.685 26.6593 199.948 27.3372 200.174C28.0527 196.596 28.5423 193.056 19.6544 190.759C18.7882 190.571 15.8507 189.968 11.934 189.177ZM32.9109 201.568C36.0367 202.019 39.2755 202.057 42.5143 201.568C38.2587 200.739 34.9446 200.174 32.9109 201.568ZM62.0977 190.797C61.4952 190.759 60.8173 190.646 60.0641 190.533C59.1979 190.571 58.407 190.684 57.9928 190.759C57.6915 190.834 57.4655 190.91 57.2772 190.947C57.0136 191.023 56.7876 191.06 56.5993 191.098C51.1386 192.416 50.197 191.926 47.4102 190.533C46.544 190.081 45.4142 189.516 43.7948 188.914C43.0792 188.65 42.4767 188.424 41.9871 188.198C41.4222 187.972 40.9702 187.784 40.5936 187.633C38.673 186.805 38.0704 186.164 38.4093 185.637C38.9742 184.846 43.9078 185.901 49.4438 187.031C53.0592 187.784 56.9383 188.612 59.6875 189.027C59.9511 189.027 60.2524 189.027 60.516 189.027C61.4952 189.027 62.4744 189.14 63.1522 189.366C62.8886 189.893 62.512 190.345 62.0977 190.797ZM66.5417 184.206C66.7676 183.792 66.9559 183.378 67.1442 182.963C61.3822 180.892 55.7331 178.745 50.0464 176.561L47.8244 175.695L34.0784 172.004C39.2379 173.887 44.322 175.845 49.3685 177.766C55.0929 179.95 60.742 182.135 66.5417 184.206ZM55.5825 189.742C51.1009 190.834 50.423 190.495 48.3893 189.479C47.4478 188.989 46.2427 188.386 44.4727 187.746C43.8324 187.483 43.2299 187.257 42.7026 187.068L42.5896 187.031C44.2467 187.407 46.657 187.972 49.2555 188.499C51.4022 188.914 53.5865 189.366 55.5825 189.742ZM40.556 186.541C40.4053 186.579 40.33 186.616 40.4053 186.541C40.4053 186.503 40.443 186.541 40.556 186.541Z" fill="#9E6338"/>
<path d="M46.7683 173.158C48.7835 168.124 46.3367 162.41 41.3031 160.395C36.2696 158.38 30.5554 160.826 28.5401 165.86C26.5248 170.894 28.9716 176.608 34.0052 178.623C39.0388 180.638 44.753 178.192 46.7683 173.158Z" fill="#666666"/>
<path d="M42.5336 174.782C45.4517 172.084 45.6298 167.531 42.9316 164.613C40.2333 161.695 35.6805 161.517 32.7624 164.215C29.8444 166.913 29.6662 171.466 32.3645 174.384C35.0627 177.302 39.6156 177.48 42.5336 174.782Z" fill="#4D4D4D"/>
</g>
<defs>
<clipPath id="clip0_146:3776">
<rect width="29.4156" height="29.4156" fill="white" transform="translate(119.791 149.741) rotate(60)"/>
</clipPath>
<clipPath id="clip1_146:3776">
<rect width="30" height="30" fill="white" transform="translate(99.1777 312)"/>
</clipPath>
<clipPath id="clip2_146:3776">
<rect width="30" height="30" fill="white" transform="translate(60.1777)"/>
</clipPath>
<clipPath id="clip3_146:3776">
<rect width="75" height="75" fill="white" transform="translate(0.177734 132)"/>
</clipPath>
</defs>
</svg>
