<svg width="1920" height="87" viewBox="0 0 1920 87" fill="none" xmlns="http://www.w3.org/2000/svg">
<path d="M-9 -3C-9 -4.65685 -7.65685 -6 -6 -6H1917C1918.66 -6 1920 -4.65685 1920 -3V84C1920 85.6569 1918.66 87 1917 87H1572.12C1571.71 87 1571.31 86.9175 1570.93 86.7574L1568.89 85.8796C1568.32 85.6351 1567.67 85.6084 1567.09 85.8048L1566.28 86.0718C1565.55 86.3175 1564.74 85.9838 1564.39 85.2887C1563.94 84.3801 1562.75 84.1404 1561.98 84.8015L1560.71 85.8933C1560.29 86.2521 1559.68 86.2887 1559.22 85.9829C1558.79 85.6935 1558.22 85.7093 1557.8 86.0224L1557.14 86.5196C1556.72 86.8314 1556.22 87 1555.7 87H1191.83C1191.29 87 1190.75 86.8522 1190.29 86.5725L1189.21 85.9282C1188.77 85.6615 1188.22 85.6404 1187.76 85.8722L1187.65 85.9233C1187 86.2487 1186.21 86.0182 1185.84 85.3942C1185.4 84.6616 1184.41 84.4939 1183.75 85.0409L1183.09 85.5946C1182.47 86.1074 1181.57 86.0664 1181 85.5C1180.43 84.9336 1179.53 84.8926 1178.91 85.4054L1177.83 86.3047C1177.3 86.754 1176.62 87 1175.91 87H743.797C743.599 87 743.402 86.9805 743.209 86.9417L741.561 86.6122C741.195 86.539 740.859 86.3592 740.595 86.0954L740.203 85.703C739.794 85.2943 739.154 85.2308 738.673 85.5515C738.265 85.8231 737.735 85.8231 737.327 85.5515L737.162 85.441C736.747 85.1649 736.224 85.1104 735.762 85.2953L734.98 85.608C734.363 85.855 733.665 85.7991 733.095 85.4569C732.181 84.9089 731.004 85.1206 730.338 85.9523L730.21 86.113C729.761 86.6736 729.082 87 728.364 87H355.831C355.287 87 354.754 86.8522 354.287 86.5725L353.499 86.0992C352.884 85.7304 352.116 85.7304 351.501 86.0992L351.017 86.3901C350.439 86.7366 349.693 86.5905 349.289 86.0516C348.853 85.4708 348.029 85.3531 347.448 85.7887L347.264 85.927C346.796 86.2782 346.169 86.3347 345.646 86.073L345.303 85.9013C344.789 85.6443 344.194 85.6021 343.649 85.7837L340.462 86.846C340.156 86.948 339.836 87 339.513 87H-5.99999C-7.65685 87 -9 85.6569 -9 84V-3Z" fill="#604733"/>
</svg>
