<svg width="46" height="46" viewBox="0 0 46 46" fill="none" xmlns="http://www.w3.org/2000/svg">
<g filter="url(#filter0_di_903_3531)">
<path d="M43 21C43 32.0292 34.0261 41 22.993 41C11.96 41 3 32.0431 3 21C3 9.95688 11.96 1 22.993 0.999999C34.04 0.999999 43 9.97079 43 21ZM30.0609 25.4645C30.8957 24.6439 31.6609 23.879 32.3565 23.1836C29.24 20.0681 26.0817 16.911 22.993 13.8095C19.8904 16.911 16.7461 20.0681 13.6574 23.1558C14.3809 23.8929 15.1461 24.6579 15.9948 25.4924C18.3183 23.1558 20.6835 20.7914 23.0626 18.427C25.3861 20.7775 27.7374 23.128 30.0609 25.4645Z" fill="white"/>
</g>
<defs>
<filter id="filter0_di_903_3531" x="0" y="0" width="46" height="46" filterUnits="userSpaceOnUse" color-interpolation-filters="sRGB">
<feFlood flood-opacity="0" result="BackgroundImageFix"/>
<feColorMatrix in="SourceAlpha" type="matrix" values="0 0 0 0 0 0 0 0 0 0 0 0 0 0 0 0 0 0 127 0" result="hardAlpha"/>
<feOffset dy="2"/>
<feGaussianBlur stdDeviation="1.5"/>
<feComposite in2="hardAlpha" operator="out"/>
<feColorMatrix type="matrix" values="0 0 0 0 1 0 0 0 0 1 0 0 0 0 1 0 0 0 0.4 0"/>
<feBlend mode="normal" in2="BackgroundImageFix" result="effect1_dropShadow_903_3531"/>
<feBlend mode="normal" in="SourceGraphic" in2="effect1_dropShadow_903_3531" result="shape"/>
<feColorMatrix in="SourceAlpha" type="matrix" values="0 0 0 0 0 0 0 0 0 0 0 0 0 0 0 0 0 0 127 0" result="hardAlpha"/>
<feOffset dy="3"/>
<feGaussianBlur stdDeviation="1.5"/>
<feComposite in2="hardAlpha" operator="arithmetic" k2="-1" k3="1"/>
<feColorMatrix type="matrix" values="0 0 0 0 0 0 0 0 0 0 0 0 0 0 0 0 0 0 0.21 0"/>
<feBlend mode="normal" in2="shape" result="effect2_innerShadow_903_3531"/>
</filter>
</defs>
</svg>
