<svg width="52" height="52" viewBox="0 0 52 52" fill="none" xmlns="http://www.w3.org/2000/svg">
<path opacity="0.8" d="M27.5126 52C26.4955 52 25.4784 52 24.4613 52C23.7747 51.9237 23.0882 51.8474 22.4016 51.7457C17.278 51.0209 12.7392 48.9736 8.86149 45.5529C4.30996 41.5219 1.44937 36.4991 0.394127 30.4717C0.228848 29.4925 0.127138 28.5134 0 27.5215C0 26.5042 0 25.4869 0 24.4697C0.0254275 24.3043 0.0762826 24.1518 0.0889963 23.9865C0.241561 21.6467 0.737398 19.3705 1.53836 17.1706C6.07718 4.64527 19.2868 -2.41216 32.2294 0.754146C45.5915 4.02218 54.1479 17.3868 51.5289 30.8786C50.5245 36.054 48.1851 40.5301 44.4727 44.2686C40.5823 48.1852 35.9164 50.6648 30.4749 51.5931C29.4959 51.7584 28.5042 51.8601 27.5126 52ZM30.5384 37.6817C30.5384 32.5571 30.5384 27.5088 30.5384 22.486C26.7879 22.486 23.1009 22.486 19.4139 22.486C19.4139 23.5032 19.4139 24.4824 19.4139 25.4997C20.0877 25.4997 20.7361 25.4997 21.3718 25.4997C21.3718 29.5815 21.3718 33.6125 21.3718 37.6817C20.6599 37.6817 19.986 37.6817 19.3122 37.6817C19.3122 38.7117 19.3122 39.6908 19.3122 40.67C23.7112 40.67 28.0847 40.67 32.4582 40.67C32.4582 39.6527 32.4582 38.6863 32.4582 37.669C31.8353 37.6817 31.2377 37.6817 30.5384 37.6817ZM30.5512 14.9072C30.6274 12.453 28.606 10.3548 26.0759 10.2658C23.6222 10.1768 21.5244 12.1986 21.4227 14.7291C21.321 17.1961 23.3806 19.3324 25.9234 19.3959C28.3898 19.4595 30.4876 17.4249 30.5512 14.9072Z" fill="url(#paint0_linear_121:3257)"/>
<defs>
<linearGradient id="paint0_linear_121:3257" x1="26" y1="0" x2="26" y2="52" gradientUnits="userSpaceOnUse">
<stop stop-color="#503614"/>
<stop offset="1" stop-color="#503614" stop-opacity="0"/>
</linearGradient>
</defs>
</svg>
