<svg width="44" height="57" viewBox="0 0 44 57" fill="none" xmlns="http://www.w3.org/2000/svg">
<path opacity="0.8" d="M21.034 56.4846C20.5424 56.4155 20.0508 56.3326 19.5451 56.2635C12.9151 55.2686 7.78804 51.9799 4.20615 46.4112C1.64966 42.4316 0.708531 38.0374 1.01756 33.353C1.20016 30.6723 1.57942 28.0469 2.5346 25.532C3.48977 23.0447 4.85229 20.8614 7.07166 19.2447C8.19539 18.4294 9.17866 18.9407 9.40341 20.1567C9.82481 22.3952 10.6255 24.5094 12.1987 26.2505C13.0274 27.1625 14.0107 27.8258 15.2609 28.0607C15.3451 26.2781 15.4294 24.5094 15.5277 22.7545C15.8789 15.8869 18.2809 9.83454 22.9022 4.65274C24.2929 3.09129 25.8099 1.6542 27.5095 0.410565C27.9731 0.0651117 28.4366 -0.155979 29.0125 0.134202C29.5463 0.396747 29.6868 0.880382 29.6868 1.43311C29.7149 4.65274 30.7965 7.58218 32.5804 10.2215C34.3643 12.8607 36.3168 15.4033 38.1569 18.0149C40.7555 21.6905 42.708 25.6425 43.5087 30.0919C44.1829 33.8781 44.2812 37.6505 43.1154 41.3814C42.0338 44.8635 40.1796 47.8897 37.5388 50.4323C35.165 52.7123 32.4118 54.4395 29.2373 55.393C27.6921 55.8628 26.0768 56.0701 24.4895 56.4017C24.3069 56.4432 24.1243 56.4708 23.9417 56.4984C22.9725 56.4846 22.0032 56.4846 21.034 56.4846ZM16.0194 42.5006C15.303 44.4905 15.0783 46.4941 15.5699 48.5392C16.3565 51.8417 19.4749 54.2737 22.6494 54.1217C26.1891 53.9421 29.1109 51.2752 29.5603 47.8068C29.8834 45.2919 29.2513 42.9566 28.0012 40.7734C27.8045 40.4279 27.5657 40.0825 27.341 39.7508C26.147 37.9959 24.7845 36.3377 24.1102 34.1959C22.6775 35.8818 21.7504 37.6781 21.4976 39.7508C21.329 41.0774 21.3009 42.4177 21.2447 43.7581C21.1885 44.8497 20.6407 45.3195 19.5451 45.1814C18.6601 45.0708 17.8735 44.7254 17.2836 44.0897C16.8341 43.6199 16.4689 43.081 16.0194 42.5006Z" fill="url(#paint0_linear_121:3251)"/>
<defs>
<linearGradient id="paint0_linear_121:3251" x1="22.4837" y1="0" x2="22.4837" y2="56.4984" gradientUnits="userSpaceOnUse">
<stop stop-color="#503614"/>
<stop offset="1" stop-color="#503614" stop-opacity="0"/>
</linearGradient>
</defs>
</svg>
