<svg width="35" height="43" viewBox="0 0 35 43" fill="none" xmlns="http://www.w3.org/2000/svg">
<g filter="url(#filter0_di_903_3528)">
<path d="M31.9803 38C22.33 38 12.67 38 3.01973 38C3.00987 37.9034 3 37.8068 3 37.7103C3 25.5894 3 13.4685 3 1.34769C3 1.23179 3.00987 1.1159 3.01973 1C9.60122 1 16.1432 1 22.7247 1C22.7247 4.02297 22.7247 7.02662 22.7247 10.0882C25.8329 10.0882 28.9017 10.0882 32 10.0882C32 10.2524 32 10.378 32 10.4939C32 19.5435 32 28.5931 32 37.6427C32 37.7585 31.9901 37.8841 31.9803 38ZM25.6159 17.9789C20.179 17.9789 14.7816 17.9789 9.37428 17.9789C9.37428 18.6936 9.37428 19.3889 9.37428 20.1036C14.7914 20.1036 20.1987 20.1036 25.6159 20.1036C25.6159 19.3889 25.6159 18.6936 25.6159 17.9789ZM25.6159 23.6868C20.179 23.6868 14.7816 23.6868 9.37428 23.6868C9.37428 24.4015 9.37428 25.0968 9.37428 25.8115C14.7914 25.8115 20.1987 25.8115 25.6159 25.8115C25.6159 25.0968 25.6159 24.4111 25.6159 23.6868ZM17.4753 12.2613C14.7618 12.2613 12.0681 12.2613 9.37428 12.2613C9.37428 12.976 9.37428 13.6714 9.37428 14.3861C12.0779 14.3861 14.7717 14.3861 17.4753 14.3861C17.4753 13.681 17.4753 12.9856 17.4753 12.2613ZM13.5975 31.5194C16.2222 31.5194 18.8074 31.5194 21.3927 31.5194C21.3927 30.8048 21.3927 30.1094 21.3927 29.3947C18.7877 29.3947 16.2025 29.3947 13.5975 29.3947C13.5975 30.1094 13.5975 30.8048 13.5975 31.5194Z" fill="white"/>
<path d="M24.9646 1.06761C27.2834 3.37588 29.5628 5.64552 31.8125 7.87653C29.5924 7.87653 27.2933 7.87653 24.9646 7.87653C24.9646 5.62621 24.9646 3.38554 24.9646 1.06761Z" fill="white"/>
</g>
<defs>
<filter id="filter0_di_903_3528" x="0" y="0" width="35" height="43" filterUnits="userSpaceOnUse" color-interpolation-filters="sRGB">
<feFlood flood-opacity="0" result="BackgroundImageFix"/>
<feColorMatrix in="SourceAlpha" type="matrix" values="0 0 0 0 0 0 0 0 0 0 0 0 0 0 0 0 0 0 127 0" result="hardAlpha"/>
<feOffset dy="2"/>
<feGaussianBlur stdDeviation="1.5"/>
<feComposite in2="hardAlpha" operator="out"/>
<feColorMatrix type="matrix" values="0 0 0 0 1 0 0 0 0 1 0 0 0 0 1 0 0 0 0.4 0"/>
<feBlend mode="normal" in2="BackgroundImageFix" result="effect1_dropShadow_903_3528"/>
<feBlend mode="normal" in="SourceGraphic" in2="effect1_dropShadow_903_3528" result="shape"/>
<feColorMatrix in="SourceAlpha" type="matrix" values="0 0 0 0 0 0 0 0 0 0 0 0 0 0 0 0 0 0 127 0" result="hardAlpha"/>
<feOffset dy="3"/>
<feGaussianBlur stdDeviation="1.5"/>
<feComposite in2="hardAlpha" operator="arithmetic" k2="-1" k3="1"/>
<feColorMatrix type="matrix" values="0 0 0 0 0 0 0 0 0 0 0 0 0 0 0 0 0 0 0.21 0"/>
<feBlend mode="normal" in2="shape" result="effect2_innerShadow_903_3528"/>
</filter>
</defs>
</svg>
