<svg width="52" height="52" viewBox="0 0 52 52" fill="none" xmlns="http://www.w3.org/2000/svg">
<path opacity="0.8" d="M52 26C52 40.338 40.3339 52 25.991 52C11.648 52 -5.08973e-07 40.3561 -1.1365e-06 26C-1.76402e-06 11.644 11.648 -5.0915e-07 25.991 -1.1361e-06C40.352 -1.76384e-06 52 11.662 52 26ZM35.1791 31.8039C36.2643 30.7371 37.2591 29.7427 38.1635 28.8387C34.112 24.7886 30.0063 20.6843 25.991 16.6523C21.9576 20.6843 17.8699 24.7886 13.8546 28.8025C14.7951 29.7608 15.7899 30.7552 16.8932 31.8401C19.9137 28.8025 22.9885 25.7288 26.0814 22.6551C29.1019 25.7107 32.1586 28.7663 35.1791 31.8039Z" fill="url(#paint0_linear_121:3263)"/>
<defs>
<linearGradient id="paint0_linear_121:3263" x1="22" y1="-3.09944e-06" x2="22" y2="52" gradientUnits="userSpaceOnUse">
<stop stop-color="#503614"/>
<stop offset="1" stop-color="#503614" stop-opacity="0"/>
</linearGradient>
</defs>
</svg>
