<svg width="43" height="56" viewBox="0 0 43 56" fill="none" xmlns="http://www.w3.org/2000/svg">
<g opacity="0.8">
<path d="M42.9707 56C28.6618 56 14.3382 56 0.0292617 56C0.0146308 55.8538 0 55.7076 0 55.5615C0 37.2164 0 18.8713 0 0.526233C0 0.350822 0.0146308 0.175411 0.0292617 0C9.78802 0 19.4883 0 29.247 0C29.247 4.57531 29.247 9.12138 29.247 13.7552C33.8557 13.7552 38.4059 13.7552 43 13.7552C43 14.0037 43 14.1937 43 14.3691C43 28.0658 43 41.7625 43 55.4591C43 55.6346 42.9854 55.8246 42.9707 56ZM33.5339 25.6977C25.4723 25.6977 17.4692 25.6977 9.45151 25.6977C9.45151 26.7794 9.45151 27.8319 9.45151 28.9136C17.4838 28.9136 25.5015 28.9136 33.5339 28.9136C33.5339 27.8319 33.5339 26.7794 33.5339 25.6977ZM33.5339 34.3367C25.4723 34.3367 17.4692 34.3367 9.45151 34.3367C9.45151 35.4184 9.45151 36.4709 9.45151 37.5526C17.4838 37.5526 25.5015 37.5526 33.5339 37.5526C33.5339 36.4709 33.5339 35.433 33.5339 34.3367ZM21.4634 17.0441C17.4399 17.0441 13.4457 17.0441 9.45151 17.0441C9.45151 18.1258 9.45151 19.1783 9.45151 20.26C13.4604 20.26 17.4546 20.26 21.4634 20.26C21.4634 19.1929 21.4634 18.1404 21.4634 17.0441ZM15.7135 46.1916C19.6053 46.1916 23.4386 46.1916 27.2719 46.1916C27.2719 45.1099 27.2719 44.0574 27.2719 42.9757C23.4093 42.9757 19.576 42.9757 15.7135 42.9757C15.7135 44.0574 15.7135 45.1099 15.7135 46.1916Z" fill="url(#paint0_linear_121:3260)"/>
<path d="M32.5682 0.102323C36.0065 3.59593 39.3862 7.03106 42.722 10.4077C39.4301 10.4077 36.0211 10.4077 32.5682 10.4077C32.5682 7.00183 32.5682 3.61055 32.5682 0.102323Z" fill="url(#paint1_linear_121:3260)"/>
</g>
<defs>
<linearGradient id="paint0_linear_121:3260" x1="21.5" y1="0" x2="21.5" y2="56" gradientUnits="userSpaceOnUse">
<stop stop-color="#503614"/>
<stop offset="1" stop-color="#503614" stop-opacity="0"/>
</linearGradient>
<linearGradient id="paint1_linear_121:3260" x1="21.5" y1="0" x2="21.5" y2="56" gradientUnits="userSpaceOnUse">
<stop stop-color="#503614"/>
<stop offset="1" stop-color="#503614" stop-opacity="0"/>
</linearGradient>
</defs>
</svg>
