<svg width="46" height="46" viewBox="0 0 46 46" fill="none" xmlns="http://www.w3.org/2000/svg">
<g filter="url(#filter0_di_903_3525)">
<path d="M24.1635 41C23.3811 41 22.5987 41 21.8164 41C21.2883 40.9413 20.7601 40.8826 20.232 40.8044C16.2908 40.2468 12.7994 38.672 9.81653 36.0407C6.31536 32.94 4.1149 29.0762 3.30317 24.4397C3.17604 23.6866 3.0978 22.9334 3 22.1704C3 21.3879 3 20.6053 3 19.8228C3.01956 19.6957 3.05868 19.5783 3.06846 19.4511C3.18582 17.6513 3.56723 15.9004 4.18336 14.2082C7.67475 4.57328 17.836 -0.855509 27.7918 1.58011C38.0704 4.09399 44.6522 14.3745 42.6376 24.7527C41.865 28.7339 40.0655 32.177 37.2098 35.0528C34.2172 38.0655 30.628 39.9729 26.4422 40.687C25.6892 40.8142 24.9263 40.8924 24.1635 41ZM26.4911 29.9859C26.4911 26.0439 26.4911 22.1606 26.4911 18.2969C23.6061 18.2969 20.7699 18.2969 17.9338 18.2969C17.9338 19.0794 17.9338 19.8326 17.9338 20.6151C18.4521 20.6151 18.9509 20.6151 19.4399 20.6151C19.4399 23.755 19.4399 26.8558 19.4399 29.9859C18.8922 29.9859 18.3739 29.9859 17.8555 29.9859C17.8555 30.7782 17.8555 31.5314 17.8555 32.2846C21.2394 32.2846 24.6036 32.2846 27.9679 32.2846C27.9679 31.5021 27.9679 30.7587 27.9679 29.9761C27.4887 29.9859 27.029 29.9859 26.4911 29.9859ZM26.5009 12.467C26.5596 10.5792 25.0046 8.96523 23.0584 8.89676C21.1709 8.82828 19.5572 10.3836 19.479 12.3301C19.4007 14.2277 20.9851 15.871 22.941 15.92C24.8383 15.9689 26.452 14.4038 26.5009 12.467Z" fill="white"/>
</g>
<defs>
<filter id="filter0_di_903_3525" x="0" y="0" width="46" height="46" filterUnits="userSpaceOnUse" color-interpolation-filters="sRGB">
<feFlood flood-opacity="0" result="BackgroundImageFix"/>
<feColorMatrix in="SourceAlpha" type="matrix" values="0 0 0 0 0 0 0 0 0 0 0 0 0 0 0 0 0 0 127 0" result="hardAlpha"/>
<feOffset dy="2"/>
<feGaussianBlur stdDeviation="1.5"/>
<feComposite in2="hardAlpha" operator="out"/>
<feColorMatrix type="matrix" values="0 0 0 0 1 0 0 0 0 1 0 0 0 0 1 0 0 0 0.4 0"/>
<feBlend mode="normal" in2="BackgroundImageFix" result="effect1_dropShadow_903_3525"/>
<feBlend mode="normal" in="SourceGraphic" in2="effect1_dropShadow_903_3525" result="shape"/>
<feColorMatrix in="SourceAlpha" type="matrix" values="0 0 0 0 0 0 0 0 0 0 0 0 0 0 0 0 0 0 127 0" result="hardAlpha"/>
<feOffset dy="3"/>
<feGaussianBlur stdDeviation="1.5"/>
<feComposite in2="hardAlpha" operator="arithmetic" k2="-1" k3="1"/>
<feColorMatrix type="matrix" values="0 0 0 0 0 0 0 0 0 0 0 0 0 0 0 0 0 0 0.21 0"/>
<feBlend mode="normal" in2="shape" result="effect2_innerShadow_903_3525"/>
</filter>
</defs>
</svg>
