<svg width="50" height="54" viewBox="0 0 50 54" fill="none" xmlns="http://www.w3.org/2000/svg">
<g opacity="0.8" filter="url(#filter0_di_915_22742)">
<path d="M21.5582 44.8594C22.3563 45.4836 23.2915 45.7717 24.2517 45.9998C24.7506 45.9998 25.2494 45.9998 25.7482 45.9998C25.8479 45.9637 25.9477 45.9277 26.0475 45.9037C27.7434 45.5556 29.0278 44.6673 29.8883 43.2268C30.3621 42.4225 30.6115 41.5702 30.5866 40.6339C26.8331 40.6339 23.1419 40.6339 19.4009 40.6339C19.5006 42.3625 20.174 43.779 21.5582 44.8594Z" fill="#503614"/>
<path d="M23.6407 8.2467C16.7697 8.85891 12.5548 14.837 12.4051 19.8067C12.3178 22.7117 13.2032 25.3045 14.9615 27.6574C16.7697 30.0822 18.079 32.7471 18.7898 35.6761C18.9644 36.3843 19.0891 37.1046 19.2263 37.8128C23.0796 37.8128 26.9079 37.8128 30.7363 37.8128C30.9358 36.8765 31.0854 35.9762 31.3099 35.0999C32.0207 32.3149 33.3425 29.8181 35.1133 27.5133C37.1085 24.9204 37.9565 21.9914 37.4702 18.7983C36.5723 12.8203 31.4471 7.53846 23.6407 8.2467ZM28.6787 21.3672C28.0053 22.0274 27.307 22.6756 26.646 23.3479C26.5089 23.4799 26.4216 23.708 26.4216 23.8881C26.4091 25.3286 26.4091 26.757 26.4091 28.1975C26.4091 29.1099 25.848 29.7221 25.0249 29.7341C24.177 29.7461 23.6158 29.1219 23.6158 28.1735C23.6158 26.7931 23.6033 25.4126 23.6283 24.0441C23.6283 23.708 23.5534 23.4559 23.2791 23.2158C22.6182 22.6156 21.9697 21.9794 21.3338 21.3432C20.6978 20.719 20.6479 19.9027 21.234 19.3505C21.8076 18.7863 22.6681 18.8223 23.304 19.4345C23.8652 19.9747 24.4139 20.5269 25.0249 21.1271C25.636 20.5269 26.1722 19.9867 26.7209 19.4585C27.3693 18.8343 28.2048 18.7863 28.7909 19.3385C29.377 19.8907 29.3396 20.719 28.6787 21.3672Z" fill="#503614"/>
<path d="M25.0125 5.47382C25.7732 5.47382 26.3842 4.88562 26.3967 4.12936C26.4091 3.6612 26.3967 3.20504 26.3967 2.73688C26.3967 2.25671 26.4091 1.77655 26.3967 1.30839C26.3717 0.576138 25.7607 0.0119441 25.0125 -5.99682e-05C24.2518 -0.0120641 23.6158 0.564134 23.6033 1.32039C23.5784 2.25671 23.5909 3.20504 23.6033 4.14136C23.6158 4.90962 24.2518 5.48582 25.0125 5.47382Z" fill="#503614"/>
<path d="M8.15275 21.6554C8.98825 21.6434 9.59929 21.0672 9.59929 20.3229C9.59929 19.5667 9.00072 18.9785 8.17769 18.9665C7.26737 18.9545 6.34458 18.9545 5.43425 18.9665C4.61122 18.9665 3.98771 19.5667 4.00018 20.3229C4.01265 21.0552 4.61122 21.6314 5.40931 21.6554C5.87071 21.6674 6.34458 21.6554 6.80597 21.6554C7.2549 21.6554 7.70383 21.6554 8.15275 21.6554Z" fill="#503614"/>
<path d="M44.6281 18.9665C43.6804 18.9425 42.7326 18.9545 41.7849 18.9665C40.9993 18.9785 40.4007 19.5787 40.4007 20.311C40.4007 21.0432 41.0117 21.6314 41.7974 21.6554C42.2588 21.6674 42.7326 21.6554 43.194 21.6554C43.6804 21.6554 44.1542 21.6674 44.6406 21.6554C45.4012 21.6314 45.9873 21.0432 45.9998 20.335C46.0123 19.5907 45.4137 18.9785 44.6281 18.9665Z" fill="#503614"/>
<path d="M15.4602 7.05837C15.7845 7.56255 16.4329 7.75461 17.019 7.57455C17.6051 7.39449 17.9917 6.87831 17.9917 6.19408C17.9667 6.12205 17.9667 5.92999 17.8794 5.77393C17.3682 4.88563 16.8569 3.99732 16.2833 3.14503C15.8967 2.56883 15.0612 2.4608 14.4501 2.82092C13.8516 3.18104 13.6022 3.9253 13.9389 4.54951C14.4252 5.40181 14.9365 6.24209 15.4602 7.05837Z" fill="#503614"/>
<path d="M42.7575 28.6418C41.9096 28.1256 41.0367 27.6214 40.1388 27.1893C39.216 26.7451 38.1685 27.3934 38.156 28.3777C38.1436 28.8339 38.3556 29.266 38.7795 29.5181C39.6275 30.0103 40.488 30.5024 41.3609 30.9466C42.0218 31.2827 42.8199 31.0306 43.1815 30.4304C43.5556 29.8062 43.406 29.0259 42.7575 28.6418Z" fill="#503614"/>
<path d="M32.7066 7.46654C33.4049 7.85067 34.2154 7.62259 34.6519 6.90234C35.1008 6.1821 35.5373 5.46185 35.9488 4.7296C36.086 4.50152 36.1483 4.23743 36.2481 3.98534C36.1982 3.38514 35.7992 2.85696 35.2131 2.6889C34.5896 2.49683 33.9536 2.71291 33.6044 3.2771C33.1305 4.03336 32.6816 4.78962 32.2327 5.55788C31.8087 6.27813 32.0082 7.08241 32.7066 7.46654Z" fill="#503614"/>
<path d="M9.91099 27.1653C8.97573 27.6335 8.06541 28.1496 7.18002 28.6898C6.65628 29.0019 6.50663 29.6501 6.71863 30.2143C6.90568 30.7305 7.46684 31.1026 8.14023 31.0906C8.21505 31.0666 8.4021 31.0666 8.55174 30.9946C9.48701 30.4904 10.4223 29.9983 11.3201 29.4461C11.8938 29.086 12.006 28.2937 11.6568 27.7175C11.2952 27.1293 10.5345 26.8532 9.91099 27.1653Z" fill="#503614"/>
<path d="M7.24248 11.9801C8.09045 12.4963 8.96336 12.9884 9.86121 13.4326C10.784 13.8767 11.8315 13.2165 11.8315 12.2322C11.8315 11.788 11.6444 11.3679 11.2329 11.1278C10.3725 10.6236 9.51205 10.1314 8.6142 9.67528C7.95328 9.33917 7.16766 9.59126 6.79355 10.2035C6.44439 10.8037 6.6065 11.5959 7.24248 11.9801Z" fill="#503614"/>
<path d="M39.615 13.5646C39.6898 13.5526 39.8769 13.5526 40.014 13.4806C40.9742 12.9644 41.9469 12.4722 42.8697 11.884C43.4558 11.5119 43.5306 10.7196 43.1565 10.1554C42.7824 9.59122 42.0217 9.33913 41.3982 9.65124C40.5004 10.1074 39.615 10.6116 38.7421 11.1277C38.2183 11.4399 38.0313 12.0761 38.2183 12.6283C38.4054 13.1805 38.9291 13.5526 39.615 13.5646Z" fill="#503614"/>
</g>
<defs>
<filter id="filter0_di_915_22742" x="0" y="-0.000244141" width="50" height="54" filterUnits="userSpaceOnUse" color-interpolation-filters="sRGB">
<feFlood flood-opacity="0" result="BackgroundImageFix"/>
<feColorMatrix in="SourceAlpha" type="matrix" values="0 0 0 0 0 0 0 0 0 0 0 0 0 0 0 0 0 0 127 0" result="hardAlpha"/>
<feOffset dy="4"/>
<feGaussianBlur stdDeviation="2"/>
<feComposite in2="hardAlpha" operator="out"/>
<feColorMatrix type="matrix" values="0 0 0 0 1 0 0 0 0 1 0 0 0 0 1 0 0 0 0.55 0"/>
<feBlend mode="normal" in2="BackgroundImageFix" result="effect1_dropShadow_915_22742"/>
<feBlend mode="normal" in="SourceGraphic" in2="effect1_dropShadow_915_22742" result="shape"/>
<feColorMatrix in="SourceAlpha" type="matrix" values="0 0 0 0 0 0 0 0 0 0 0 0 0 0 0 0 0 0 127 0" result="hardAlpha"/>
<feOffset dy="4"/>
<feGaussianBlur stdDeviation="2"/>
<feComposite in2="hardAlpha" operator="arithmetic" k2="-1" k3="1"/>
<feColorMatrix type="matrix" values="0 0 0 0 0 0 0 0 0 0 0 0 0 0 0 0 0 0 0.65 0"/>
<feBlend mode="normal" in2="shape" result="effect2_innerShadow_915_22742"/>
</filter>
</defs>
</svg>
