<svg width="27" height="28" viewBox="0 0 27 28" fill="none" xmlns="http://www.w3.org/2000/svg">
<g opacity="0.8" filter="url(#filter0_di_470_78)">
<path d="M12.8224 1C13.2747 1 13.7202 1 14.1725 1C14.2333 1.01348 14.2873 1.03369 14.3481 1.03369C16.1438 1.16173 17.8315 1.67389 19.3639 2.61735C22.341 4.4436 24.1772 7.07852 24.8186 10.5221C24.8996 10.9534 24.9401 11.3914 25.0008 11.8295C25.0008 12.281 25.0008 12.7258 25.0008 13.1773C24.9873 13.2447 24.9671 13.3053 24.9603 13.3727C24.8321 15.1653 24.319 16.8365 23.3806 18.3662C21.5579 21.3449 18.9251 23.1778 15.4822 23.8248C15.0501 23.9057 14.6113 23.9461 14.1725 24.0067C13.7202 24.0067 13.2747 24.0067 12.8224 24.0067C12.7481 23.9933 12.6806 23.9798 12.6064 23.9663C12.1203 23.8989 11.6207 23.8652 11.1414 23.7574C8.17107 23.1105 5.79479 21.5403 4.05308 19.0469C2.43963 16.7287 1.7848 14.1477 2.06159 11.351C2.29786 8.91825 3.23623 6.77527 4.85642 4.94228C6.63864 2.9206 8.85965 1.66042 11.5195 1.18195C11.9515 1.10108 12.3903 1.06065 12.8224 1ZM10.0545 18.2315C12.3633 18.2315 14.6586 18.2315 16.9404 18.2315C16.9404 17.4632 16.9404 16.7219 16.9404 15.947C16.1775 15.947 15.4214 15.947 14.6518 15.947C14.6518 15.8324 14.6518 15.7448 14.6518 15.6572C14.6518 14.2555 14.6586 12.8605 14.6518 11.4588C14.6518 10.6704 14.1793 10.2054 13.3894 10.2054C12.8831 10.2054 12.3701 10.2054 11.8638 10.2054C11.6477 10.2054 11.4317 10.2054 11.2157 10.2054C11.2157 10.9871 11.2157 11.7351 11.2157 12.5034C11.5937 12.5034 11.9583 12.5034 12.3228 12.5034C12.3228 13.6625 12.3228 14.8013 12.3228 15.9672C11.5532 15.9672 10.8039 15.9672 10.0478 15.9672C10.0545 16.7354 10.0545 17.4767 10.0545 18.2315ZM13.4907 6.47202C12.7009 6.47876 12.0663 7.11896 12.0663 7.90067C12.0663 8.68913 12.7346 9.34955 13.511 9.33607C14.3008 9.32259 14.9354 8.68239 14.9354 7.90067C14.9354 7.11222 14.2806 6.46528 13.4907 6.47202Z" fill="#268326"/>
</g>
<defs>
<filter id="filter0_di_470_78" x="0" y="0" width="27.0009" height="27.0068" filterUnits="userSpaceOnUse" color-interpolation-filters="sRGB">
<feFlood flood-opacity="0" result="BackgroundImageFix"/>
<feColorMatrix in="SourceAlpha" type="matrix" values="0 0 0 0 0 0 0 0 0 0 0 0 0 0 0 0 0 0 127 0" result="hardAlpha"/>
<feOffset dy="1"/>
<feGaussianBlur stdDeviation="1"/>
<feComposite in2="hardAlpha" operator="out"/>
<feColorMatrix type="matrix" values="0 0 0 0 1 0 0 0 0 1 0 0 0 0 1 0 0 0 0.55 0"/>
<feBlend mode="normal" in2="BackgroundImageFix" result="effect1_dropShadow_470_78"/>
<feBlend mode="normal" in="SourceGraphic" in2="effect1_dropShadow_470_78" result="shape"/>
<feColorMatrix in="SourceAlpha" type="matrix" values="0 0 0 0 0 0 0 0 0 0 0 0 0 0 0 0 0 0 127 0" result="hardAlpha"/>
<feOffset dy="2"/>
<feGaussianBlur stdDeviation="1.5"/>
<feComposite in2="hardAlpha" operator="arithmetic" k2="-1" k3="1"/>
<feColorMatrix type="matrix" values="0 0 0 0 0 0 0 0 0 0 0 0 0 0 0 0 0 0 0.65 0"/>
<feBlend mode="normal" in2="shape" result="effect2_innerShadow_470_78"/>
</filter>
</defs>
</svg>
