<svg width="37" height="45" viewBox="0 0 37 45" fill="none" xmlns="http://www.w3.org/2000/svg">
<g opacity="0.8" filter="url(#filter0_di_915_22752)">
<path d="M32.9803 37C23.33 37 13.67 37 4.01973 37C4.00987 36.9034 4 36.8068 4 36.7103C4 24.5894 4 12.4685 4 0.34769C4 0.231793 4.00987 0.115897 4.01973 0C10.6012 0 17.1432 0 23.7247 0C23.7247 3.02297 23.7247 6.02662 23.7247 9.08823C26.8329 9.08823 29.9017 9.08823 33 9.08823C33 9.25241 33 9.37797 33 9.49387C33 18.5435 33 27.5931 33 36.6427C33 36.7585 32.9901 36.8841 32.9803 37ZM26.6159 16.9789C21.179 16.9789 15.7816 16.9789 10.3743 16.9789C10.3743 17.6936 10.3743 18.3889 10.3743 19.1036C15.7914 19.1036 21.1987 19.1036 26.6159 19.1036C26.6159 18.3889 26.6159 17.6936 26.6159 16.9789ZM26.6159 22.6868C21.179 22.6868 15.7816 22.6868 10.3743 22.6868C10.3743 23.4015 10.3743 24.0968 10.3743 24.8115C15.7914 24.8115 21.1987 24.8115 26.6159 24.8115C26.6159 24.0968 26.6159 23.4111 26.6159 22.6868ZM18.4753 11.2613C15.7618 11.2613 13.0681 11.2613 10.3743 11.2613C10.3743 11.976 10.3743 12.6714 10.3743 13.3861C13.0779 13.3861 15.7717 13.3861 18.4753 13.3861C18.4753 12.681 18.4753 11.9856 18.4753 11.2613ZM14.5975 30.5194C17.2222 30.5194 19.8074 30.5194 22.3927 30.5194C22.3927 29.8048 22.3927 29.1094 22.3927 28.3947C19.7877 28.3947 17.2025 28.3947 14.5975 28.3947C14.5975 29.1094 14.5975 29.8048 14.5975 30.5194Z" fill="#503614"/>
<path d="M25.9646 0.0676064C28.2834 2.37588 30.5628 4.64552 32.8125 6.87653C30.5924 6.87653 28.2933 6.87653 25.9646 6.87653C25.9646 4.62621 25.9646 2.38554 25.9646 0.0676064Z" fill="#503614"/>
</g>
<defs>
<filter id="filter0_di_915_22752" x="0" y="0" width="37" height="45" filterUnits="userSpaceOnUse" color-interpolation-filters="sRGB">
<feFlood flood-opacity="0" result="BackgroundImageFix"/>
<feColorMatrix in="SourceAlpha" type="matrix" values="0 0 0 0 0 0 0 0 0 0 0 0 0 0 0 0 0 0 127 0" result="hardAlpha"/>
<feOffset dy="4"/>
<feGaussianBlur stdDeviation="2"/>
<feComposite in2="hardAlpha" operator="out"/>
<feColorMatrix type="matrix" values="0 0 0 0 1 0 0 0 0 1 0 0 0 0 1 0 0 0 0.55 0"/>
<feBlend mode="normal" in2="BackgroundImageFix" result="effect1_dropShadow_915_22752"/>
<feBlend mode="normal" in="SourceGraphic" in2="effect1_dropShadow_915_22752" result="shape"/>
<feColorMatrix in="SourceAlpha" type="matrix" values="0 0 0 0 0 0 0 0 0 0 0 0 0 0 0 0 0 0 127 0" result="hardAlpha"/>
<feOffset dy="4"/>
<feGaussianBlur stdDeviation="2"/>
<feComposite in2="hardAlpha" operator="arithmetic" k2="-1" k3="1"/>
<feColorMatrix type="matrix" values="0 0 0 0 0 0 0 0 0 0 0 0 0 0 0 0 0 0 0.65 0"/>
<feBlend mode="normal" in2="shape" result="effect2_innerShadow_915_22752"/>
</filter>
</defs>
</svg>
