<svg width="48" height="52" viewBox="0 0 48 52" fill="none" xmlns="http://www.w3.org/2000/svg">
<g filter="url(#filter0_di_903_3520)">
<path d="M20.5582 45.8593C21.3563 46.4835 22.2915 46.7716 23.2517 46.9997C23.7506 46.9997 24.2494 46.9997 24.7482 46.9997C24.8479 46.9637 24.9477 46.9277 25.0475 46.9037C26.7434 46.5555 28.0278 45.6672 28.8883 44.2267C29.3621 43.4225 29.6115 42.5702 29.5866 41.6339C25.8331 41.6339 22.1419 41.6339 18.4009 41.6339C18.5006 43.3624 19.174 44.7789 20.5582 45.8593Z" fill="white"/>
<path d="M22.6407 9.24664C15.7697 9.85885 11.5548 15.8369 11.4051 20.8066C11.3178 23.7116 12.2032 26.3045 13.9615 28.6573C15.7697 31.0821 17.079 33.747 17.7898 36.676C17.9644 37.3843 18.0891 38.1045 18.2263 38.8128C22.0796 38.8128 25.9079 38.8128 29.7363 38.8128C29.9358 37.8765 30.0854 36.9761 30.3099 36.0998C31.0207 33.3149 32.3425 30.818 34.1133 28.5132C36.1085 25.9204 36.9565 22.9914 36.4702 19.7983C35.5723 13.8202 30.4471 8.5384 22.6407 9.24664ZM27.6787 22.3671C27.0053 23.0274 26.307 23.6756 25.646 24.3478C25.5089 24.4799 25.4216 24.7079 25.4216 24.888C25.4091 26.3285 25.4091 27.757 25.4091 29.1975C25.4091 30.1098 24.848 30.722 24.0249 30.734C23.177 30.746 22.6158 30.1218 22.6158 29.1735C22.6158 27.793 22.6033 26.4125 22.6283 25.0441C22.6283 24.7079 22.5534 24.4559 22.2791 24.2158C21.6182 23.6156 20.9697 22.9793 20.3338 22.3431C19.6978 21.7189 19.6479 20.9026 20.234 20.3504C20.8076 19.7863 21.6681 19.8223 22.304 20.4345C22.8652 20.9747 23.4139 21.5268 24.0249 22.1271C24.636 21.5268 25.1722 20.9867 25.7209 20.4585C26.3693 19.8343 27.2048 19.7863 27.7909 20.3384C28.377 20.8906 28.3396 21.7189 27.6787 22.3671Z" fill="white"/>
<path d="M24.0125 6.47376C24.7732 6.47376 25.3842 5.88555 25.3967 5.1293C25.4091 4.66113 25.3967 4.20498 25.3967 3.73682C25.3967 3.25665 25.4091 2.77649 25.3967 2.30833C25.3717 1.57608 24.7607 1.01188 24.0125 0.999879C23.2518 0.987875 22.6158 1.56407 22.6033 2.32033C22.5784 3.25665 22.5909 4.20498 22.6033 5.1413C22.6158 5.90956 23.2518 6.48576 24.0125 6.47376Z" fill="white"/>
<path d="M7.15275 22.6553C7.98825 22.6433 8.59929 22.0671 8.59929 21.3229C8.59929 20.5666 8.00072 19.9784 7.17769 19.9664C6.26737 19.9544 5.34458 19.9544 4.43425 19.9664C3.61122 19.9664 2.98771 20.5666 3.00018 21.3229C3.01265 22.0551 3.61122 22.6313 4.40931 22.6553C4.87071 22.6673 5.34458 22.6553 5.80597 22.6553C6.2549 22.6553 6.70383 22.6553 7.15275 22.6553Z" fill="white"/>
<path d="M43.6281 19.9665C42.6804 19.9424 41.7326 19.9544 40.7849 19.9665C39.9993 19.9785 39.4007 20.5787 39.4007 21.3109C39.4007 22.0432 40.0117 22.6314 40.7974 22.6554C41.2588 22.6674 41.7326 22.6554 42.194 22.6554C42.6804 22.6554 43.1542 22.6674 43.6406 22.6554C44.4012 22.6314 44.9873 22.0432 44.9998 21.3349C45.0123 20.5907 44.4137 19.9785 43.6281 19.9665Z" fill="white"/>
<path d="M14.4602 8.05831C14.7845 8.56249 15.4329 8.75455 16.019 8.57449C16.6051 8.39443 16.9917 7.87825 16.9917 7.19402C16.9667 7.12199 16.9667 6.92992 16.8794 6.77387C16.3682 5.88557 15.8569 4.99726 15.2833 4.14497C14.8967 3.56877 14.0612 3.46074 13.4501 3.82086C12.8516 4.18098 12.6022 4.92524 12.9389 5.54945C13.4252 6.40174 13.9365 7.24203 14.4602 8.05831Z" fill="white"/>
<path d="M41.7575 29.6417C40.9096 29.1256 40.0367 28.6214 39.1388 28.1892C38.216 27.7451 37.1685 28.3933 37.156 29.3776C37.1436 29.8338 37.3556 30.266 37.7795 30.518C38.6275 31.0102 39.488 31.5024 40.3609 31.9465C41.0218 32.2826 41.8199 32.0306 42.1815 31.4304C42.5556 30.8061 42.406 30.0259 41.7575 29.6417Z" fill="white"/>
<path d="M31.7066 8.46648C32.4049 8.85061 33.2154 8.62253 33.6519 7.90228C34.1008 7.18204 34.5373 6.46179 34.9488 5.72954C35.086 5.50146 35.1483 5.23737 35.2481 4.98528C35.1982 4.38508 34.7992 3.8569 34.2131 3.68884C33.5896 3.49677 32.9536 3.71285 32.6044 4.27704C32.1305 5.0333 31.6816 5.78956 31.2327 6.55782C30.8087 7.27807 31.0082 8.08234 31.7066 8.46648Z" fill="white"/>
<path d="M8.91099 28.1652C7.97573 28.6334 7.06541 29.1496 6.18002 29.6898C5.65628 30.0019 5.50663 30.6501 5.71863 31.2143C5.90568 31.7304 6.46684 32.1026 7.14023 32.0906C7.21505 32.0666 7.4021 32.0666 7.55174 31.9945C8.48701 31.4904 9.42227 30.9982 10.3201 30.446C10.8938 30.0859 11.006 29.2936 10.6568 28.7174C10.2952 28.1292 9.5345 27.8531 8.91099 28.1652Z" fill="white"/>
<path d="M6.24248 12.98C7.09045 13.4962 7.96336 13.9884 8.86121 14.4325C9.78401 14.8767 10.8315 14.2164 10.8315 13.2321C10.8315 12.7879 10.6444 12.3678 10.2329 12.1277C9.37249 11.6235 8.51205 11.1314 7.6142 10.6752C6.95328 10.3391 6.16766 10.5912 5.79355 11.2034C5.44439 11.8036 5.6065 12.5959 6.24248 12.98Z" fill="white"/>
<path d="M38.615 14.5645C38.6898 14.5525 38.8769 14.5525 39.014 14.4805C39.9742 13.9643 40.9469 13.4722 41.8697 12.8839C42.4558 12.5118 42.5306 11.7195 42.1565 11.1554C41.7824 10.5912 41.0217 10.3391 40.3982 10.6512C39.5004 11.1073 38.615 11.6115 37.7421 12.1277C37.2183 12.4398 37.0313 13.076 37.2183 13.6282C37.4054 14.1804 37.9291 14.5525 38.615 14.5645Z" fill="white"/>
</g>
<defs>
<filter id="filter0_di_903_3520" x="0" y="-0.000305176" width="48" height="52" filterUnits="userSpaceOnUse" color-interpolation-filters="sRGB">
<feFlood flood-opacity="0" result="BackgroundImageFix"/>
<feColorMatrix in="SourceAlpha" type="matrix" values="0 0 0 0 0 0 0 0 0 0 0 0 0 0 0 0 0 0 127 0" result="hardAlpha"/>
<feOffset dy="2"/>
<feGaussianBlur stdDeviation="1.5"/>
<feComposite in2="hardAlpha" operator="out"/>
<feColorMatrix type="matrix" values="0 0 0 0 1 0 0 0 0 1 0 0 0 0 1 0 0 0 0.4 0"/>
<feBlend mode="normal" in2="BackgroundImageFix" result="effect1_dropShadow_903_3520"/>
<feBlend mode="normal" in="SourceGraphic" in2="effect1_dropShadow_903_3520" result="shape"/>
<feColorMatrix in="SourceAlpha" type="matrix" values="0 0 0 0 0 0 0 0 0 0 0 0 0 0 0 0 0 0 127 0" result="hardAlpha"/>
<feOffset dy="3"/>
<feGaussianBlur stdDeviation="1.5"/>
<feComposite in2="hardAlpha" operator="arithmetic" k2="-1" k3="1"/>
<feColorMatrix type="matrix" values="0 0 0 0 0 0 0 0 0 0 0 0 0 0 0 0 0 0 0.21 0"/>
<feBlend mode="normal" in2="shape" result="effect2_innerShadow_903_3520"/>
</filter>
</defs>
</svg>
