<svg width="18" height="18" viewBox="0 0 18 18" fill="none" xmlns="http://www.w3.org/2000/svg">
<path opacity="0.8" fill-rule="evenodd" clip-rule="evenodd" d="M9.52599 0H8.46938C8.35516 0.0160296 8.24034 0.0302542 8.12532 0.044503C7.89986 0.0724344 7.67365 0.100459 7.44975 0.142355C5.36823 0.516696 3.6301 1.50264 2.23538 3.08436C0.967447 4.51845 0.233103 6.19508 0.0481962 8.09842C-0.168409 10.2865 0.344047 12.3058 1.6067 14.1195C2.96972 16.0703 4.82936 17.2988 7.1539 17.8049C7.41062 17.8627 7.67477 17.8932 7.93788 17.9237C8.05919 17.9377 8.18028 17.9517 8.30032 17.9684C8.32938 17.9736 8.35712 17.9789 8.38486 17.9842C8.41259 17.9895 8.44032 17.9947 8.46938 18H9.52599C9.6389 17.9844 9.75182 17.9705 9.86454 17.9566C10.0946 17.9283 10.324 17.9001 10.5509 17.8576C13.2453 17.3515 15.3056 15.9174 16.7321 13.587C17.4664 12.3902 17.8679 11.0826 17.9683 9.68014C17.9717 9.64622 17.9795 9.61448 17.9874 9.58212C17.9918 9.56418 17.9962 9.54604 18 9.52724V8.47276C17.9844 8.36008 17.9704 8.24739 17.9566 8.1349C17.9282 7.90526 17.8999 7.6764 17.8574 7.44991C17.3555 4.75571 15.9185 2.6942 13.5887 1.26538C12.3894 0.527241 11.0686 0.126538 9.66335 0.026362C9.62906 0.026362 9.59752 0.018137 9.56476 0.00959516C9.5521 0.00629167 9.53925 0.0029408 9.52599 0ZM8.4456 15.0854H9.55152L9.61679 15.0796C9.86041 15.0581 10.1061 15.0364 10.3493 15.0126C11.4379 14.9111 12.4862 14.6691 13.5029 14.3127C13.7419 14.2268 13.8687 14.0603 13.8687 13.8261V9.22857C13.8687 8.98399 13.7362 8.82007 13.4799 8.73421C13.4431 8.72221 13.4064 8.70983 13.3696 8.69743C13.2708 8.66411 13.1716 8.63066 13.0709 8.60412C12.9672 8.57549 12.9384 8.52346 12.9384 8.42979C12.9396 8.18668 12.9393 7.94406 12.9389 7.7015C12.9385 7.37812 12.938 7.05486 12.9413 6.73076C12.947 6.19217 12.8866 5.66399 12.6562 5.16182C12.2242 4.22514 11.4926 3.55125 10.4472 3.17398C9.33264 2.7785 8.22672 2.83053 7.16976 3.3327C6.14735 3.81665 5.47919 4.579 5.19407 5.59113C5.10767 5.90336 5.07599 6.2312 5.06447 6.55383C5.04935 7.02022 5.05367 7.48661 5.05799 7.953C5.05943 8.10846 5.06087 8.26392 5.06159 8.41938C5.06447 8.52346 5.03279 8.5807 4.91759 8.60932C4.79807 8.63856 4.68069 8.67948 4.56361 8.72029C4.54528 8.72668 4.52696 8.73307 4.50863 8.73941C4.26959 8.82007 4.13423 8.98659 4.13423 9.21816C4.13135 10.7585 4.13135 12.2988 4.13135 13.8417C4.13135 14.0707 4.26095 14.232 4.49711 14.3153C5.51375 14.6717 6.56495 14.9137 7.65072 15.0152C7.82733 15.0325 8.00395 15.0475 8.18057 15.0626C8.26891 15.0701 8.35726 15.0776 8.4456 15.0854ZM11.5786 8.18665C11.5768 8.19859 11.5747 8.21278 11.5733 8.23205C9.85392 7.90421 8.1432 7.90421 6.43535 8.23205C6.4329 8.21873 6.42992 8.20779 6.42731 8.1982C6.4238 8.18529 6.42095 8.17485 6.42095 8.1644C6.42095 7.98499 6.41986 7.80559 6.41877 7.62626C6.41632 7.22301 6.41387 6.82015 6.42383 6.41853C6.45839 5.09938 7.67952 4.08464 9.13104 4.15229C10.4789 4.21213 11.5445 5.19044 11.5762 6.40812C11.5885 6.82434 11.5862 7.23922 11.5838 7.65468C11.5829 7.82098 11.5819 7.98738 11.5819 8.15399C11.5819 8.16453 11.5804 8.1744 11.5786 8.18665ZM8.47152 12.2806H8.46576C8.46576 12.201 8.46512 12.1211 8.46448 12.041C8.4632 11.8803 8.46191 11.7188 8.46576 11.5573C8.46864 11.474 8.44272 11.4246 8.36496 11.3725C7.96752 11.1123 7.82928 10.6726 8.00784 10.2537C8.16336 9.88684 8.62416 9.61885 9.04464 9.64747C9.5544 9.6839 9.96048 9.98832 10.0498 10.415C10.1304 10.8105 9.9864 11.1305 9.63216 11.3725C9.56016 11.4194 9.53424 11.4688 9.53424 11.5468C9.53712 12.0334 9.53712 12.52 9.53424 13.0065C9.53424 13.3083 9.31248 13.5139 9.0072 13.5165C8.72208 13.5191 8.48592 13.3317 8.4744 13.0742C8.46634 12.8903 8.46815 12.7051 8.46996 12.5196C8.47074 12.44 8.47152 12.3603 8.47152 12.2806Z" fill="white"/>
</svg>
