<svg width="34" height="53" viewBox="0 0 34 53" fill="none" xmlns="http://www.w3.org/2000/svg">
<g opacity="0.8">
<path d="M22.5373 1.26107C16.373 -0.905135 10.6394 0.268914 5.7676 4.60132C-0.695032 10.3558 -1.65614 19.5332 3.34826 26.6768C7.22584 32.2328 9.62861 38.2188 9.56233 45.0978C9.54576 47.3797 10.6394 49.2483 12.4457 50.6869C13.5228 51.5468 14.7987 51.9436 16.1078 52.2413C16.7375 52.2413 17.3506 52.2413 17.9638 52.2413C18.03 52.2082 18.0963 52.1586 18.1792 52.1421C22.0236 51.3649 24.3767 48.4711 24.443 44.5686C24.4595 43.0473 24.5424 41.5095 24.7744 40.0047C25.4869 35.1431 27.492 30.8438 30.425 26.9248C33.2421 23.1546 34.3358 18.8883 33.5072 14.2583C32.3473 7.89197 28.6851 3.41074 22.5373 1.26107ZM17.0855 48.5372C14.9976 48.5868 13.2576 46.9002 13.3073 44.8497C15.7598 44.8497 18.2123 44.8497 20.6648 44.8497C20.7808 46.7513 19.074 48.4876 17.0855 48.5372ZM27.5086 24.6098C25.0064 27.9666 23.0179 31.5879 21.9242 35.6392C21.4934 37.2267 21.2614 38.8637 20.9465 40.4677C20.9134 40.6661 20.8802 40.8646 20.8305 41.0795C18.262 41.0795 15.7101 41.0795 13.1085 41.0795C12.9759 40.2527 12.8434 39.4259 12.6942 38.6157C11.7 33.5888 9.56233 29.0414 6.59615 24.8743C5.35333 23.1215 4.49165 21.253 4.11052 19.1364C2.78485 12.0094 8.12067 4.8659 15.3456 4.08871C22.4876 3.31152 28.652 7.87543 29.8451 14.9032C30.4582 18.4419 29.6628 21.7325 27.5086 24.6098Z" fill="url(#paint0_linear_399_3946)"/>
<path d="M19.2397 15.8127C18.5106 16.5402 17.798 17.2844 17.0855 18.0119C16.9529 17.9789 16.9198 17.9789 16.9198 17.9623C16.1741 17.2182 15.4118 16.4906 14.6662 15.7465C14.169 15.2504 13.5725 15.0024 12.8599 15.1678C11.4183 15.4985 10.9211 17.1851 11.9485 18.2765C12.8599 19.2356 13.8376 20.1285 14.7324 21.1042C14.9479 21.3357 15.097 21.6994 15.097 22.0136C15.1301 23.9318 15.1136 25.85 15.1136 27.7681C15.1136 29.1241 15.8427 29.9839 16.9861 29.9839C18.1295 29.9674 18.842 29.1241 18.842 27.7516C18.842 25.8334 18.8254 23.9153 18.8586 21.9971C18.8586 21.716 19.0077 21.3522 19.2066 21.1538C20.0683 20.2443 20.9797 19.3679 21.8745 18.4749C22.7527 17.582 22.8025 16.441 22.007 15.6804C21.2282 14.8867 20.1014 14.9528 19.2397 15.8127Z" fill="url(#paint1_linear_399_3946)"/>
</g>
<defs>
<linearGradient id="paint0_linear_399_3946" x1="16.9708" y1="-11.4314" x2="16.9708" y2="52.2413" gradientUnits="userSpaceOnUse">
<stop stop-color="#503614"/>
<stop offset="1" stop-color="#503614" stop-opacity="0"/>
</linearGradient>
<linearGradient id="paint1_linear_399_3946" x1="16.9708" y1="-11.4314" x2="16.9708" y2="52.2413" gradientUnits="userSpaceOnUse">
<stop stop-color="#503614"/>
<stop offset="1" stop-color="#503614" stop-opacity="0"/>
</linearGradient>
</defs>
</svg>
