<svg width="48" height="48" viewBox="0 0 48 48" fill="none" xmlns="http://www.w3.org/2000/svg">
<g opacity="0.8" filter="url(#filter0_di_915_22749)">
<path d="M25.1635 40C24.3811 40 23.5987 40 22.8164 40C22.2883 39.9413 21.7601 39.8826 21.232 39.8044C17.2908 39.2468 13.7994 37.672 10.8165 35.0407C7.31536 31.94 5.1149 28.0762 4.30317 23.4397C4.17604 22.6866 4.0978 21.9334 4 21.1704C4 20.3879 4 19.6053 4 18.8228C4.01956 18.6957 4.05868 18.5783 4.06846 18.4511C4.18582 16.6513 4.56723 14.9004 5.18336 13.2082C8.67475 3.57328 18.836 -1.85551 28.7918 0.580112C39.0704 3.09399 45.6522 13.3745 43.6376 23.7527C42.865 27.7339 41.0655 31.177 38.2098 34.0528C35.2172 37.0655 31.628 38.9729 27.4422 39.687C26.6892 39.8142 25.9263 39.8924 25.1635 40ZM27.4911 28.9859C27.4911 25.0439 27.4911 21.1606 27.4911 17.2969C24.6061 17.2969 21.7699 17.2969 18.9338 17.2969C18.9338 18.0794 18.9338 18.8326 18.9338 19.6151C19.4521 19.6151 19.9509 19.6151 20.4399 19.6151C20.4399 22.755 20.4399 25.8558 20.4399 28.9859C19.8922 28.9859 19.3739 28.9859 18.8555 28.9859C18.8555 29.7782 18.8555 30.5314 18.8555 31.2846C22.2394 31.2846 25.6036 31.2846 28.9679 31.2846C28.9679 30.5021 28.9679 29.7587 28.9679 28.9761C28.4887 28.9859 28.029 28.9859 27.4911 28.9859ZM27.5009 11.467C27.5596 9.57919 26.0046 7.96523 24.0584 7.89676C22.1709 7.82828 20.5572 9.38356 20.479 11.3301C20.4007 13.2277 21.9851 14.871 23.941 14.92C25.8383 14.9689 27.452 13.4038 27.5009 11.467Z" fill="#503614"/>
</g>
<defs>
<filter id="filter0_di_915_22749" x="0" y="0" width="48" height="48" filterUnits="userSpaceOnUse" color-interpolation-filters="sRGB">
<feFlood flood-opacity="0" result="BackgroundImageFix"/>
<feColorMatrix in="SourceAlpha" type="matrix" values="0 0 0 0 0 0 0 0 0 0 0 0 0 0 0 0 0 0 127 0" result="hardAlpha"/>
<feOffset dy="4"/>
<feGaussianBlur stdDeviation="2"/>
<feComposite in2="hardAlpha" operator="out"/>
<feColorMatrix type="matrix" values="0 0 0 0 1 0 0 0 0 1 0 0 0 0 1 0 0 0 0.55 0"/>
<feBlend mode="normal" in2="BackgroundImageFix" result="effect1_dropShadow_915_22749"/>
<feBlend mode="normal" in="SourceGraphic" in2="effect1_dropShadow_915_22749" result="shape"/>
<feColorMatrix in="SourceAlpha" type="matrix" values="0 0 0 0 0 0 0 0 0 0 0 0 0 0 0 0 0 0 127 0" result="hardAlpha"/>
<feOffset dy="4"/>
<feGaussianBlur stdDeviation="2"/>
<feComposite in2="hardAlpha" operator="arithmetic" k2="-1" k3="1"/>
<feColorMatrix type="matrix" values="0 0 0 0 0 0 0 0 0 0 0 0 0 0 0 0 0 0 0.65 0"/>
<feBlend mode="normal" in2="shape" result="effect2_innerShadow_915_22749"/>
</filter>
</defs>
</svg>
