<svg width="284" height="211" viewBox="0 0 284 211" fill="none" xmlns="http://www.w3.org/2000/svg">
<g clip-path="url(#clip0_152:3787)">
<path d="M0 -60H284V159.675L142 211L0 159.675V-60Z" fill="url(#paint0_linear_152:3787)"/>
<path opacity="0.1" fill-rule="evenodd" clip-rule="evenodd" d="M272 -38H12V152.123L142 196.771L272 152.123V-38ZM276 154.978L142 201L8 154.978V-42H276V154.978Z" fill="url(#paint1_linear_152:3787)"/>
<mask id="mask0_152:3787" style="mask-type:alpha" maskUnits="userSpaceOnUse" x="67" y="27" width="146" height="139">
<rect x="67.6568" y="27" width="144.492" height="138.154" fill="url(#paint2_linear_152:3787)"/>
</mask>
<g mask="url(#mask0_152:3787)">
<path fill-rule="evenodd" clip-rule="evenodd" d="M98.6884 42.0004L114.655 38.084L118.236 50.8876L127.189 49.8332L130.77 35.8246H139.872H148.975L152.556 49.8332L161.509 50.8876L165.09 38.084L181.056 42.0004V67.1557L171.357 76.9466V142.825C171.357 154.273 150.367 166.474 139.872 171.144C129.377 166.474 108.387 154.273 108.387 142.825V76.9466L98.6884 67.1557V42.0004Z" fill="#D1AA76"/>
<path fill-rule="evenodd" clip-rule="evenodd" d="M139.873 36.3362H139.872H130.77L127.189 50.2135L118.236 51.258L114.655 38.5744L98.6882 42.4541V67.3735L108.387 77.0727V142.665C108.387 154.005 129.377 166.092 139.872 170.718C147.597 167.313 161.006 159.867 167.548 151.652H139.873V36.3362Z" fill="#C19963"/>
<path d="M139.872 59.8991L98.6882 67.3184L108.379 77.0088L139.872 72.7692V59.8991Z" fill="#B38A54"/>
<path d="M139.872 59.8991L181.056 67.3184L171.366 77.0088L139.872 72.7692V59.8991Z" fill="#C19963"/>
</g>
<path d="M105.031 133.036C105.695 133.036 106.395 133.134 107.131 133.33C107.867 133.514 108.537 133.802 109.14 134.194C109.743 134.573 110.244 135.057 110.642 135.646C111.04 136.234 111.239 136.926 111.239 137.722C111.239 138.249 111.143 138.727 110.95 139.156C110.757 139.573 110.497 139.946 110.172 140.277C109.858 140.596 109.49 140.878 109.068 141.123C108.645 141.355 108.199 141.551 107.728 141.711C107.27 141.858 106.799 141.968 106.316 142.042C105.834 142.115 105.381 142.152 104.959 142.152C104.271 142.152 103.565 142.072 102.841 141.913C102.118 141.754 101.454 141.496 100.851 141.141C100.259 140.786 99.7707 140.326 99.3846 139.763C99.0106 139.187 98.8235 138.482 98.8235 137.649C98.8235 136.828 99.0166 136.13 99.4027 135.554C99.8009 134.966 100.302 134.488 100.905 134.12C101.508 133.74 102.172 133.465 102.896 133.293C103.632 133.121 104.344 133.036 105.031 133.036ZM101.538 137.631C101.538 138.108 101.641 138.513 101.846 138.844C102.063 139.174 102.335 139.444 102.661 139.652C102.998 139.861 103.372 140.014 103.783 140.112C104.193 140.198 104.597 140.24 104.995 140.24C105.369 140.24 105.761 140.191 106.172 140.093C106.582 139.995 106.962 139.842 107.312 139.634C107.662 139.426 107.951 139.162 108.181 138.844C108.41 138.513 108.525 138.121 108.525 137.667C108.525 137.214 108.416 136.822 108.199 136.491C107.982 136.148 107.704 135.866 107.366 135.646C107.028 135.413 106.648 135.241 106.226 135.131C105.816 135.021 105.418 134.966 105.031 134.966C104.633 134.966 104.229 135.021 103.819 135.131C103.409 135.229 103.035 135.388 102.697 135.609C102.359 135.817 102.081 136.093 101.864 136.436C101.647 136.767 101.538 137.165 101.538 137.631Z" fill="#573E2C"/>
<path d="M120.434 126.438C121.013 126.438 121.55 126.499 122.044 126.621C122.551 126.732 122.986 126.928 123.348 127.209C123.709 127.479 123.993 127.84 124.198 128.294C124.415 128.735 124.524 129.28 124.524 129.93C124.524 130.224 124.506 130.518 124.47 130.812C124.433 131.106 124.385 131.4 124.325 131.694C124.301 131.829 124.271 131.97 124.234 132.117C124.198 132.252 124.18 132.386 124.18 132.521V132.576L121.32 132.025C121.393 131.915 121.453 131.78 121.501 131.621C121.55 131.461 121.586 131.296 121.61 131.124C121.646 130.94 121.67 130.763 121.682 130.591C121.707 130.42 121.719 130.267 121.719 130.132C121.719 129.47 121.562 128.943 121.248 128.551C120.946 128.147 120.452 127.945 119.764 127.945C119.233 127.945 118.762 128.073 118.352 128.331C117.942 128.588 117.592 128.919 117.302 129.323C117.025 129.727 116.808 130.181 116.651 130.683C116.506 131.186 116.434 131.676 116.434 132.154C116.434 132.435 116.428 132.717 116.416 132.999C116.416 133.269 116.416 133.544 116.416 133.826C116.802 133.814 117.194 133.808 117.592 133.808C117.99 133.795 118.388 133.777 118.787 133.753C118.992 133.74 119.215 133.728 119.456 133.716C119.698 133.703 119.921 133.667 120.126 133.605L120.072 135.462C119.975 135.425 119.758 135.394 119.42 135.37C119.082 135.345 118.714 135.327 118.316 135.315C117.918 135.303 117.538 135.296 117.176 135.296C116.814 135.296 116.554 135.296 116.398 135.296V137.134C116.398 137.232 116.398 137.41 116.398 137.667C116.398 137.912 116.398 138.2 116.398 138.531C116.41 138.85 116.416 139.187 116.416 139.542C116.428 139.897 116.44 140.228 116.452 140.534C116.464 140.841 116.482 141.104 116.506 141.325C116.53 141.533 116.56 141.662 116.597 141.711H113.683C113.731 141.662 113.767 141.521 113.791 141.288C113.815 141.043 113.834 140.78 113.846 140.498C113.858 140.204 113.864 139.928 113.864 139.671C113.864 139.401 113.864 139.217 113.864 139.119C113.864 137.857 113.846 136.589 113.809 135.315C113.472 135.315 113.128 135.315 112.778 135.315C112.428 135.303 112.09 135.333 111.764 135.407L111.71 133.734C111.831 133.771 111.981 133.802 112.162 133.826C112.343 133.838 112.53 133.851 112.723 133.863C112.929 133.863 113.122 133.863 113.303 133.863C113.496 133.863 113.659 133.863 113.791 133.863C113.779 133.679 113.767 133.501 113.755 133.33C113.743 133.146 113.737 132.968 113.737 132.797C113.737 131.853 113.912 130.953 114.262 130.095C114.539 129.433 114.889 128.87 115.312 128.404C115.734 127.939 116.211 127.559 116.741 127.265C117.272 126.971 117.845 126.762 118.461 126.64C119.088 126.505 119.746 126.438 120.434 126.438Z" fill="#573E2C"/>
<path d="M136.994 135.388C137.368 135.523 137.748 135.676 138.134 135.848C138.52 136.019 138.864 136.221 139.166 136.454C139.468 136.687 139.715 136.951 139.908 137.245C140.101 137.526 140.198 137.851 140.198 138.219C140.198 138.77 140.035 139.248 139.709 139.652C139.383 140.044 138.961 140.381 138.442 140.663C137.923 140.933 137.338 141.153 136.686 141.325C136.035 141.496 135.377 141.631 134.714 141.729C134.062 141.827 133.435 141.888 132.831 141.913C132.24 141.95 131.739 141.974 131.329 141.986C130.171 142.011 129.012 142.011 127.854 141.986C127.975 141.705 128.065 141.288 128.126 140.737C128.198 140.185 128.252 139.603 128.288 138.991C128.313 138.353 128.325 137.741 128.325 137.153C128.325 136.552 128.325 136.087 128.325 135.756C128.325 135.633 128.325 135.388 128.325 135.021C128.325 134.641 128.319 134.206 128.307 133.716C128.295 133.213 128.276 132.68 128.252 132.117C128.24 131.553 128.216 131.02 128.18 130.518C128.144 130.003 128.101 129.544 128.053 129.139C128.005 128.735 127.945 128.447 127.872 128.275C128.536 128.275 129.157 128.275 129.736 128.275C130.328 128.275 130.907 128.282 131.474 128.294C132.053 128.294 132.632 128.312 133.211 128.349C133.803 128.373 134.424 128.422 135.076 128.496C135.425 128.533 135.818 128.582 136.252 128.643C136.686 128.704 137.121 128.79 137.555 128.9C138.002 128.998 138.43 129.133 138.84 129.305C139.262 129.464 139.636 129.672 139.962 129.93C140.288 130.175 140.547 130.469 140.741 130.812C140.934 131.143 141.03 131.541 141.03 132.006C141.03 132.472 140.903 132.889 140.65 133.256C140.409 133.612 140.089 133.924 139.691 134.194C139.305 134.463 138.87 134.696 138.388 134.892C137.917 135.088 137.453 135.253 136.994 135.388ZM134.931 130.132C134.557 130.083 134.177 130.046 133.791 130.021C133.404 129.985 133.036 129.966 132.687 129.966C132.337 129.954 132.017 129.948 131.727 129.948C131.438 129.948 131.196 129.948 131.003 129.948C130.967 130.708 130.937 131.455 130.913 132.19C130.901 132.913 130.889 133.661 130.877 134.433C131.13 134.433 131.42 134.433 131.745 134.433C132.071 134.42 132.415 134.408 132.777 134.396C133.151 134.371 133.531 134.341 133.917 134.304C134.303 134.255 134.677 134.194 135.039 134.12C135.401 134.047 135.751 133.955 136.089 133.844C136.427 133.734 136.723 133.593 136.976 133.422C137.241 133.25 137.453 133.048 137.609 132.815C137.766 132.582 137.845 132.307 137.845 131.988C137.845 131.706 137.76 131.461 137.591 131.253C137.434 131.045 137.217 130.867 136.94 130.72C136.674 130.573 136.367 130.456 136.017 130.371C135.667 130.273 135.305 130.193 134.931 130.132ZM134.46 136.583C133.785 136.473 133.115 136.411 132.451 136.399C131.788 136.375 131.263 136.356 130.877 136.344C130.877 137.018 130.883 137.673 130.895 138.311C130.907 138.948 130.931 139.603 130.967 140.277C131.148 140.277 131.365 140.277 131.619 140.277C131.884 140.277 132.174 140.271 132.487 140.259C132.801 140.234 133.127 140.21 133.465 140.185C133.815 140.149 134.153 140.1 134.478 140.038C134.804 139.977 135.118 139.903 135.419 139.818C135.733 139.72 136.005 139.603 136.234 139.468C136.475 139.321 136.668 139.15 136.813 138.954C136.958 138.758 137.03 138.525 137.03 138.255C137.03 138.01 136.958 137.796 136.813 137.612C136.668 137.428 136.475 137.269 136.234 137.134C135.993 137 135.715 136.889 135.401 136.803C135.1 136.718 134.786 136.644 134.46 136.583Z" fill="#573E2C"/>
<path d="M148.776 142.115C148.982 142.054 149.108 141.919 149.156 141.711C149.205 141.49 149.235 141.294 149.247 141.123C148.704 141.294 148.155 141.423 147.6 141.509C147.045 141.594 146.49 141.637 145.935 141.637C145.573 141.637 145.139 141.607 144.632 141.545C144.137 141.484 143.66 141.368 143.202 141.196C142.756 141.025 142.369 140.786 142.044 140.479C141.73 140.173 141.573 139.769 141.573 139.266C141.573 138.837 141.724 138.47 142.026 138.164C142.339 137.857 142.737 137.606 143.22 137.41C143.703 137.202 144.246 137.042 144.849 136.932C145.452 136.822 146.043 136.736 146.623 136.675C147.202 136.614 147.745 136.577 148.252 136.565C148.758 136.552 149.156 136.54 149.446 136.528C149.446 136.356 149.446 136.191 149.446 136.032C149.458 135.872 149.464 135.707 149.464 135.535C149.464 135.229 149.41 134.966 149.301 134.745C149.193 134.512 149.042 134.322 148.849 134.175C148.668 134.028 148.451 133.924 148.197 133.863C147.944 133.789 147.678 133.753 147.401 133.753C147.135 133.753 146.846 133.789 146.532 133.863C146.23 133.936 145.941 134.047 145.663 134.194C145.386 134.341 145.145 134.531 144.939 134.763C144.734 134.984 144.608 135.241 144.559 135.535L142.279 135.223C142.496 134.659 142.798 134.181 143.184 133.789C143.57 133.397 144.004 133.079 144.487 132.834C144.982 132.588 145.507 132.411 146.062 132.301C146.617 132.178 147.172 132.117 147.727 132.117C148.258 132.117 148.77 132.184 149.265 132.319C149.772 132.454 150.218 132.662 150.604 132.944C151.003 133.213 151.316 133.563 151.546 133.991C151.787 134.42 151.908 134.929 151.908 135.517C151.908 136.142 151.895 136.767 151.871 137.392C151.859 138.004 151.853 138.623 151.853 139.248C151.853 139.358 151.853 139.56 151.853 139.854C151.853 140.136 151.859 140.436 151.871 140.755C151.895 141.061 151.926 141.349 151.962 141.619C151.998 141.876 152.052 142.042 152.125 142.115H148.776ZM144.034 139.266C144.034 139.45 144.131 139.591 144.324 139.689C144.517 139.787 144.74 139.867 144.994 139.928C145.259 139.977 145.519 140.008 145.772 140.02C146.025 140.032 146.206 140.038 146.315 140.038C146.822 140.038 147.335 140.001 147.853 139.928C148.372 139.854 148.873 139.738 149.356 139.579C149.368 139.358 149.374 139.138 149.374 138.917C149.386 138.697 149.392 138.482 149.392 138.274L148.921 138.255C148.813 138.255 148.614 138.262 148.324 138.274C148.046 138.274 147.727 138.286 147.365 138.311C147.003 138.323 146.623 138.353 146.224 138.402C145.838 138.439 145.482 138.494 145.157 138.568C144.831 138.641 144.559 138.739 144.342 138.862C144.137 138.972 144.034 139.107 144.034 139.266Z" fill="#573E2C"/>
<path d="M160.161 132.65C160.812 132.65 161.452 132.742 162.079 132.925C162.719 133.097 163.292 133.36 163.798 133.716C164.305 134.071 164.715 134.524 165.029 135.076C165.343 135.627 165.5 136.27 165.5 137.006C165.5 137.508 165.397 137.98 165.192 138.421C164.987 138.85 164.715 139.242 164.378 139.597C164.04 139.952 163.66 140.265 163.237 140.534C162.827 140.804 162.417 141.018 162.007 141.178C161.15 141.509 160.269 141.674 159.364 141.674C158.857 141.674 158.357 141.619 157.862 141.509C157.379 141.398 156.915 141.215 156.468 140.957C156.48 141.092 156.493 141.251 156.505 141.435C156.517 141.607 156.553 141.76 156.613 141.895H153.428C153.488 141.797 153.542 141.509 153.591 141.031C153.651 140.553 153.705 139.977 153.754 139.303C153.802 138.629 153.844 137.9 153.88 137.116C153.916 136.332 153.947 135.578 153.971 134.855C154.007 134.132 154.031 133.483 154.043 132.907C154.055 132.331 154.061 131.915 154.061 131.657C154.061 131.522 154.061 131.29 154.061 130.959C154.061 130.616 154.049 130.26 154.025 129.893C154.001 129.525 153.965 129.188 153.916 128.882C153.868 128.576 153.802 128.392 153.717 128.331L157.156 128.349C157.072 128.386 156.999 128.527 156.939 128.772C156.879 129.017 156.824 129.323 156.776 129.691C156.728 130.046 156.686 130.438 156.649 130.867C156.625 131.296 156.601 131.706 156.577 132.098C156.553 132.478 156.535 132.821 156.523 133.128C156.511 133.434 156.505 133.648 156.505 133.771C157.036 133.403 157.615 133.128 158.242 132.944C158.87 132.748 159.509 132.65 160.161 132.65ZM159.346 139.836C159.768 139.836 160.185 139.775 160.595 139.652C161.017 139.53 161.397 139.346 161.735 139.101C162.073 138.856 162.345 138.556 162.55 138.2C162.755 137.833 162.857 137.41 162.857 136.932C162.857 136.491 162.761 136.111 162.568 135.793C162.387 135.462 162.145 135.192 161.844 134.984C161.542 134.763 161.198 134.604 160.812 134.506C160.438 134.408 160.058 134.359 159.672 134.359C159.322 134.359 158.96 134.414 158.586 134.524C158.212 134.635 157.862 134.794 157.536 135.002C157.223 135.211 156.963 135.468 156.758 135.774C156.553 136.081 156.444 136.436 156.432 136.84V137.557C156.432 137.949 156.517 138.292 156.686 138.586C156.867 138.868 157.096 139.101 157.373 139.285C157.663 139.468 157.977 139.609 158.314 139.707C158.664 139.793 159.008 139.836 159.346 139.836Z" fill="#573E2C"/>
<path d="M171.907 142.17C171.316 142.17 170.688 142.091 170.024 141.931C169.361 141.772 168.745 141.527 168.178 141.196C167.623 140.853 167.159 140.424 166.785 139.91C166.423 139.395 166.242 138.782 166.242 138.072C166.242 137.202 166.411 136.424 166.749 135.737C167.086 135.051 167.539 134.475 168.106 134.01C168.673 133.532 169.331 133.17 170.079 132.925C170.827 132.668 171.611 132.539 172.432 132.539C173.083 132.539 173.662 132.65 174.169 132.87C174.676 133.079 175.098 133.379 175.436 133.771C175.774 134.151 176.027 134.604 176.196 135.131C176.377 135.658 176.468 136.24 176.468 136.877C176.468 137.49 176.377 138.078 176.196 138.641H168.649C168.77 139.009 168.957 139.309 169.21 139.542C169.475 139.775 169.771 139.959 170.097 140.093C170.435 140.216 170.785 140.302 171.147 140.351C171.521 140.4 171.871 140.424 172.196 140.424C172.401 140.424 172.673 140.412 173.011 140.387C173.361 140.351 173.717 140.302 174.079 140.24C174.441 140.167 174.778 140.081 175.092 139.983C175.418 139.885 175.659 139.763 175.816 139.616L176.703 141.196C175.907 141.502 175.122 141.741 174.35 141.913C173.578 142.084 172.763 142.17 171.907 142.17ZM171.907 134.267C171.545 134.267 171.183 134.341 170.821 134.488C170.471 134.635 170.151 134.831 169.862 135.076C169.572 135.309 169.319 135.59 169.101 135.921C168.884 136.24 168.727 136.571 168.631 136.914H173.807C173.843 136.546 173.843 136.203 173.807 135.885C173.783 135.554 173.705 135.272 173.572 135.039C173.439 134.794 173.24 134.604 172.975 134.469C172.709 134.335 172.353 134.267 171.907 134.267Z" fill="#573E2C"/>
<path d="M178.368 142.06C178.428 141.962 178.489 141.668 178.549 141.178C178.609 140.675 178.658 140.081 178.694 139.395C178.742 138.697 178.784 137.949 178.821 137.153C178.857 136.344 178.887 135.578 178.911 134.855C178.947 134.132 178.971 133.495 178.983 132.944C178.995 132.392 179.001 132.019 179.001 131.823C179.001 131.712 179.001 131.492 179.001 131.161C179.001 130.818 178.989 130.456 178.965 130.077C178.953 129.697 178.923 129.354 178.875 129.047C178.827 128.729 178.754 128.539 178.658 128.478L182.114 128.514C182.054 128.527 182.006 128.6 181.97 128.735C181.946 128.87 181.927 128.962 181.915 129.011C181.783 129.623 181.698 130.248 181.662 130.885C181.626 131.51 181.59 132.135 181.553 132.76C181.493 133.802 181.445 134.831 181.409 135.848C181.385 136.865 181.372 137.894 181.372 138.935C181.372 139.034 181.372 139.242 181.372 139.56C181.372 139.867 181.378 140.191 181.391 140.534C181.403 140.878 181.421 141.202 181.445 141.509C181.469 141.803 181.511 141.986 181.572 142.06H178.368Z" fill="#573E2C"/>
<path fill-rule="evenodd" clip-rule="evenodd" d="M88.6433 137.234H60.8796V135.692H88.6433V137.234Z" fill="#573E2C"/>
<path fill-rule="evenodd" clip-rule="evenodd" d="M220.058 137.234L192.294 137.234L192.294 135.692L220.058 135.692L220.058 137.234Z" fill="#573E2C"/>
<path d="M80.4801 94.627C80.3679 94.5709 79.9893 94.5288 79.3442 94.5007C78.7271 94.4727 77.9698 94.4587 77.0722 94.4587C76.2027 94.4306 75.249 94.4166 74.2112 94.4166C73.2015 94.3885 72.2338 94.3745 71.3082 94.3745C70.4106 94.3745 69.6112 94.3745 68.91 94.3745C68.2369 94.3745 67.7881 94.3745 67.5637 94.3745C67.3393 96.4782 67.2131 98.5818 67.185 100.685C67.185 102.789 67.185 104.893 67.185 106.996C67.185 108.343 67.171 109.675 67.143 110.993C67.1149 112.312 67.1009 113.644 67.1009 114.99C67.1009 115.215 67.1009 115.65 67.1009 116.295C67.1009 116.912 67.1149 117.571 67.143 118.272C67.171 118.973 67.2271 119.618 67.3113 120.207C67.4234 120.796 67.5637 121.161 67.732 121.301H60.3692C60.5655 121.133 60.7058 120.6 60.7899 119.703C60.9021 118.777 60.9863 117.669 61.0424 116.379C61.1265 115.089 61.1686 113.686 61.1686 112.171C61.1966 110.657 61.2106 109.212 61.2106 107.838C61.2106 106.464 61.1966 105.257 61.1686 104.22C61.1686 103.154 61.1686 102.41 61.1686 101.99C61.1686 100.728 61.1545 99.4654 61.1265 98.2032C61.1265 96.941 61.0844 95.6788 61.0003 94.4166C59.1771 94.4166 57.368 94.4306 55.5728 94.4587C53.7777 94.4587 51.9686 94.4727 50.1454 94.5007C49.8649 94.5007 49.5143 94.5148 49.0936 94.5428C48.6448 94.5428 48.182 94.5428 47.7052 94.5428C47.2283 94.5428 46.7796 94.5568 46.3588 94.5849C45.9101 94.6129 45.5594 94.655 45.307 94.7111L45.1808 90.3355L80.5222 90.1251L80.4801 94.627Z" fill="#573E2C"/>
<path d="M96.7624 90.041C99.0624 90.041 101.306 90.4197 103.494 91.177C105.682 91.9343 107.617 93.0282 109.3 94.4587C111.011 95.8611 112.372 97.5721 113.381 99.5916C114.419 101.583 114.938 103.827 114.938 106.323C114.938 108.792 114.391 110.979 113.297 112.887C112.231 114.794 110.829 116.407 109.09 117.725C107.351 119.015 105.387 119.997 103.2 120.67C101.012 121.343 98.81 121.68 96.5941 121.68C94.182 121.68 91.882 121.357 89.6942 120.712C87.5344 120.039 85.6271 119.057 83.9722 117.767C82.3454 116.449 81.0411 114.822 80.0594 112.887C79.0777 110.923 78.5868 108.637 78.5868 106.029C78.5868 103.448 79.0917 101.162 80.1015 99.1709C81.1393 97.1794 82.4996 95.5105 84.1826 94.1642C85.8655 92.8178 87.8009 91.794 89.9887 91.0928C92.1765 90.3916 94.4344 90.041 96.7624 90.041ZM85.6551 105.987C85.6551 107.557 85.9216 109.044 86.4545 110.446C87.0155 111.849 87.7868 113.083 88.7685 114.149C89.7503 115.187 90.9002 116.014 92.2185 116.631C93.5649 117.248 95.0374 117.557 96.6362 117.557C98.1228 117.557 99.5393 117.248 100.886 116.631C102.26 115.986 103.452 115.145 104.462 114.107C105.5 113.041 106.327 111.835 106.944 110.489C107.561 109.114 107.87 107.684 107.87 106.197C107.87 104.15 107.575 102.382 106.986 100.896C106.397 99.3812 105.598 98.1331 104.588 97.1514C103.578 96.1416 102.4 95.3983 101.054 94.9215C99.7076 94.4166 98.2771 94.1642 96.7624 94.1642C95.1917 94.1642 93.7332 94.5007 92.3868 95.1739C91.0405 95.819 89.8624 96.6885 88.8527 97.7824C87.871 98.8763 87.0856 100.139 86.4966 101.569C85.9356 102.971 85.6551 104.444 85.6551 105.987Z" fill="#573E2C"/>
<path d="M169.297 90.2514C168.96 90.4477 168.511 90.9806 167.95 91.8501C167.389 92.7196 166.758 93.8135 166.057 95.1318C165.356 96.4221 164.598 97.8946 163.785 99.5495C163 101.176 162.2 102.859 161.387 104.598C160.573 106.337 159.774 108.076 158.989 109.815C158.203 111.554 157.474 113.181 156.801 114.696C156.156 116.182 155.581 117.515 155.076 118.693C154.599 119.843 154.234 120.712 153.982 121.301H146.661C145.708 118.412 144.726 115.551 143.716 112.718C142.734 109.885 141.711 107.039 140.645 104.178C139.523 107.01 138.457 109.857 137.447 112.718C136.465 115.551 135.512 118.412 134.586 121.301H127.265C127.013 120.712 126.634 119.843 126.129 118.693C125.625 117.515 125.036 116.182 124.362 114.696C123.717 113.181 123.002 111.568 122.217 109.857C121.459 108.118 120.674 106.379 119.861 104.64C119.047 102.901 118.234 101.218 117.42 99.5916C116.635 97.9367 115.892 96.4642 115.19 95.1739C114.489 93.8556 113.858 92.7617 113.297 91.8922C112.736 91.0227 112.287 90.4898 111.951 90.2934C113.494 90.2934 115.036 90.3075 116.579 90.3355C118.094 90.3355 119.622 90.3215 121.165 90.2934C121.081 90.3495 121.025 90.4477 120.997 90.5879C120.997 90.7001 120.997 90.7983 120.997 90.8825C120.997 91.4995 121.179 92.4251 121.544 93.6593C121.936 94.8654 122.427 96.2398 123.016 97.7824C123.633 99.2971 124.306 100.91 125.036 102.621C125.793 104.304 126.522 105.917 127.223 107.459C127.953 109.002 128.612 110.404 129.201 111.667C129.818 112.901 130.295 113.84 130.631 114.485C131.894 111.428 133.1 108.357 134.25 105.271C135.428 102.186 136.479 99.0446 137.405 95.8471C137.265 95.5385 137.068 95.1038 136.816 94.5428C136.564 93.9818 136.283 93.4209 135.975 92.8599C135.694 92.2989 135.386 91.78 135.049 91.3032C134.712 90.7983 134.39 90.4477 134.081 90.2514H143.379C143.239 90.3636 143.155 90.5038 143.127 90.6721C143.127 90.8123 143.127 90.9526 143.127 91.0928C143.127 91.766 143.267 92.7056 143.548 93.9117C143.856 95.1178 144.235 96.4501 144.684 97.9087C145.133 99.3672 145.637 100.896 146.198 102.495C146.787 104.093 147.362 105.636 147.923 107.123C148.484 108.609 149.003 109.97 149.48 111.204C149.957 112.438 150.35 113.406 150.658 114.107C150.967 113.462 151.415 112.536 152.004 111.33C152.622 110.096 153.281 108.721 153.982 107.207C154.683 105.664 155.398 104.065 156.128 102.41C156.885 100.728 157.558 99.1428 158.147 97.6562C158.764 96.1416 159.269 94.7812 159.662 93.5751C160.054 92.369 160.251 91.4715 160.251 90.8825C160.251 90.7703 160.237 90.6581 160.209 90.5459C160.209 90.4056 160.153 90.3075 160.04 90.2514C163.126 90.3075 166.211 90.3075 169.297 90.2514Z" fill="#573E2C"/>
<path d="M167.782 121.301C167.95 121.133 168.09 120.6 168.203 119.703C168.315 118.777 168.399 117.669 168.455 116.379C168.539 115.089 168.581 113.686 168.581 112.171C168.609 110.657 168.623 109.212 168.623 107.838C168.623 106.464 168.609 105.257 168.581 104.22C168.581 103.154 168.581 102.41 168.581 101.99C168.581 101.737 168.581 101.303 168.581 100.685C168.581 100.068 168.567 99.3812 168.539 98.6239C168.539 97.8666 168.525 97.0672 168.497 96.2257C168.469 95.3562 168.413 94.5568 168.329 93.8276C168.273 93.0983 168.189 92.4672 168.076 91.9343C167.964 91.3733 167.824 90.9947 167.656 90.7983C167.572 90.7142 167.473 90.63 167.361 90.5459C167.277 90.4617 167.193 90.3776 167.109 90.2934L197.654 90.3776L197.191 95.0477C197.051 94.9916 196.7 94.9495 196.139 94.9215C195.606 94.8934 194.947 94.8654 194.162 94.8373C193.376 94.8093 192.535 94.7953 191.637 94.7953C190.74 94.7672 189.884 94.7532 189.071 94.7532C188.286 94.7532 187.584 94.7532 186.967 94.7532C186.35 94.7532 185.929 94.7532 185.705 94.7532C182.115 94.7532 178.511 94.7953 174.892 94.8794C174.752 96.2818 174.668 97.6843 174.64 99.0867C174.612 100.461 174.598 101.864 174.598 103.294L193.951 103.084L193.909 107.585C193.797 107.557 193.517 107.529 193.068 107.501C192.647 107.445 192.142 107.417 191.553 107.417C190.964 107.389 190.319 107.375 189.618 107.375C188.945 107.347 188.3 107.333 187.682 107.333C187.093 107.333 186.561 107.333 186.084 107.333C185.607 107.333 185.284 107.333 185.116 107.333C181.61 107.333 178.09 107.375 174.556 107.459C174.556 108.721 174.542 109.984 174.514 111.246C174.514 112.48 174.514 113.728 174.514 114.99V116.673C176.505 116.757 178.482 116.8 180.446 116.8C182.437 116.8 184.429 116.8 186.42 116.8C186.617 116.8 187.023 116.8 187.64 116.8C188.257 116.8 188.973 116.8 189.786 116.8C190.6 116.8 191.441 116.8 192.311 116.8C193.208 116.771 194.05 116.757 194.835 116.757C195.62 116.729 196.279 116.701 196.812 116.673C197.373 116.645 197.724 116.603 197.864 116.547L198.327 121.217L167.782 121.301Z" fill="#573E2C"/>
<path d="M221.299 109.016C221.551 109.24 222.056 109.703 222.814 110.404C223.571 111.106 224.44 111.905 225.422 112.803C226.432 113.7 227.484 114.64 228.578 115.621C229.699 116.603 230.737 117.515 231.691 118.356C232.673 119.17 233.514 119.857 234.215 120.418C234.917 120.979 235.365 121.273 235.562 121.301H226.853C226.684 121.077 226.446 120.81 226.137 120.502C225.829 120.165 225.506 119.843 225.17 119.534C224.833 119.198 224.496 118.875 224.16 118.567C223.851 118.258 223.585 118.006 223.36 117.809C221.986 116.463 220.598 115.159 219.195 113.896C217.821 112.606 216.404 111.33 214.946 110.068C213.796 110.208 212.66 110.306 211.538 110.362C210.416 110.39 209.28 110.432 208.13 110.489C208.102 111.246 208.088 112.003 208.088 112.76C208.088 113.49 208.088 114.233 208.088 114.99C208.088 115.243 208.088 115.678 208.088 116.295C208.088 116.912 208.102 117.571 208.13 118.272C208.158 118.973 208.214 119.618 208.298 120.207C208.41 120.768 208.551 121.133 208.719 121.301H201.356C201.525 121.133 201.665 120.6 201.777 119.703C201.889 118.777 201.973 117.669 202.029 116.379C202.085 115.089 202.128 113.7 202.156 112.214C202.184 110.699 202.198 109.254 202.198 107.88C202.198 106.506 202.184 105.285 202.156 104.22C202.156 103.154 202.156 102.41 202.156 101.99C202.156 101.737 202.156 101.289 202.156 100.643C202.184 99.9983 202.184 99.255 202.156 98.4135C202.156 97.5721 202.128 96.6885 202.071 95.7629C202.043 94.8373 201.973 93.9818 201.861 93.1965C201.749 92.4111 201.595 91.752 201.398 91.219C201.202 90.6861 200.964 90.3776 200.683 90.2934C200.767 90.2934 201.034 90.2934 201.482 90.2934C201.959 90.2934 202.52 90.2934 203.165 90.2934C203.839 90.2934 204.54 90.2934 205.269 90.2934C206.026 90.2934 206.728 90.2934 207.373 90.2934C208.046 90.2934 208.607 90.3075 209.056 90.3355C209.504 90.3355 209.771 90.3355 209.855 90.3355C210.865 90.3355 212.141 90.3636 213.684 90.4197C215.254 90.4477 216.909 90.5599 218.648 90.7562C220.415 90.9526 222.182 91.2471 223.95 91.6398C225.717 92.0044 227.301 92.5373 228.704 93.2386C230.134 93.9398 231.298 94.8233 232.196 95.8892C233.093 96.927 233.542 98.2032 233.542 99.7178C233.542 101.176 233.121 102.439 232.28 103.504C231.439 104.542 230.387 105.426 229.124 106.155C227.89 106.884 226.558 107.487 225.128 107.964C223.725 108.413 222.449 108.764 221.299 109.016ZM225.927 99.6337C225.927 98.7922 225.576 98.091 224.875 97.53C224.174 96.941 223.262 96.4782 222.14 96.1416C221.046 95.777 219.812 95.5105 218.438 95.3422C217.092 95.1739 215.773 95.0617 214.483 95.0056C213.193 94.9215 212.001 94.8794 210.907 94.8794C209.841 94.8794 209.028 94.8794 208.467 94.8794C208.326 96.4501 208.228 98.0209 208.172 99.5916C208.144 101.134 208.13 102.691 208.13 104.262V105.398C209.224 105.37 210.318 105.342 211.412 105.314C212.506 105.285 213.585 105.229 214.651 105.145C215.184 105.117 215.829 105.061 216.587 104.977C217.344 104.893 218.143 104.781 218.985 104.64C219.826 104.472 220.654 104.262 221.467 104.009C222.309 103.757 223.052 103.434 223.697 103.042C224.37 102.649 224.903 102.172 225.296 101.611C225.717 101.05 225.927 100.391 225.927 99.6337Z" fill="#573E2C"/>
</g>
<defs>
<linearGradient id="paint0_linear_152:3787" x1="142" y1="-60" x2="142" y2="211" gradientUnits="userSpaceOnUse">
<stop stop-color="white"/>
<stop offset="1" stop-color="#ECDBC6"/>
</linearGradient>
<linearGradient id="paint1_linear_152:3787" x1="142" y1="-42" x2="142" y2="201" gradientUnits="userSpaceOnUse">
<stop stop-opacity="0"/>
<stop offset="1"/>
</linearGradient>
<linearGradient id="paint2_linear_152:3787" x1="139.903" y1="27" x2="139.903" y2="125.02" gradientUnits="userSpaceOnUse">
<stop stop-color="#C4C4C4"/>
<stop offset="1" stop-color="#C4C4C4" stop-opacity="0"/>
</linearGradient>
<clipPath id="clip0_152:3787">
<rect width="284" height="211" fill="white"/>
</clipPath>
</defs>
</svg>
