<svg width="48" height="48" viewBox="0 0 48 48" fill="none" xmlns="http://www.w3.org/2000/svg">
<g opacity="0.8" filter="url(#filter0_di_810_7607)">
<path fill-rule="evenodd" clip-rule="evenodd" d="M24 42C35.0457 42 44 33.0457 44 22C44 10.9543 35.0457 2 24 2C12.9543 2 4 10.9543 4 22C4 33.0457 12.9543 42 24 42ZM34.0012 19.7446C35.5383 19.7446 36.7997 21.0024 36.7997 22.5863C36.7997 23.7508 36.1117 24.7524 35.1484 25.1953C35.1941 25.4745 35.2172 25.7775 35.2172 26.0571C35.2172 30.4593 30.1935 34 23.9999 34C17.8063 34 12.7826 30.4359 12.7826 26.0571C12.7826 25.7541 12.8053 25.4745 12.8515 25.1953C11.8877 24.7524 11.1997 23.7742 11.1997 22.6098C11.1997 21.0489 12.4384 19.768 13.9983 19.768C14.7244 19.767 15.4229 20.0507 15.948 20.56C17.8978 19.1389 20.5818 18.2306 23.5638 18.1373L24.9864 11.3358C25.009 11.196 25.0779 11.0797 25.1925 11.0098C25.2844 10.9399 25.4221 10.9164 25.5598 10.9399L30.2162 11.9415C30.5373 11.2659 31.2257 10.8 32.0056 10.8C33.1066 10.8 34.0012 11.7084 34.0012 12.8264C34.0012 13.9448 33.1066 14.8531 32.0056 14.8531C30.9272 14.8531 30.0558 13.9913 30.0096 12.9197L25.8347 12.0114L24.5502 18.1143C27.4865 18.2306 30.1247 19.1389 32.0514 20.5365C32.5559 20.0472 33.2443 19.7446 34.0012 19.7446ZM19.5727 22.5863C18.4712 22.5863 17.5767 23.4946 17.5767 24.6126C17.5767 25.7306 18.4712 26.6624 19.5727 26.6394C20.6737 26.6394 21.5682 25.7306 21.5682 24.6126C21.5682 23.4946 20.6737 22.5863 19.5727 22.5863ZM23.9999 31.4844C24.7567 31.4844 27.3719 31.3911 28.7483 29.9934C28.9317 29.7837 28.9317 29.4577 28.7483 29.2479C28.5417 29.0387 28.2206 29.0387 28.0141 29.2479C27.1653 30.1332 25.3075 30.4359 23.9999 30.4359C22.6924 30.4359 20.8572 30.1332 19.9853 29.2479C19.7788 29.0387 19.4577 29.0387 19.2512 29.2479C19.0451 29.4577 19.0451 29.7837 19.2512 29.9934C20.6049 31.3676 23.22 31.4844 23.9999 31.4844ZM26.3854 24.6361C26.3854 25.7541 27.2799 26.6624 28.381 26.6624C29.4824 26.6624 30.3769 25.7306 30.3769 24.6361C30.3769 23.5181 29.4824 22.6098 28.381 22.6098C27.2799 22.6098 26.3854 23.5181 26.3854 24.6361Z" fill="#503614"/>
</g>
<defs>
<filter id="filter0_di_810_7607" x="0" y="0" width="48" height="48" filterUnits="userSpaceOnUse" color-interpolation-filters="sRGB">
<feFlood flood-opacity="0" result="BackgroundImageFix"/>
<feColorMatrix in="SourceAlpha" type="matrix" values="0 0 0 0 0 0 0 0 0 0 0 0 0 0 0 0 0 0 127 0" result="hardAlpha"/>
<feOffset dy="2"/>
<feGaussianBlur stdDeviation="2"/>
<feComposite in2="hardAlpha" operator="out"/>
<feColorMatrix type="matrix" values="0 0 0 0 1 0 0 0 0 1 0 0 0 0 1 0 0 0 0.45 0"/>
<feBlend mode="normal" in2="BackgroundImageFix" result="effect1_dropShadow_810_7607"/>
<feBlend mode="normal" in="SourceGraphic" in2="effect1_dropShadow_810_7607" result="shape"/>
<feColorMatrix in="SourceAlpha" type="matrix" values="0 0 0 0 0 0 0 0 0 0 0 0 0 0 0 0 0 0 127 0" result="hardAlpha"/>
<feOffset dy="4"/>
<feGaussianBlur stdDeviation="2"/>
<feComposite in2="hardAlpha" operator="arithmetic" k2="-1" k3="1"/>
<feColorMatrix type="matrix" values="0 0 0 0 0 0 0 0 0 0 0 0 0 0 0 0 0 0 0.65 0"/>
<feBlend mode="normal" in2="shape" result="effect2_innerShadow_810_7607"/>
</filter>
</defs>
</svg>
