<svg width="284" height="211" viewBox="0 0 284 211" fill="none" xmlns="http://www.w3.org/2000/svg">
<path d="M0 -60H284V159.675L142 211L0 159.675V-60Z" fill="url(#paint0_linear_152:3786)"/>
<path opacity="0.1" fill-rule="evenodd" clip-rule="evenodd" d="M272 -38H12V152.123L142 196.771L272 152.123V-38ZM276 154.978L142 201L8 154.978V-42H276V154.978Z" fill="url(#paint1_linear_152:3786)"/>
<mask id="mask0_152:3786" style="mask-type:alpha" maskUnits="userSpaceOnUse" x="67" y="27" width="146" height="139">
<rect x="67.6582" y="27" width="144.492" height="138.154" fill="url(#paint2_linear_152:3786)"/>
</mask>
<g mask="url(#mask0_152:3786)">
<path fill-rule="evenodd" clip-rule="evenodd" d="M98.6895 42.0004L114.656 38.084L118.237 50.8876L127.19 49.8332L130.771 35.8246H139.874H148.976L152.557 49.8332L161.51 50.8876L165.091 38.084L181.058 42.0004V67.1557L171.358 76.9466V142.825C171.358 154.273 150.368 166.474 139.874 171.144C129.379 166.474 108.389 154.273 108.389 142.825V76.9466L98.6895 67.1557V42.0004Z" fill="#D1AA76"/>
<path fill-rule="evenodd" clip-rule="evenodd" d="M139.874 36.3362H139.874H130.771L127.19 50.2135L118.237 51.258L114.656 38.5745L98.6895 42.4541V67.3735L108.389 77.0727V142.665C108.389 154.005 129.379 166.092 139.874 170.718C147.598 167.313 161.007 159.867 167.549 151.652H139.874V36.3362Z" fill="#C19963"/>
<path d="M139.874 59.8992L98.6895 67.3184L108.38 77.0088L139.874 72.7692V59.8992Z" fill="#B38A54"/>
<path d="M139.874 59.8992L181.059 67.3184L171.368 77.0088L139.874 72.7692V59.8992Z" fill="#C19963"/>
</g>
<path d="M105.032 133.036C105.696 133.036 106.396 133.134 107.132 133.33C107.868 133.514 108.537 133.801 109.141 134.194C109.744 134.573 110.245 135.057 110.643 135.646C111.041 136.234 111.24 136.926 111.24 137.722C111.24 138.249 111.144 138.727 110.95 139.156C110.757 139.573 110.498 139.946 110.172 140.277C109.858 140.596 109.49 140.878 109.068 141.123C108.646 141.355 108.199 141.551 107.729 141.711C107.27 141.858 106.8 141.968 106.317 142.042C105.835 142.115 105.382 142.152 104.96 142.152C104.272 142.152 103.566 142.072 102.842 141.913C102.118 141.754 101.455 141.496 100.851 141.141C100.26 140.786 99.7714 140.326 99.3853 139.763C99.0112 139.187 98.8242 138.482 98.8242 137.649C98.8242 136.828 99.0173 136.13 99.4034 135.554C99.8016 134.966 100.302 134.488 100.906 134.12C101.509 133.74 102.173 133.465 102.896 133.293C103.632 133.121 104.344 133.036 105.032 133.036ZM101.539 137.631C101.539 138.108 101.642 138.513 101.847 138.844C102.064 139.174 102.335 139.444 102.661 139.652C102.999 139.861 103.373 140.014 103.783 140.112C104.194 140.198 104.598 140.24 104.996 140.24C105.37 140.24 105.762 140.191 106.172 140.093C106.583 139.995 106.963 139.842 107.313 139.634C107.662 139.426 107.952 139.162 108.181 138.844C108.411 138.513 108.525 138.121 108.525 137.667C108.525 137.214 108.417 136.822 108.199 136.491C107.982 136.148 107.705 135.866 107.367 135.646C107.029 135.413 106.649 135.241 106.227 135.131C105.816 135.021 105.418 134.966 105.032 134.966C104.634 134.966 104.23 135.021 103.82 135.131C103.409 135.229 103.035 135.388 102.697 135.609C102.36 135.817 102.082 136.093 101.865 136.436C101.648 136.767 101.539 137.165 101.539 137.631Z" fill="#573E2C"/>
<path d="M120.434 126.438C121.013 126.438 121.55 126.499 122.045 126.621C122.552 126.732 122.986 126.928 123.348 127.209C123.71 127.479 123.994 127.84 124.199 128.294C124.416 128.735 124.525 129.28 124.525 129.93C124.525 130.224 124.506 130.518 124.47 130.812C124.434 131.106 124.386 131.4 124.326 131.694C124.301 131.829 124.271 131.97 124.235 132.117C124.199 132.252 124.181 132.386 124.181 132.521V132.576L121.321 132.025C121.393 131.915 121.454 131.78 121.502 131.62C121.55 131.461 121.587 131.296 121.611 131.124C121.647 130.94 121.671 130.763 121.683 130.591C121.707 130.42 121.719 130.267 121.719 130.132C121.719 129.47 121.562 128.943 121.249 128.551C120.947 128.147 120.452 127.945 119.765 127.945C119.234 127.945 118.763 128.073 118.353 128.331C117.943 128.588 117.593 128.919 117.303 129.323C117.026 129.727 116.808 130.181 116.652 130.683C116.507 131.186 116.434 131.676 116.434 132.153C116.434 132.435 116.428 132.717 116.416 132.999C116.416 133.268 116.416 133.544 116.416 133.826C116.802 133.814 117.195 133.808 117.593 133.808C117.991 133.795 118.389 133.777 118.787 133.752C118.992 133.74 119.216 133.728 119.457 133.716C119.698 133.703 119.921 133.667 120.127 133.605L120.072 135.462C119.976 135.425 119.759 135.394 119.421 135.37C119.083 135.345 118.715 135.327 118.317 135.315C117.919 135.302 117.538 135.296 117.176 135.296C116.814 135.296 116.555 135.296 116.398 135.296V137.134C116.398 137.232 116.398 137.41 116.398 137.667C116.398 137.912 116.398 138.2 116.398 138.531C116.41 138.85 116.416 139.187 116.416 139.542C116.428 139.897 116.44 140.228 116.453 140.534C116.465 140.841 116.483 141.104 116.507 141.325C116.531 141.533 116.561 141.662 116.597 141.711H113.683C113.732 141.662 113.768 141.521 113.792 141.288C113.816 141.043 113.834 140.78 113.846 140.498C113.858 140.204 113.864 139.928 113.864 139.671C113.864 139.401 113.864 139.217 113.864 139.119C113.864 137.857 113.846 136.589 113.81 135.315C113.472 135.315 113.128 135.315 112.778 135.315C112.429 135.302 112.091 135.333 111.765 135.407L111.711 133.734C111.831 133.771 111.982 133.801 112.163 133.826C112.344 133.838 112.531 133.851 112.724 133.863C112.929 133.863 113.122 133.863 113.303 133.863C113.496 133.863 113.659 133.863 113.792 133.863C113.78 133.679 113.768 133.501 113.756 133.33C113.744 133.146 113.738 132.968 113.738 132.797C113.738 131.853 113.913 130.953 114.263 130.095C114.54 129.433 114.89 128.87 115.312 128.404C115.735 127.938 116.211 127.559 116.742 127.265C117.273 126.971 117.846 126.762 118.461 126.64C119.089 126.505 119.746 126.438 120.434 126.438Z" fill="#573E2C"/>
<path d="M136.995 135.388C137.369 135.523 137.749 135.676 138.135 135.848C138.521 136.019 138.865 136.221 139.167 136.454C139.468 136.687 139.716 136.95 139.909 137.245C140.102 137.526 140.198 137.851 140.198 138.219C140.198 138.77 140.035 139.248 139.71 139.652C139.384 140.044 138.961 140.381 138.443 140.663C137.924 140.933 137.339 141.153 136.687 141.325C136.035 141.496 135.378 141.631 134.714 141.729C134.063 141.827 133.435 141.888 132.832 141.913C132.241 141.95 131.74 141.974 131.33 141.986C130.171 142.011 129.013 142.011 127.855 141.986C127.975 141.705 128.066 141.288 128.126 140.737C128.199 140.185 128.253 139.603 128.289 138.991C128.313 138.353 128.325 137.741 128.325 137.153C128.325 136.552 128.325 136.087 128.325 135.756C128.325 135.633 128.325 135.388 128.325 135.021C128.325 134.641 128.319 134.206 128.307 133.716C128.295 133.213 128.277 132.68 128.253 132.117C128.241 131.553 128.217 131.02 128.181 130.518C128.144 130.003 128.102 129.544 128.054 129.139C128.006 128.735 127.945 128.447 127.873 128.275C128.537 128.275 129.158 128.275 129.737 128.275C130.328 128.275 130.907 128.282 131.475 128.294C132.054 128.294 132.633 128.312 133.212 128.349C133.803 128.373 134.425 128.422 135.076 128.496C135.426 128.533 135.818 128.582 136.253 128.643C136.687 128.704 137.121 128.79 137.556 128.9C138.002 128.998 138.431 129.133 138.841 129.305C139.263 129.464 139.637 129.672 139.963 129.93C140.289 130.175 140.548 130.469 140.741 130.812C140.934 131.143 141.031 131.541 141.031 132.006C141.031 132.472 140.904 132.889 140.651 133.256C140.409 133.612 140.09 133.924 139.691 134.194C139.305 134.463 138.871 134.696 138.388 134.892C137.918 135.088 137.453 135.253 136.995 135.388ZM134.931 130.132C134.557 130.083 134.177 130.046 133.791 130.021C133.405 129.985 133.037 129.966 132.687 129.966C132.337 129.954 132.018 129.948 131.728 129.948C131.438 129.948 131.197 129.948 131.004 129.948C130.968 130.708 130.938 131.455 130.913 132.19C130.901 132.913 130.889 133.661 130.877 134.433C131.131 134.433 131.42 134.433 131.746 134.433C132.072 134.42 132.416 134.408 132.778 134.396C133.152 134.371 133.532 134.341 133.918 134.304C134.304 134.255 134.678 134.194 135.04 134.12C135.402 134.047 135.752 133.955 136.09 133.844C136.428 133.734 136.723 133.593 136.977 133.422C137.242 133.25 137.453 133.048 137.61 132.815C137.767 132.582 137.845 132.307 137.845 131.988C137.845 131.706 137.761 131.461 137.592 131.253C137.435 131.045 137.218 130.867 136.94 130.72C136.675 130.573 136.367 130.456 136.017 130.371C135.667 130.273 135.305 130.193 134.931 130.132ZM134.461 136.583C133.785 136.473 133.116 136.411 132.452 136.399C131.788 136.375 131.263 136.356 130.877 136.344C130.877 137.018 130.883 137.673 130.895 138.311C130.907 138.948 130.932 139.603 130.968 140.277C131.149 140.277 131.366 140.277 131.619 140.277C131.885 140.277 132.174 140.271 132.488 140.259C132.802 140.234 133.128 140.21 133.465 140.185C133.815 140.149 134.153 140.099 134.479 140.038C134.805 139.977 135.118 139.903 135.42 139.818C135.734 139.72 136.005 139.603 136.235 139.468C136.476 139.321 136.669 139.15 136.814 138.954C136.959 138.758 137.031 138.525 137.031 138.255C137.031 138.01 136.959 137.796 136.814 137.612C136.669 137.428 136.476 137.269 136.235 137.134C135.993 137 135.716 136.889 135.402 136.803C135.1 136.718 134.787 136.644 134.461 136.583Z" fill="#573E2C"/>
<path d="M148.777 142.115C148.982 142.054 149.109 141.919 149.157 141.711C149.205 141.49 149.236 141.294 149.248 141.123C148.705 141.294 148.156 141.423 147.601 141.509C147.046 141.594 146.491 141.637 145.936 141.637C145.574 141.637 145.139 141.607 144.632 141.545C144.138 141.484 143.661 141.368 143.203 141.196C142.756 141.025 142.37 140.786 142.044 140.479C141.731 140.173 141.574 139.769 141.574 139.266C141.574 138.837 141.725 138.47 142.026 138.164C142.34 137.857 142.738 137.606 143.221 137.41C143.703 137.202 144.246 137.042 144.85 136.932C145.453 136.822 146.044 136.736 146.623 136.675C147.202 136.614 147.745 136.577 148.252 136.565C148.759 136.552 149.157 136.54 149.447 136.528C149.447 136.356 149.447 136.191 149.447 136.032C149.459 135.872 149.465 135.707 149.465 135.535C149.465 135.229 149.411 134.966 149.302 134.745C149.193 134.512 149.043 134.322 148.849 134.175C148.668 134.028 148.451 133.924 148.198 133.863C147.945 133.789 147.679 133.752 147.402 133.752C147.136 133.752 146.847 133.789 146.533 133.863C146.231 133.936 145.942 134.047 145.664 134.194C145.387 134.341 145.145 134.531 144.94 134.763C144.735 134.984 144.608 135.241 144.56 135.535L142.28 135.223C142.497 134.659 142.798 134.181 143.185 133.789C143.571 133.397 144.005 133.079 144.488 132.834C144.982 132.588 145.507 132.411 146.062 132.301C146.617 132.178 147.172 132.117 147.727 132.117C148.258 132.117 148.771 132.184 149.266 132.319C149.773 132.454 150.219 132.662 150.605 132.944C151.003 133.213 151.317 133.563 151.546 133.991C151.788 134.42 151.908 134.929 151.908 135.517C151.908 136.142 151.896 136.767 151.872 137.392C151.86 138.004 151.854 138.623 151.854 139.248C151.854 139.358 151.854 139.56 151.854 139.854C151.854 140.136 151.86 140.436 151.872 140.755C151.896 141.061 151.926 141.349 151.962 141.619C151.999 141.876 152.053 142.042 152.125 142.115H148.777ZM144.035 139.266C144.035 139.45 144.132 139.591 144.325 139.689C144.518 139.787 144.741 139.867 144.994 139.928C145.26 139.977 145.519 140.008 145.773 140.02C146.026 140.032 146.207 140.038 146.316 140.038C146.822 140.038 147.335 140.001 147.854 139.928C148.373 139.854 148.874 139.738 149.356 139.579C149.368 139.358 149.374 139.138 149.374 138.917C149.386 138.697 149.392 138.482 149.392 138.274L148.922 138.255C148.813 138.255 148.614 138.262 148.325 138.274C148.047 138.274 147.727 138.286 147.365 138.311C147.003 138.323 146.623 138.353 146.225 138.402C145.839 138.439 145.483 138.494 145.157 138.568C144.832 138.641 144.56 138.739 144.343 138.862C144.138 138.972 144.035 139.107 144.035 139.266Z" fill="#573E2C"/>
<path d="M160.161 132.65C160.813 132.65 161.452 132.742 162.08 132.925C162.719 133.097 163.292 133.36 163.799 133.716C164.306 134.071 164.716 134.524 165.03 135.076C165.344 135.627 165.5 136.27 165.5 137.006C165.5 137.508 165.398 137.98 165.193 138.421C164.988 138.85 164.716 139.242 164.378 139.597C164.04 139.952 163.66 140.265 163.238 140.534C162.828 140.804 162.418 141.018 162.007 141.178C161.151 141.509 160.27 141.674 159.365 141.674C158.858 141.674 158.357 141.619 157.863 141.509C157.38 141.398 156.916 141.215 156.469 140.957C156.481 141.092 156.493 141.251 156.505 141.435C156.517 141.607 156.554 141.76 156.614 141.895H153.428C153.489 141.797 153.543 141.509 153.591 141.031C153.652 140.553 153.706 139.977 153.754 139.303C153.803 138.629 153.845 137.9 153.881 137.116C153.917 136.332 153.947 135.578 153.971 134.855C154.008 134.132 154.032 133.483 154.044 132.907C154.056 132.331 154.062 131.915 154.062 131.657C154.062 131.522 154.062 131.29 154.062 130.959C154.062 130.616 154.05 130.26 154.026 129.893C154.002 129.525 153.965 129.188 153.917 128.882C153.869 128.576 153.803 128.392 153.718 128.331L157.157 128.349C157.072 128.386 157 128.527 156.94 128.772C156.879 129.017 156.825 129.323 156.777 129.691C156.729 130.046 156.686 130.438 156.65 130.867C156.626 131.296 156.602 131.706 156.578 132.098C156.554 132.478 156.535 132.821 156.523 133.128C156.511 133.434 156.505 133.648 156.505 133.771C157.036 133.403 157.615 133.128 158.243 132.944C158.87 132.748 159.51 132.65 160.161 132.65ZM159.347 139.836C159.769 139.836 160.185 139.775 160.596 139.652C161.018 139.53 161.398 139.346 161.736 139.101C162.074 138.856 162.345 138.556 162.55 138.2C162.755 137.833 162.858 137.41 162.858 136.932C162.858 136.491 162.761 136.111 162.568 135.793C162.387 135.462 162.146 135.192 161.844 134.984C161.543 134.763 161.199 134.604 160.813 134.506C160.439 134.408 160.059 134.359 159.673 134.359C159.323 134.359 158.961 134.414 158.587 134.524C158.213 134.635 157.863 134.794 157.537 135.002C157.223 135.211 156.964 135.468 156.759 135.774C156.554 136.081 156.445 136.436 156.433 136.84V137.557C156.433 137.949 156.517 138.292 156.686 138.586C156.867 138.868 157.097 139.101 157.374 139.285C157.664 139.468 157.977 139.609 158.315 139.707C158.665 139.793 159.009 139.836 159.347 139.836Z" fill="#573E2C"/>
<path d="M171.907 142.17C171.316 142.17 170.689 142.091 170.025 141.931C169.362 141.772 168.746 141.527 168.179 141.196C167.624 140.853 167.159 140.424 166.785 139.91C166.423 139.395 166.242 138.782 166.242 138.072C166.242 137.202 166.411 136.424 166.749 135.737C167.087 135.051 167.54 134.475 168.107 134.01C168.674 133.532 169.331 133.17 170.079 132.925C170.828 132.668 171.612 132.539 172.432 132.539C173.084 132.539 173.663 132.65 174.17 132.87C174.677 133.079 175.099 133.379 175.437 133.771C175.775 134.151 176.028 134.604 176.197 135.131C176.378 135.658 176.468 136.24 176.468 136.877C176.468 137.49 176.378 138.078 176.197 138.641H168.65C168.77 139.009 168.957 139.309 169.211 139.542C169.476 139.775 169.772 139.959 170.098 140.093C170.435 140.216 170.785 140.302 171.147 140.351C171.521 140.4 171.871 140.424 172.197 140.424C172.402 140.424 172.674 140.412 173.011 140.387C173.361 140.351 173.717 140.302 174.079 140.24C174.441 140.167 174.779 140.081 175.093 139.983C175.419 139.885 175.66 139.763 175.817 139.616L176.704 141.196C175.907 141.502 175.123 141.741 174.351 141.913C173.579 142.084 172.764 142.17 171.907 142.17ZM171.907 134.267C171.545 134.267 171.183 134.341 170.821 134.488C170.472 134.635 170.152 134.831 169.862 135.076C169.573 135.309 169.319 135.59 169.102 135.921C168.885 136.24 168.728 136.571 168.632 136.914H173.808C173.844 136.546 173.844 136.203 173.808 135.884C173.784 135.554 173.705 135.272 173.573 135.039C173.44 134.794 173.241 134.604 172.975 134.469C172.71 134.334 172.354 134.267 171.907 134.267Z" fill="#573E2C"/>
<path d="M178.369 142.06C178.429 141.962 178.489 141.668 178.55 141.178C178.61 140.675 178.658 140.081 178.694 139.395C178.743 138.697 178.785 137.949 178.821 137.153C178.857 136.344 178.888 135.578 178.912 134.855C178.948 134.132 178.972 133.495 178.984 132.944C178.996 132.392 179.002 132.019 179.002 131.823C179.002 131.712 179.002 131.492 179.002 131.161C179.002 130.818 178.99 130.456 178.966 130.077C178.954 129.697 178.924 129.354 178.875 129.047C178.827 128.729 178.755 128.539 178.658 128.478L182.115 128.514C182.055 128.527 182.007 128.6 181.97 128.735C181.946 128.87 181.928 128.962 181.916 129.011C181.783 129.623 181.699 130.248 181.663 130.885C181.626 131.51 181.59 132.135 181.554 132.76C181.494 133.801 181.446 134.831 181.409 135.848C181.385 136.865 181.373 137.894 181.373 138.935C181.373 139.033 181.373 139.242 181.373 139.56C181.373 139.867 181.379 140.191 181.391 140.534C181.403 140.878 181.421 141.202 181.446 141.509C181.47 141.803 181.512 141.986 181.572 142.06H178.369Z" fill="#573E2C"/>
<path fill-rule="evenodd" clip-rule="evenodd" d="M88.6445 137.234H60.8809V135.692H88.6445V137.234Z" fill="#573E2C"/>
<path fill-rule="evenodd" clip-rule="evenodd" d="M220.059 137.234L192.295 137.234L192.295 135.692L220.059 135.692L220.059 137.234Z" fill="#573E2C"/>
<path d="M80.481 94.627C80.3688 94.5709 79.9901 94.5288 79.345 94.5008C78.7279 94.4727 77.9706 94.4587 77.0731 94.4587C76.2036 94.4306 75.2499 94.4166 74.2121 94.4166C73.2023 94.3886 72.2347 94.3745 71.3091 94.3745C70.4115 94.3745 69.6121 94.3745 68.9109 94.3745C68.2377 94.3745 67.7889 94.3745 67.5645 94.3745C67.3402 96.4782 67.2139 98.5819 67.1859 100.686C67.1859 102.789 67.1859 104.893 67.1859 106.996C67.1859 108.343 67.1719 109.675 67.1438 110.993C67.1158 112.312 67.1017 113.644 67.1017 114.99C67.1017 115.215 67.1017 115.65 67.1017 116.295C67.1017 116.912 67.1158 117.571 67.1438 118.272C67.1719 118.973 67.228 119.618 67.3121 120.207C67.4243 120.796 67.5645 121.161 67.7328 121.301H60.37C60.5664 121.133 60.7066 120.6 60.7908 119.703C60.903 118.777 60.9871 117.669 61.0432 116.379C61.1274 115.089 61.1694 113.686 61.1694 112.171C61.1975 110.657 61.2115 109.212 61.2115 107.838C61.2115 106.464 61.1975 105.257 61.1694 104.22C61.1694 103.154 61.1694 102.411 61.1694 101.99C61.1694 100.728 61.1554 99.4654 61.1274 98.2032C61.1274 96.941 61.0853 95.6788 61.0011 94.4166C59.178 94.4166 57.3688 94.4306 55.5737 94.4587C53.7786 94.4587 51.9694 94.4727 50.1463 94.5008C49.8658 94.5008 49.5152 94.5148 49.0944 94.5428C48.6457 94.5428 48.1829 94.5428 47.706 94.5428C47.2292 94.5428 46.7804 94.5569 46.3597 94.5849C45.9109 94.613 45.5603 94.655 45.3079 94.7111L45.1816 90.3355L80.5231 90.1252L80.481 94.627Z" fill="#573E2C"/>
<path d="M96.7633 90.041C99.0633 90.041 101.307 90.4197 103.495 91.177C105.683 91.9343 107.618 93.0282 109.301 94.4587C111.012 95.8611 112.372 97.5721 113.382 99.5916C114.42 101.583 114.939 103.827 114.939 106.323C114.939 108.792 114.392 110.979 113.298 112.887C112.232 114.794 110.83 116.407 109.091 117.725C107.352 119.015 105.388 119.997 103.2 120.67C101.013 121.343 98.8109 121.68 96.595 121.68C94.1828 121.68 91.8828 121.357 89.695 120.712C87.5353 120.039 85.6279 119.057 83.9731 117.767C82.3462 116.449 81.042 114.822 80.0603 112.887C79.0786 110.923 78.5877 108.637 78.5877 106.029C78.5877 103.448 79.0926 101.162 80.1023 99.1709C81.1401 97.1794 82.5005 95.5105 84.1834 94.1642C85.8664 92.8178 87.8017 91.7941 89.9895 91.0928C92.1773 90.3916 94.4352 90.041 96.7633 90.041ZM85.656 105.987C85.656 107.557 85.9225 109.044 86.4554 110.446C87.0164 111.849 87.7877 113.083 88.7694 114.149C89.7511 115.187 90.9011 116.014 92.2194 116.631C93.5657 117.248 95.0383 117.557 96.6371 117.557C98.1237 117.557 99.5401 117.248 100.886 116.631C102.261 115.986 103.453 115.145 104.463 114.107C105.5 113.041 106.328 111.835 106.945 110.489C107.562 109.114 107.871 107.684 107.871 106.197C107.871 104.15 107.576 102.382 106.987 100.896C106.398 99.3812 105.599 98.1331 104.589 97.1514C103.579 96.1416 102.401 95.3983 101.055 94.9215C99.7084 94.4166 98.2779 94.1642 96.7633 94.1642C95.1926 94.1642 93.734 94.5008 92.3877 95.1739C91.0413 95.8191 89.8633 96.6886 88.8535 97.7825C87.8718 98.8764 87.0865 100.139 86.4975 101.569C85.9365 102.971 85.656 104.444 85.656 105.987Z" fill="#573E2C"/>
<path d="M169.297 90.2514C168.961 90.4477 168.512 90.9806 167.951 91.8502C167.39 92.7197 166.759 93.8136 166.058 95.1319C165.357 96.4221 164.599 97.8947 163.786 99.5495C163 101.176 162.201 102.859 161.388 104.598C160.574 106.337 159.775 108.076 158.989 109.815C158.204 111.554 157.475 113.181 156.802 114.696C156.157 116.182 155.582 117.515 155.077 118.693C154.6 119.843 154.235 120.712 153.983 121.301H146.662C145.708 118.412 144.727 115.551 143.717 112.718C142.735 109.886 141.711 107.039 140.646 104.178C139.524 107.011 138.458 109.857 137.448 112.718C136.466 115.551 135.513 118.412 134.587 121.301H127.266C127.014 120.712 126.635 119.843 126.13 118.693C125.625 117.515 125.036 116.182 124.363 114.696C123.718 113.181 123.003 111.568 122.218 109.857C121.46 108.118 120.675 106.379 119.861 104.64C119.048 102.901 118.235 101.218 117.421 99.5916C116.636 97.9367 115.893 96.4642 115.191 95.1739C114.49 93.8556 113.859 92.7617 113.298 91.8922C112.737 91.0227 112.288 90.4898 111.952 90.2935C113.494 90.2935 115.037 90.3075 116.58 90.3355C118.094 90.3355 119.623 90.3215 121.166 90.2935C121.082 90.3496 121.025 90.4477 120.997 90.588C120.997 90.7002 120.997 90.7983 120.997 90.8825C120.997 91.4996 121.18 92.4252 121.544 93.6593C121.937 94.8654 122.428 96.2398 123.017 97.7825C123.634 99.2971 124.307 100.91 125.036 102.621C125.794 104.304 126.523 105.917 127.224 107.459C127.954 109.002 128.613 110.404 129.202 111.667C129.819 112.901 130.296 113.84 130.632 114.486C131.894 111.428 133.1 108.357 134.25 105.271C135.428 102.186 136.48 99.0447 137.406 95.8471C137.266 95.5386 137.069 95.1038 136.817 94.5428C136.564 93.9819 136.284 93.4209 135.975 92.8599C135.695 92.2989 135.386 91.78 135.05 91.3032C134.713 90.7983 134.391 90.4477 134.082 90.2514H143.38C143.24 90.3636 143.156 90.5038 143.128 90.6721C143.128 90.8124 143.128 90.9526 143.128 91.0928C143.128 91.766 143.268 92.7056 143.549 93.9117C143.857 95.1178 144.236 96.4502 144.685 97.9087C145.133 99.3672 145.638 100.896 146.199 102.495C146.788 104.093 147.363 105.636 147.924 107.123C148.485 108.609 149.004 109.97 149.481 111.204C149.958 112.438 150.35 113.406 150.659 114.107C150.968 113.462 151.416 112.536 152.005 111.33C152.622 110.096 153.282 108.721 153.983 107.207C154.684 105.664 155.399 104.065 156.128 102.411C156.886 100.728 157.559 99.1428 158.148 97.6563C158.765 96.1416 159.27 94.7813 159.663 93.5752C160.055 92.3691 160.252 91.4715 160.252 90.8825C160.252 90.7703 160.238 90.6581 160.21 90.5459C160.21 90.4056 160.153 90.3075 160.041 90.2514C163.127 90.3075 166.212 90.3075 169.297 90.2514Z" fill="#573E2C"/>
<path d="M167.783 121.301C167.951 121.133 168.091 120.6 168.203 119.703C168.316 118.777 168.4 117.669 168.456 116.379C168.54 115.089 168.582 113.686 168.582 112.171C168.61 110.657 168.624 109.212 168.624 107.838C168.624 106.464 168.61 105.257 168.582 104.22C168.582 103.154 168.582 102.411 168.582 101.99C168.582 101.737 168.582 101.303 168.582 100.686C168.582 100.068 168.568 99.3812 168.54 98.6239C168.54 97.8666 168.526 97.0672 168.498 96.2258C168.47 95.3563 168.414 94.5569 168.33 93.8276C168.274 93.0983 168.189 92.4672 168.077 91.9343C167.965 91.3733 167.825 90.9947 167.657 90.7983C167.572 90.7142 167.474 90.63 167.362 90.5459C167.278 90.4617 167.194 90.3776 167.11 90.2935L197.655 90.3776L197.192 95.0477C197.052 94.9916 196.701 94.9495 196.14 94.9215C195.607 94.8934 194.948 94.8654 194.163 94.8374C193.377 94.8093 192.536 94.7953 191.638 94.7953C190.741 94.7672 189.885 94.7532 189.072 94.7532C188.286 94.7532 187.585 94.7532 186.968 94.7532C186.351 94.7532 185.93 94.7532 185.706 94.7532C182.116 94.7532 178.511 94.7953 174.893 94.8794C174.753 96.2819 174.669 97.6843 174.641 99.0867C174.613 100.461 174.599 101.864 174.599 103.294L193.952 103.084L193.91 107.586C193.798 107.557 193.517 107.529 193.069 107.501C192.648 107.445 192.143 107.417 191.554 107.417C190.965 107.389 190.32 107.375 189.619 107.375C188.946 107.347 188.3 107.333 187.683 107.333C187.094 107.333 186.561 107.333 186.085 107.333C185.608 107.333 185.285 107.333 185.117 107.333C181.611 107.333 178.091 107.375 174.557 107.459C174.557 108.721 174.542 109.984 174.514 111.246C174.514 112.48 174.514 113.728 174.514 114.99V116.673C176.506 116.757 178.483 116.8 180.447 116.8C182.438 116.8 184.43 116.8 186.421 116.8C186.617 116.8 187.024 116.8 187.641 116.8C188.258 116.8 188.974 116.8 189.787 116.8C190.6 116.8 191.442 116.8 192.311 116.8C193.209 116.771 194.05 116.757 194.836 116.757C195.621 116.729 196.28 116.701 196.813 116.673C197.374 116.645 197.725 116.603 197.865 116.547L198.328 121.217L167.783 121.301Z" fill="#573E2C"/>
<path d="M221.3 109.016C221.552 109.24 222.057 109.703 222.814 110.404C223.572 111.106 224.441 111.905 225.423 112.803C226.433 113.7 227.484 114.64 228.578 115.621C229.7 116.603 230.738 117.515 231.692 118.356C232.674 119.17 233.515 119.857 234.216 120.418C234.917 120.979 235.366 121.273 235.563 121.301H226.853C226.685 121.077 226.447 120.81 226.138 120.502C225.83 120.165 225.507 119.843 225.17 119.534C224.834 119.198 224.497 118.875 224.161 118.567C223.852 118.258 223.586 118.006 223.361 117.809C221.987 116.463 220.599 115.159 219.196 113.896C217.822 112.606 216.405 111.33 214.947 110.068C213.797 110.208 212.661 110.306 211.539 110.362C210.417 110.39 209.281 110.432 208.131 110.489C208.103 111.246 208.089 112.003 208.089 112.761C208.089 113.49 208.089 114.233 208.089 114.99C208.089 115.243 208.089 115.678 208.089 116.295C208.089 116.912 208.103 117.571 208.131 118.272C208.159 118.973 208.215 119.618 208.299 120.207C208.411 120.768 208.552 121.133 208.72 121.301H201.357C201.525 121.133 201.666 120.6 201.778 119.703C201.89 118.777 201.974 117.669 202.03 116.379C202.086 115.089 202.128 113.7 202.156 112.214C202.185 110.699 202.199 109.254 202.199 107.88C202.199 106.506 202.185 105.286 202.156 104.22C202.156 103.154 202.156 102.411 202.156 101.99C202.156 101.737 202.156 101.289 202.156 100.643C202.185 99.9983 202.185 99.255 202.156 98.4136C202.156 97.5721 202.128 96.6886 202.072 95.763C202.044 94.8374 201.974 93.9819 201.862 93.1965C201.75 92.4111 201.596 91.752 201.399 91.2191C201.203 90.6861 200.964 90.3776 200.684 90.2935C200.768 90.2935 201.035 90.2935 201.483 90.2935C201.96 90.2935 202.521 90.2935 203.166 90.2935C203.839 90.2935 204.541 90.2935 205.27 90.2935C206.027 90.2935 206.728 90.2935 207.374 90.2935C208.047 90.2935 208.608 90.3075 209.056 90.3355C209.505 90.3355 209.772 90.3355 209.856 90.3355C210.866 90.3355 212.142 90.3636 213.685 90.4197C215.255 90.4477 216.91 90.5599 218.649 90.7563C220.416 90.9526 222.183 91.2471 223.95 91.6398C225.717 92.0044 227.302 92.5374 228.705 93.2386C230.135 93.9398 231.299 94.8233 232.197 95.8892C233.094 96.927 233.543 98.2032 233.543 99.7178C233.543 101.176 233.122 102.439 232.281 103.504C231.439 104.542 230.388 105.426 229.125 106.155C227.891 106.884 226.559 107.487 225.128 107.964C223.726 108.413 222.45 108.764 221.3 109.016ZM225.928 99.6337C225.928 98.7922 225.577 98.091 224.876 97.53C224.175 96.941 223.263 96.4782 222.141 96.1416C221.047 95.777 219.813 95.5105 218.439 95.3422C217.092 95.1739 215.774 95.0617 214.484 95.0056C213.194 94.9215 212.002 94.8794 210.908 94.8794C209.842 94.8794 209.028 94.8794 208.467 94.8794C208.327 96.4502 208.229 98.0209 208.173 99.5916C208.145 101.134 208.131 102.691 208.131 104.262V105.398C209.225 105.37 210.319 105.342 211.413 105.314C212.506 105.286 213.586 105.229 214.652 105.145C215.185 105.117 215.83 105.061 216.588 104.977C217.345 104.893 218.144 104.781 218.986 104.64C219.827 104.472 220.655 104.262 221.468 104.009C222.31 103.757 223.053 103.434 223.698 103.042C224.371 102.649 224.904 102.172 225.297 101.611C225.717 101.05 225.928 100.391 225.928 99.6337Z" fill="#573E2C"/>
<defs>
<linearGradient id="paint0_linear_152:3786" x1="142" y1="-60" x2="142" y2="211" gradientUnits="userSpaceOnUse">
<stop stop-color="white"/>
<stop offset="1" stop-color="#ECDBC6"/>
</linearGradient>
<linearGradient id="paint1_linear_152:3786" x1="142" y1="-42" x2="142" y2="201" gradientUnits="userSpaceOnUse">
<stop stop-opacity="0"/>
<stop offset="1"/>
</linearGradient>
<linearGradient id="paint2_linear_152:3786" x1="139.904" y1="27" x2="139.904" y2="125.02" gradientUnits="userSpaceOnUse">
<stop stop-color="#C4C4C4"/>
<stop offset="1" stop-color="#C4C4C4" stop-opacity="0"/>
</linearGradient>
</defs>
</svg>
