<svg width="48" height="48" viewBox="0 0 48 48" fill="none" xmlns="http://www.w3.org/2000/svg">
<g opacity="0.8" filter="url(#filter0_di_810_7606)">
<path fill-rule="evenodd" clip-rule="evenodd" d="M24 42C35.0457 42 44 33.0457 44 22C44 10.9543 35.0457 2 24 2C12.9543 2 4 10.9543 4 22C4 33.0457 12.9543 42 24 42ZM27.3167 11.6C29.227 11.9309 31.0543 12.5119 32.7632 13.3115C35.7512 17.7737 37.2359 22.8064 36.6877 28.611C34.4015 30.3204 32.1839 31.3575 30.0036 32.0361C29.4637 31.296 28.9862 30.5071 28.573 29.68C29.3599 29.3809 30.1157 29.0119 30.83 28.5814C30.6432 28.4414 30.4584 28.295 30.2777 28.1444C25.9857 30.1762 21.2659 30.1762 16.922 28.1444C16.7434 28.295 16.5586 28.4414 16.3697 28.5814C17.0819 29.0098 17.8356 29.3788 18.6226 29.6778C18.2094 30.5071 17.7297 31.2939 17.1919 32.034C15.0138 31.3554 12.7982 30.3183 10.512 28.611C10.0448 23.6038 10.9792 18.5245 14.4261 13.3157C16.135 12.5141 17.9644 11.9309 19.8768 11.6C20.1135 12.0241 20.3938 12.5947 20.5828 13.0485C22.5762 12.7431 24.5883 12.7431 26.619 13.0485C26.808 12.5947 27.0821 12.0241 27.3167 11.6ZM16.841 22.8318C16.841 24.3143 17.9104 25.5316 19.2144 25.5316C20.5413 25.5316 21.5898 24.3143 21.5878 22.8318C21.6106 21.3472 20.5413 20.1299 19.2144 20.1299C17.8876 20.1299 16.841 21.3494 16.841 22.8318ZM25.6119 22.8318C25.6119 24.3143 26.6813 25.5316 27.9853 25.5316C29.3122 25.5316 30.3587 24.3143 30.3587 22.8318C30.3815 21.3472 29.3122 20.1299 27.9853 20.1299C26.6584 20.1299 25.6119 21.3494 25.6119 22.8318Z" fill="#503614"/>
</g>
<defs>
<filter id="filter0_di_810_7606" x="0" y="0" width="48" height="48" filterUnits="userSpaceOnUse" color-interpolation-filters="sRGB">
<feFlood flood-opacity="0" result="BackgroundImageFix"/>
<feColorMatrix in="SourceAlpha" type="matrix" values="0 0 0 0 0 0 0 0 0 0 0 0 0 0 0 0 0 0 127 0" result="hardAlpha"/>
<feOffset dy="2"/>
<feGaussianBlur stdDeviation="2"/>
<feComposite in2="hardAlpha" operator="out"/>
<feColorMatrix type="matrix" values="0 0 0 0 1 0 0 0 0 1 0 0 0 0 1 0 0 0 0.45 0"/>
<feBlend mode="normal" in2="BackgroundImageFix" result="effect1_dropShadow_810_7606"/>
<feBlend mode="normal" in="SourceGraphic" in2="effect1_dropShadow_810_7606" result="shape"/>
<feColorMatrix in="SourceAlpha" type="matrix" values="0 0 0 0 0 0 0 0 0 0 0 0 0 0 0 0 0 0 127 0" result="hardAlpha"/>
<feOffset dy="4"/>
<feGaussianBlur stdDeviation="2"/>
<feComposite in2="hardAlpha" operator="arithmetic" k2="-1" k3="1"/>
<feColorMatrix type="matrix" values="0 0 0 0 0 0 0 0 0 0 0 0 0 0 0 0 0 0 0.65 0"/>
<feBlend mode="normal" in2="shape" result="effect2_innerShadow_810_7606"/>
</filter>
</defs>
</svg>
