<svg width="159" height="158" viewBox="0 0 159 158" fill="none" xmlns="http://www.w3.org/2000/svg">
<path fill-rule="evenodd" clip-rule="evenodd" d="M75.6443 148.311C75.3817 148.337 75.1172 148.338 74.8544 148.314C74.4608 148.294 74.0393 148.26 73.5899 148.213C73.1409 148.168 72.7111 148.119 72.301 148.073C71.8909 148.027 71.6027 147.99 71.4361 147.969C71.3464 147.959 71.1737 147.938 70.9155 147.907C70.6573 147.877 70.3681 147.84 70.042 147.794C69.7158 147.748 69.3682 147.702 68.997 147.65C68.6257 147.598 68.2846 147.549 67.9719 147.5C67.6592 147.451 67.3899 147.399 67.1618 147.347C67.0167 147.324 66.8773 147.274 66.7504 147.2L66.4135 149.554C66.6177 149.52 66.825 149.509 67.0316 149.521C67.3495 149.527 67.7271 149.545 68.1648 149.579C68.6025 149.612 69.0695 149.646 69.5651 149.686C70.0606 149.726 70.5332 149.769 70.9822 149.815C71.4312 149.86 71.8327 149.903 72.1859 149.937C72.539 149.971 72.7862 149.998 72.9271 150.017C73.0422 150.029 73.2186 150.05 73.4557 150.078C73.6927 150.105 73.9457 150.139 74.2137 150.179C74.4817 150.219 74.7344 150.258 74.9684 150.307C75.1344 150.332 75.2961 150.38 75.4483 150.451L75.6443 148.311ZM47.2469 135.163L46.5805 137.214C46.7347 137.24 46.8854 137.284 47.0291 137.346C47.2592 137.435 47.532 137.542 47.8475 137.673C48.163 137.805 48.506 137.949 48.8747 138.102C49.2435 138.255 49.5908 138.405 49.9161 138.546C50.2414 138.687 50.5286 138.815 50.7761 138.922C51.0236 139.03 51.1899 139.103 51.2726 139.14C51.6744 139.317 52.0499 139.48 52.3984 139.633C52.747 139.786 53.0873 139.936 53.418 140.08C53.7488 140.223 54.0848 140.373 54.4248 140.53C54.7647 140.686 55.131 140.863 55.5224 141.062C55.189 141.889 54.8348 142.706 54.46 143.514C54.0851 144.323 53.7191 145.134 53.362 145.948C53.3054 146.077 53.198 146.322 53.0398 146.683C52.882 147.044 52.6964 147.451 52.4827 147.907C52.2689 148.363 52.0376 148.835 51.788 149.325C51.5384 149.815 51.2937 150.252 51.053 150.638C50.8556 150.969 50.6246 151.279 50.3636 151.563C50.1443 151.789 49.9574 151.872 49.8037 151.804L53.7755 153.54C53.716 153.469 53.6734 153.385 53.6508 153.295C53.6282 153.205 53.6261 153.111 53.6447 153.02C53.6697 152.709 53.7265 152.401 53.8144 152.101C53.9124 151.749 54.0373 151.376 54.1904 150.978C54.3436 150.58 54.4949 150.203 54.644 149.845C54.7932 149.487 54.9319 149.172 55.0593 148.896C55.1867 148.621 55.2713 148.437 55.3126 148.342C55.3904 148.164 55.5249 147.852 55.7154 147.399C55.9059 146.946 56.1283 146.432 56.3818 145.853C56.6354 145.275 56.9025 144.672 57.1864 144.041C57.4703 143.41 57.7448 142.832 58.0118 142.302C58.2789 141.772 58.5215 141.322 58.7365 140.961C58.8444 140.724 59.0078 140.516 59.2127 140.355L47.2469 135.163ZM34.9886 126.157L33.8728 128.003C34.0202 128.065 34.1594 128.145 34.2875 128.241C34.4967 128.382 34.7469 128.557 35.0413 128.768C35.3356 128.979 35.6459 129.203 35.9751 129.442C36.3044 129.68 36.6183 129.91 36.9191 130.133C37.2198 130.357 37.4826 130.556 37.7095 130.724C37.9365 130.893 38.0872 131.006 38.1591 131.061C38.8942 131.609 39.6255 132.155 40.353 132.699C41.0805 133.243 41.8001 133.805 42.5119 134.386L42.0485 135.004C41.7014 135.469 41.3531 135.93 41.0035 136.388C40.655 136.841 40.3064 137.303 39.9588 137.768C38.6333 136.825 37.3245 135.871 36.0327 134.906L35.6762 134.64C35.5004 134.508 35.3016 134.361 35.0793 134.196C34.8569 134.03 34.6198 133.85 34.3718 133.654C34.1237 133.458 33.8912 133.277 33.6781 133.112C33.4649 132.947 33.2842 132.794 33.1353 132.659C33.0397 132.575 32.9485 132.486 32.8621 132.393L31.6064 134.04L38.7959 139.29C38.4017 139.816 38.0085 140.334 37.6158 140.836C37.2232 141.338 36.8079 141.831 36.3699 142.308C35.0135 141.344 33.6738 140.367 32.3507 139.379C32.269 139.317 32.1139 139.201 31.8854 139.03C31.6585 138.861 31.3972 138.665 31.1026 138.445C30.808 138.224 30.4977 137.989 30.1706 137.738C29.8435 137.487 29.5397 137.245 29.2576 137.018C28.9755 136.792 28.7369 136.599 28.5443 136.437C28.4166 136.342 28.3008 136.232 28.1994 136.109L26.7425 137.701L37.9748 146.141C37.9671 146.086 37.9567 146.031 37.9441 145.973C37.9316 145.914 37.9209 145.856 37.9135 145.804C37.9235 145.619 37.9759 145.439 38.0666 145.278C38.1949 145.01 38.3373 144.75 38.493 144.497C38.6682 144.209 38.8682 143.903 39.0936 143.582C39.319 143.26 39.5331 142.954 39.7368 142.673C39.9404 142.391 40.127 142.134 40.2969 141.907C40.4669 141.681 40.5864 141.518 40.6559 141.427C40.772 141.27 40.9723 140.998 41.2565 140.606C41.5407 140.214 41.8727 139.767 42.2513 139.262C42.6298 138.757 43.0301 138.224 43.4525 137.67C43.8748 137.116 44.2767 136.611 44.6577 136.155C45.0387 135.699 45.3759 135.319 45.6684 135.016C45.8282 134.81 46.0341 134.644 46.2696 134.532L34.9886 126.157ZM23.8381 112.69C23.8004 112.859 23.7464 113.024 23.677 113.183C23.5909 113.394 23.4969 113.615 23.3946 113.847C23.2923 114.08 23.1915 114.303 23.0911 114.518C22.9906 114.732 22.9122 114.897 22.8543 115.011C22.7239 115.298 22.5086 115.76 22.2087 116.394C21.9092 117.028 21.5655 117.744 21.1799 118.549C20.7943 119.355 20.3858 120.19 19.9548 121.063C19.5239 121.935 19.1104 122.749 18.7107 123.506C18.3111 124.262 17.9481 124.911 17.6216 125.45C17.4214 125.821 17.1705 126.163 16.8762 126.466C16.853 126.483 16.8284 126.499 16.8027 126.512C16.7925 126.519 16.7799 126.523 16.7673 126.522C16.7547 126.521 16.743 126.515 16.7344 126.506L19.5894 130.02C19.5816 130.01 19.578 129.998 19.5793 129.985C19.5806 129.972 19.5868 129.961 19.5965 129.953C19.6149 129.929 19.6354 129.908 19.6578 129.888C20.014 129.662 20.4005 129.487 20.8057 129.368C21.4007 129.16 22.1094 128.937 22.9318 128.701C23.7549 128.468 24.6374 128.23 25.5793 127.987C26.5211 127.745 27.4254 127.517 28.2919 127.305C29.1581 127.094 29.9339 126.908 30.6196 126.748L32.1133 126.408C32.2358 126.374 32.4128 126.331 32.6432 126.276C32.8735 126.221 33.1111 126.169 33.3552 126.111C33.5993 126.053 33.8343 126.004 34.0597 125.964C34.2292 125.929 34.4015 125.909 34.5745 125.906L32.2934 123.099C32.2859 123.125 32.2689 123.148 32.2456 123.163C32.1176 123.247 31.9787 123.314 31.8327 123.362C31.6282 123.435 31.4089 123.515 31.1755 123.594C30.9421 123.674 30.7161 123.747 30.4925 123.812L30.0175 123.95C29.1152 122.921 28.2259 121.877 27.3495 120.818C26.4732 119.759 25.624 118.683 24.8019 117.591C24.8476 117.502 24.9244 117.359 25.0329 117.153C25.1413 116.948 25.2619 116.74 25.3943 116.523C25.5266 116.306 25.6531 116.107 25.7737 115.917C25.8508 115.781 25.9471 115.657 26.0595 115.549C26.0783 115.529 26.1042 115.517 26.1318 115.516L23.8381 112.69ZM28.0898 124.491C26.8367 124.81 25.5876 125.134 24.3425 125.465C23.0974 125.796 21.8389 126.077 20.5671 126.31C21.0571 125.134 21.5827 123.981 22.1438 122.851C22.7049 121.72 23.2749 120.58 23.854 119.431C25.1342 120.885 26.3804 122.358 27.5924 123.849L28.0898 124.491ZM4.87665 105.539C5.18476 106.169 5.48523 106.808 5.77803 107.455C5.78093 107.434 5.78841 107.413 5.79998 107.394C5.81154 107.376 5.82693 107.36 5.8451 107.348C5.87994 107.325 5.91649 107.304 5.95444 107.287C6.37817 107.134 6.8245 107.052 7.2751 107.045C7.91123 106.999 8.64903 106.975 9.48884 106.965C10.3286 106.956 11.2217 106.975 12.1675 107.011C13.1133 107.048 14.0217 107.088 14.8933 107.131C15.765 107.174 16.5472 107.223 17.2455 107.275C17.9438 107.327 18.4617 107.37 18.8014 107.394C18.6111 107.685 18.315 108.114 17.9132 108.683C17.5126 109.252 17.0556 109.886 16.538 110.59C16.0204 111.294 15.4799 112.02 14.9105 112.776C14.3411 113.532 13.7911 114.236 13.2585 114.891C12.7258 115.546 12.2404 116.1 11.8012 116.556C11.5077 116.897 11.1614 117.189 10.7755 117.42C10.7406 117.435 10.7014 117.45 10.6576 117.466C10.6369 117.472 10.615 117.474 10.5934 117.472C10.5718 117.469 10.5511 117.462 10.5326 117.45C10.8544 118.096 11.1649 118.741 11.464 119.385C11.7631 120.029 12.0649 120.671 12.3694 121.311C12.4421 120.988 12.5713 120.68 12.751 120.402C12.9905 119.973 13.3021 119.464 13.686 118.874C14.0699 118.284 14.5112 117.635 15.01 116.927C15.5088 116.22 16.0268 115.499 16.5638 114.766C17.1008 114.032 17.636 113.302 18.1696 112.577C18.7035 111.851 19.206 111.181 19.677 110.565C20.1481 109.95 20.5672 109.404 20.9343 108.928C21.3018 108.453 21.5775 108.094 21.7612 107.85L20.7554 105.735C20.6835 105.585 20.6198 105.435 20.5649 105.291C20.5073 105.14 20.4317 104.996 20.3398 104.862C20.1137 104.828 19.8857 104.808 19.6571 104.801L18.9735 104.783L16.8189 104.715C16.5886 104.709 16.2437 104.7 15.7852 104.682C15.3267 104.663 14.7947 104.642 14.1892 104.614C13.5837 104.587 12.9277 104.562 12.2211 104.532C11.5145 104.501 10.8043 104.467 10.0891 104.422C9.37399 104.376 8.68027 104.324 8.00156 104.268C7.32286 104.213 6.70664 104.152 6.14799 104.088C5.58935 104.024 5.11769 103.956 4.73209 103.883C4.4601 103.848 4.19725 103.762 3.95783 103.629C4.26186 104.271 4.56773 104.908 4.87543 105.539H4.87665ZM14.5463 83.1668L12.4701 83.7608C12.5362 83.9063 12.5838 84.0596 12.6119 84.2169C12.6695 84.4618 12.7337 84.7618 12.8046 85.1169C12.8756 85.469 12.9504 85.8455 13.0291 86.2435C13.1078 86.6414 13.1822 87.0272 13.2474 87.3945C13.3127 87.7619 13.3727 88.0864 13.4232 88.365C13.4738 88.6436 13.5075 88.8303 13.5234 88.919C13.6867 89.8191 13.8501 90.716 14.0134 91.6099C14.1757 92.5069 14.3197 93.4069 14.4447 94.3161L13.683 94.4539C13.1118 94.558 12.543 94.6559 11.9767 94.7539C11.4104 94.8519 10.8435 94.9467 10.2704 95.0508C9.94233 93.459 9.63452 91.8701 9.34703 90.2844C9.33324 90.2078 9.3066 90.0609 9.26739 89.8466C9.22819 89.6323 9.1841 89.3875 9.13448 89.1119C9.08487 88.8364 9.03556 88.5486 8.98533 88.2364C8.9351 87.9241 8.88947 87.6333 8.8472 87.367C8.80494 87.1007 8.77613 86.8649 8.75928 86.666C8.7461 86.5398 8.73957 86.4131 8.73969 86.2864L6.69839 86.6353L8.38289 95.3754C7.73543 95.4917 7.09622 95.6009 6.4653 95.7029C5.83437 95.805 5.19579 95.8815 4.54955 95.9325C4.21469 94.3008 3.89994 92.6732 3.60531 91.0497C3.58693 90.9487 3.55234 90.7589 3.5018 90.4773L3.32752 89.516C3.26198 89.1547 3.19552 88.7721 3.12814 88.3619C3.06076 87.9517 3.00164 87.5752 2.94958 87.217C2.89751 86.8588 2.85771 86.5557 2.82371 86.3047C2.79532 86.1472 2.78615 85.9869 2.79644 85.8272L0.644258 86.0016L3.11253 99.8296C3.14315 99.7836 3.17378 99.7347 3.20441 99.6857C3.23503 99.6367 3.26566 99.5847 3.29628 99.5387C3.43014 99.411 3.59088 99.3147 3.76672 99.2571C4.0432 99.15 4.32492 99.0571 4.61081 98.9785C4.93515 98.8867 5.28983 98.7979 5.67451 98.7152C6.05919 98.6326 6.42303 98.5591 6.76452 98.4887C7.10602 98.4183 7.41689 98.3601 7.69591 98.3112C7.97492 98.2622 8.17217 98.2254 8.28642 98.204C8.47692 98.1703 8.80952 98.106 9.28455 98.0142C9.75958 97.9223 10.3081 97.8182 10.9302 97.705C11.5522 97.5917 12.2067 97.4754 12.8937 97.3591C13.5807 97.2427 14.2189 97.1448 14.8085 97.0713C15.3981 96.9979 15.9044 96.9489 16.3258 96.9244C16.5826 96.8807 16.8463 96.9007 17.0936 96.9825L14.5463 83.1668ZM2.43964 59.9622C2.3404 60.7092 2.23095 61.4581 2.1113 62.2092C2.13591 62.187 2.16529 62.1709 2.19714 62.1618C2.229 62.1528 2.26251 62.1512 2.29508 62.1571C2.5915 62.2394 2.8648 62.3893 3.09353 62.5949C3.49093 62.9076 3.87096 63.2418 4.23195 63.5959C4.65073 64 5.08697 64.4388 5.54066 64.9123C5.99435 65.3858 6.42375 65.8511 6.82885 66.3083C7.23333 66.7614 7.5924 67.1706 7.90602 67.5359C8.21934 67.8971 8.44843 68.1695 8.59269 68.344L8.57921 68.442C8.39136 68.5706 8.0959 68.7695 7.69284 69.0389C7.29009 69.3083 6.83129 69.5992 6.31706 69.9176C5.80282 70.2359 5.26133 70.5635 4.69381 70.9002C4.12628 71.237 3.58388 71.537 3.07056 71.8033C2.55724 72.0696 2.09998 72.2839 1.69846 72.4492C1.42319 72.5879 1.11851 72.6583 0.810256 72.6544C0.776455 72.655 0.743217 72.6457 0.714564 72.6278C0.685912 72.6098 0.663086 72.584 0.648857 72.5533C0.553095 73.3217 0.449051 74.0788 0.33675 74.8248C0.22445 75.5707 0.113996 76.3269 0.00537109 77.0933C0.290761 76.7665 0.617557 76.4783 0.977488 76.2361C1.47978 75.8626 2.0719 75.4513 2.75387 75.0024C3.43584 74.5534 4.17661 74.085 4.97619 73.5972C5.77516 73.1104 6.54196 72.6421 7.27661 72.1921C8.01126 71.7421 8.681 71.339 9.28579 70.9829C9.89037 70.6247 10.3421 70.3584 10.641 70.1777C10.7436 70.193 10.9188 70.2175 11.1681 70.2543C11.4175 70.291 11.7014 70.3308 12.0196 70.3828C12.3378 70.4349 12.6759 70.49 13.0324 70.5451C13.3889 70.6002 13.7225 70.6676 14.0318 70.738C14.3027 70.7946 14.5698 70.8682 14.8315 70.9584C14.9876 70.9956 15.1314 71.0726 15.2489 71.1819L15.7457 67.6767C15.5792 67.7762 15.3842 67.8171 15.1917 67.793C14.9117 67.793 14.6138 67.7808 14.298 67.7563C13.9821 67.7318 13.6772 67.6981 13.3834 67.6552C13.0897 67.6124 12.8854 67.5848 12.7709 67.5695C12.49 67.5297 12.2153 67.4899 11.947 67.4532C11.6787 67.4165 11.411 67.3706 11.1446 67.3185C10.8946 67.0614 10.5288 66.6777 10.0472 66.1675C9.56551 65.6573 9.02738 65.0858 8.4328 64.4531C7.83802 63.8225 7.22456 63.1623 6.59241 62.4725C5.96026 61.7826 5.37547 61.1265 4.83807 60.5041C4.30086 59.8826 3.84268 59.3234 3.46352 58.8264C3.18031 58.4853 2.94116 58.1099 2.75172 57.7091C2.64249 58.4621 2.53804 59.2132 2.4384 59.9622H2.43964ZM5.80865 51.2527C5.71351 52.2629 5.80539 53.282 6.07971 54.259C6.35524 55.2196 6.83356 56.11 7.48245 56.8703C8.19812 57.6967 9.10272 58.3384 10.1195 58.7407C11.1122 59.1848 12.1961 59.3873 13.2823 59.3316C14.2533 59.2706 15.199 58.9967 16.0523 58.5295C16.9224 58.0452 17.6918 57.3988 18.3187 56.6253C18.999 55.7985 19.5524 54.8751 19.961 53.8855C20.3575 52.9345 20.6089 51.9294 20.7067 50.9038C20.8122 49.891 20.7406 48.8675 20.4951 47.8792C20.2541 46.916 19.8138 46.0139 19.2026 45.2312C18.5479 44.4041 17.6866 43.7642 16.7056 43.376C15.7182 42.9455 14.6421 42.7576 13.5672 42.8281C12.5538 42.9017 11.566 43.1808 10.664 43.6485C9.74886 44.1264 8.92885 44.7676 8.24445 45.5404C7.54041 46.324 6.97295 47.2201 6.56575 48.1914C6.15488 49.1662 5.89872 50.199 5.8065 51.2527H5.80865ZM9.62788 54.5804C9.13867 54.1 8.73943 53.536 8.44903 52.9151C8.16275 52.299 7.99645 51.634 7.959 50.9558C7.91957 50.2607 8.04213 49.5659 8.31703 48.9262C8.57315 48.304 8.93718 47.732 9.39236 47.2363C9.83079 46.7591 10.368 46.3829 10.9666 46.1342C11.6059 45.8756 12.2928 45.7556 12.9819 45.7822C13.8156 45.8187 14.635 46.0118 15.3972 46.3516C16.0228 46.6123 16.5847 47.0049 17.0446 47.5026C17.5058 47.9969 17.8772 48.5677 18.1423 49.1894C18.4069 49.8123 18.5546 50.4785 18.5778 51.1548C18.6058 51.8333 18.4838 52.5096 18.2204 53.1355C17.9579 53.7808 17.557 54.3607 17.0461 54.8345C16.559 55.2837 15.9886 55.633 15.3672 55.8631C14.7368 56.0932 14.0683 56.2013 13.3975 56.1815C12.6964 56.1617 12.0051 56.0111 11.3592 55.7376C10.7118 55.468 10.123 55.0749 9.62575 54.5804H9.62788ZM26.0371 38.7565C25.6417 39.0763 25.1969 39.3296 24.7202 39.5066C24.2658 39.6759 23.78 39.7438 23.2966 39.7055C22.7756 39.6533 22.2825 39.4453 21.8816 39.1086C21.1512 38.5371 20.4155 37.9759 19.6743 37.4249C18.9331 36.8738 18.1973 36.3116 17.467 35.7381C17.3353 35.634 17.135 35.4778 16.8661 35.2666C16.5972 35.0554 16.3249 34.8319 16.0486 34.5993C15.7724 34.3666 15.5157 34.1401 15.2783 33.9197C15.0963 33.7602 14.932 33.5816 14.7883 33.387L12.539 36.2463C12.7216 36.2288 12.9055 36.2583 13.0735 36.3319C13.2745 36.4151 13.4684 36.5144 13.6532 36.629C13.8438 36.7453 14.0271 36.8731 14.2021 37.0116C14.3745 37.1463 14.5215 37.2626 14.6431 37.3575C15.5258 38.0514 16.3888 38.7545 17.232 39.4667C18.0753 40.179 18.9431 40.8852 19.8354 41.5852C20.5035 42.148 21.3363 42.4789 22.2087 42.528C23.0313 42.5579 23.8505 42.4086 24.6096 42.0903C25.4107 41.7546 26.1556 41.2983 26.8184 40.7372C27.4788 40.1925 28.08 39.5799 28.6123 38.9096C28.9579 38.4692 29.2731 38.0059 29.5559 37.5228C29.8597 37.0116 30.1206 36.4761 30.336 35.9218C30.5525 35.3684 30.7148 34.7952 30.8205 34.2105C30.9244 33.6493 30.9486 33.0763 30.8922 32.5084C30.8364 31.9578 30.6765 31.4228 30.4211 30.9318C30.141 30.4061 29.7498 29.9476 29.2747 29.588C28.3823 28.8869 27.4903 28.2103 26.5988 27.5583C25.7074 26.9062 24.8155 26.2297 23.9232 25.5287C23.8007 25.4338 23.6562 25.3205 23.4895 25.1888C23.3171 25.0521 23.1524 24.906 22.9961 24.7511C22.8413 24.5989 22.6994 24.434 22.5719 24.2582C22.4604 24.1124 22.3877 23.9407 22.3606 23.7592L20.1833 26.5267C20.4069 26.6208 20.6197 26.7388 20.8179 26.8787C21.0874 27.0562 21.3692 27.2552 21.6602 27.4664C21.9511 27.6777 22.2329 27.892 22.5015 28.1032C22.7701 28.3144 22.9707 28.4736 23.1024 28.5747C23.8328 29.1502 24.5526 29.7328 25.2619 30.3226C25.9713 30.9125 26.691 31.4941 27.4212 32.0676C27.8465 32.3817 28.1582 32.8254 28.3094 33.3319C28.4458 33.8218 28.479 34.3347 28.4068 34.8381C28.3319 35.3672 28.1725 35.8809 27.9345 36.3595C27.7118 36.8234 27.4409 37.2626 27.1262 37.6698C26.8066 38.0738 26.4403 38.4386 26.035 38.7565H26.0371ZM39.7542 19.9999C40.1389 19.4475 40.463 18.8553 40.7211 18.2336C40.9697 17.6476 41.1071 17.0206 41.1263 16.3845C41.1397 15.7573 40.9327 15.1453 40.5413 14.6549C40.1647 14.1298 39.6079 13.7615 38.9772 13.6202C38.3164 13.4838 37.6347 13.4838 36.9739 13.6202C36.2129 13.7734 35.4739 14.0202 34.7736 14.3549C34.0297 14.7027 33.3039 15.0878 32.599 15.509C31.9024 15.9222 31.2629 16.3386 30.6806 16.758C30.0984 17.1743 29.6224 17.5233 29.2524 17.8049C29.2218 17.8294 29.1219 17.8999 28.9538 18.0193C28.7856 18.1387 28.5804 18.2917 28.3391 18.4723C28.0977 18.653 27.8405 18.8519 27.5682 19.0601C27.2959 19.2683 27.039 19.4611 26.7976 19.6448C26.5563 19.8285 26.3504 19.9815 26.1808 20.1132C26.0111 20.2448 25.9112 20.3152 25.8803 20.3397C25.9721 20.323 26.0665 20.3271 26.1565 20.3514C26.2466 20.3758 26.3301 20.4199 26.401 20.4806C26.6603 20.6538 26.9014 20.8528 27.1207 21.0745C27.3801 21.3316 27.6466 21.6224 27.9195 21.9499C28.1924 22.2775 28.4484 22.5929 28.6876 22.899C28.9268 23.2051 29.1339 23.4745 29.3081 23.7163C29.4824 23.9582 29.6046 24.1205 29.6757 24.2123C29.7927 24.3684 30.0018 24.6378 30.3035 25.0235C30.6052 25.4092 30.9467 25.8562 31.3296 26.3583C31.7124 26.8603 32.1066 27.393 32.5139 27.9501C32.9212 28.5073 33.294 29.0307 33.6324 29.5175C33.9709 30.0042 34.245 30.4329 34.4594 30.7972C34.6129 31.0071 34.7144 31.2505 34.7555 31.5073L37.4532 29.4624C37.277 29.405 37.1194 29.3014 36.9968 29.1624C36.782 28.9607 36.5808 28.745 36.3947 28.5165C36.1895 28.2655 36.0008 28.0297 35.8293 27.8032C35.6578 27.5767 35.5365 27.4175 35.4664 27.3256C35.2557 27.047 35.0471 26.7746 34.8401 26.5021C34.633 26.2297 34.4296 25.9511 34.2293 25.6633C34.6351 25.3235 35.0376 24.9899 35.437 24.6623C35.8364 24.3347 36.2273 23.9858 36.6097 23.6154C37.4952 23.6735 38.3699 23.7408 39.2335 23.8235C40.0972 23.9062 40.968 24.001 41.8464 24.1112C41.983 24.1204 42.1526 24.1357 42.3575 24.1602C42.5624 24.1847 42.7704 24.2062 42.9833 24.2307C43.1961 24.2552 43.4041 24.2857 43.6068 24.3163C43.8096 24.3469 43.9744 24.3837 44.0969 24.4174L47.288 21.9959C47.0467 22.057 46.7964 22.0746 46.5489 22.0479C46.1357 22.0387 45.6371 22.0143 45.0522 21.9806C44.4672 21.9469 43.8356 21.9041 43.1566 21.852C42.4776 21.8 41.8308 21.751 41.2161 21.699C40.6014 21.6469 40.0584 21.598 39.5855 21.552C39.1126 21.5061 38.7996 21.4755 38.6443 21.4632C39.0379 20.9944 39.4077 20.506 39.7521 19.9999H39.7542ZM38.0544 17.6336C38.0587 17.9664 37.9948 18.2967 37.8667 18.604C37.7242 18.9495 37.5402 19.2764 37.3187 19.5774C37.0878 19.8979 36.8382 20.2045 36.5714 20.4958C36.306 20.7867 36.0463 21.053 35.7923 21.2949C35.5381 21.5367 35.3172 21.7357 35.1298 21.8949C34.7623 22.2224 34.3822 22.5428 33.9895 22.8561C33.5969 23.1694 33.2039 23.4837 32.8107 23.799L32.4946 23.3858C32.0579 22.8102 31.6306 22.2316 31.2128 21.6499C30.7951 21.0683 30.3936 20.4683 30.008 19.8561C30.2135 19.6999 30.5139 19.4703 30.9096 19.1703C31.3053 18.8703 31.7494 18.555 32.2416 18.2213C32.7338 17.8876 33.2523 17.5631 33.7978 17.2448C34.2988 16.9502 34.8253 16.7013 35.3708 16.5009C35.8115 16.3336 36.2798 16.2505 36.7512 16.256C36.9403 16.2556 37.127 16.299 37.2965 16.3829C37.466 16.4669 37.6137 16.5889 37.7279 16.7396C37.929 16.9951 38.0424 17.3086 38.0513 17.6336H38.0544ZM49.6977 5.14955C49.8869 5.28097 50.027 5.47161 50.0959 5.69141C50.2591 6.02509 50.4361 6.44444 50.6276 6.9465C50.819 7.44855 51.0107 7.99963 51.2034 8.60271C51.396 9.20578 51.5764 9.77514 51.7436 10.3109C51.9108 10.8466 52.0539 11.3211 52.1724 11.7375C52.2909 12.1538 52.3709 12.4263 52.4101 12.564C52.4456 12.6865 52.5105 12.913 52.6049 13.2436C52.6992 13.5712 52.8042 13.9508 52.9209 14.3793C53.0376 14.8079 53.1589 15.2671 53.2854 15.7539C53.4119 16.2406 53.5252 16.6967 53.6257 17.1161C53.7261 17.5355 53.8067 17.8998 53.8676 18.2029C53.9172 18.3937 53.9398 18.5906 53.9347 18.7877L56.1671 18.1478C56.8863 17.9427 57.7146 17.6958 58.6522 17.407C59.5899 17.1182 60.5448 16.7733 61.5171 16.3723C62.4841 15.9771 63.4204 15.5105 64.318 14.9763C65.1629 14.4836 65.9334 13.8734 66.6065 13.164C67.2214 12.514 67.679 11.7317 67.944 10.8772C68.2037 9.94821 68.1837 8.96331 67.8867 8.04553C67.648 7.153 67.185 6.3363 66.5416 5.67302C65.9163 5.04687 65.1777 4.54509 64.3652 4.19439C63.4998 3.82548 62.5881 3.57626 61.6553 3.45357C60.6803 3.31855 59.6956 3.26734 58.712 3.30051C56.8924 3.36505 55.0866 3.64244 53.3316 4.12705L49.6977 5.14955ZM55.8287 14.1284C55.6176 13.4182 55.409 12.7038 55.203 11.9855C54.9147 10.9814 54.6345 9.98132 54.3623 8.98537C54.0901 7.98943 53.841 6.98018 53.615 5.9577C53.7724 5.89954 53.9309 5.84442 54.0906 5.79238C54.2503 5.74034 54.4107 5.69136 54.5718 5.64544C55.2012 5.46808 55.8412 5.33111 56.4881 5.23527C57.1907 5.13014 57.9006 5.08203 58.6109 5.0914C59.3262 5.09704 60.0396 5.16461 60.7432 5.29342C61.4184 5.41318 62.0719 5.63291 62.6822 5.94544C63.2679 6.24669 63.7936 6.65238 64.2335 7.14246C64.6934 7.66353 65.0266 8.28373 65.2071 8.95473C65.3954 9.55183 65.4002 10.1917 65.2209 10.7915C65.0354 11.3711 64.7331 11.9067 64.3327 12.3651C63.8966 12.8659 63.3913 13.3019 62.832 13.66C62.2437 14.0454 61.6297 14.39 60.9943 14.6916C60.3816 14.9843 59.754 15.2449 59.1141 15.4723C58.4985 15.6896 57.955 15.8651 57.4835 15.9988C57.3224 16.0447 57.1601 16.0906 56.9971 16.1304C56.8342 16.1702 56.6719 16.2131 56.5108 16.259C56.2655 15.5519 56.0375 14.8417 55.8266 14.1284H55.8287ZM71.1994 14.5876L74.5702 14.2569C74.446 14.1226 74.365 13.9541 74.3378 13.7732C74.2623 13.4883 74.2045 13.1989 74.1647 12.9068C74.1206 12.5915 74.0845 12.2885 74.0551 11.9915C74.0257 11.6946 74.0064 11.4987 73.9963 11.3976C73.9203 10.6262 73.8488 9.86496 73.7819 9.11392C73.7149 8.36288 73.6434 7.60881 73.5675 6.85165C73.5534 6.71083 73.5271 6.44447 73.4885 6.05262C73.4499 5.66077 73.4123 5.21386 73.3758 4.7118C73.339 4.20975 73.3099 3.68622 73.2882 3.13519C73.2664 2.58415 73.2652 2.08518 73.2854 1.62905C73.2954 1.24425 73.3456 0.861554 73.4352 0.487189C73.5151 0.181059 73.6385 0.0187855 73.8055 0.003479L69.491 0.429042C69.5777 0.462931 69.6559 0.515611 69.7198 0.583378C69.7836 0.651145 69.8317 0.73224 69.8604 0.820823C69.9908 1.10463 70.0917 1.40113 70.1614 1.70558C70.2481 2.05763 70.3222 2.44643 70.3831 2.86889C70.4441 3.29135 70.4968 3.69237 70.5415 4.07809C70.5862 4.46382 70.6193 4.80365 70.6423 5.09753C70.6652 5.39142 70.6821 5.59952 70.6934 5.71585C70.7124 5.90871 70.7488 6.24547 70.8027 6.72609C70.8567 7.20672 70.9147 7.76086 70.977 8.38843C71.0383 9.01906 71.1002 9.6803 71.1629 10.3722C71.2242 11.0671 71.2683 11.7109 71.2952 12.3038C71.3222 12.8966 71.3302 13.4048 71.3191 13.8283C71.3407 14.0873 71.2998 14.3477 71.1997 14.5876H71.1994ZM88.5804 12.5824C87.8852 12.6002 87.1896 12.5737 86.4978 12.5028C86.0348 12.4563 85.5747 12.3848 85.1195 12.2885C84.6339 12.1898 84.1564 12.0547 83.6911 11.8844C83.2247 11.7178 82.7738 11.5109 82.3435 11.266C81.9299 11.0365 81.5552 10.7431 81.2332 10.3966C80.9218 10.0616 80.6799 9.66834 80.5214 9.23941C80.3537 8.76996 80.2969 8.26815 80.3554 7.77311C80.4358 6.88925 80.7548 6.04381 81.2785 5.32713C81.8024 4.61077 82.4533 3.99646 83.1989 3.51479C83.9605 3.02523 84.7981 2.66525 85.6776 2.44946C86.5315 2.23039 87.4168 2.15999 88.2947 2.24131C88.7036 2.28649 89.109 2.35909 89.5081 2.45865C89.9633 2.56726 90.4043 2.72858 90.822 2.9393C91.2165 3.1334 91.5669 3.40635 91.8514 3.74132C91.9857 3.90051 92.0854 4.08585 92.1442 4.28557C92.203 4.48529 92.2197 4.69506 92.1932 4.90157C92.1497 5.32162 92.0029 5.72442 91.766 6.07407C91.5437 6.41893 91.2902 6.74271 91.0089 7.04141L94.8033 7.41488C94.9388 7.10174 95.049 6.77827 95.1329 6.44754C95.2169 6.11773 95.2761 5.78208 95.3099 5.44342C95.425 4.65086 95.2875 3.8422 94.9169 3.13212C94.5659 2.51689 94.0699 1.99671 93.4719 1.61679C92.8334 1.21309 92.1341 0.914421 91.4009 0.732108C90.648 0.536442 89.8813 0.398256 89.1075 0.318802C88.2685 0.241604 87.4239 0.249833 86.5866 0.343317C85.6927 0.437997 84.8094 0.614238 83.9477 0.869852C83.072 1.12674 82.2237 1.46917 81.4151 1.89228C80.6247 2.29912 79.8909 2.80758 79.2323 3.40462C78.599 3.97909 78.0628 4.65207 77.6443 5.39753C77.2218 6.15585 76.9631 6.99428 76.885 7.85876C76.8029 8.54565 76.9015 9.24211 77.1711 9.87925C77.4374 10.4855 77.8188 11.0345 78.2942 11.4956C78.8011 11.9897 79.375 12.4102 79.9989 12.7447C80.6503 13.1012 81.3291 13.4052 82.0289 13.6539C82.7109 13.901 83.4093 14.1005 84.1189 14.2508C84.7479 14.3872 85.3839 14.4894 86.0239 14.5569C86.602 14.6151 87.2074 14.6559 87.8401 14.6794C88.4729 14.7008 89.1115 14.7038 89.7556 14.6824C90.3997 14.661 91.0328 14.6151 91.6563 14.5416C92.2799 14.4681 92.8762 14.3671 93.4462 14.2416L93.4805 13.8957C93.5301 13.3937 93.5929 12.8885 93.6698 12.3772C93.7441 11.8773 93.8453 11.3817 93.9727 10.8926C94.2667 10.9324 94.6125 10.9783 95.01 11.0242C95.353 11.0583 95.6916 11.127 96.0207 11.2293L96.2076 9.15069C96.0044 9.18349 95.7977 9.18857 95.5932 9.16594C95.2771 9.14757 94.9039 9.12002 94.4734 9.08328C94.0422 9.0496 93.5797 9.00677 93.0857 8.95779C92.5917 8.90881 92.1194 8.85677 91.6707 8.80779C91.222 8.75881 90.8214 8.70984 90.4689 8.66698C90.1164 8.62413 89.8637 8.59349 89.7109 8.56287C89.4153 8.53532 89.0947 8.50163 88.748 8.46795C88.4305 8.43982 88.1171 8.37619 87.8138 8.27819L87.3262 10.2527C87.5139 10.2275 87.7035 10.2203 87.8925 10.2313C88.1118 10.2405 88.3406 10.2527 88.5792 10.2711C88.8178 10.2895 89.0484 10.3109 89.2726 10.3384C89.4968 10.366 89.6858 10.3905 89.8398 10.4058L90.7835 10.4976C90.789 10.8344 90.7834 11.1619 90.7641 11.4772C90.7449 11.7926 90.7204 12.117 90.6873 12.4507C89.9765 12.5242 89.2735 12.5681 88.5783 12.5824H88.5804ZM96.7579 16.4029L99.9946 17.4009C99.9319 17.2291 99.9224 17.0424 99.9674 16.8652C100.008 16.573 100.067 16.2836 100.143 15.9988C100.224 15.6927 100.308 15.3988 100.396 15.1141C100.483 14.8294 100.542 14.6396 100.573 14.5416C100.801 13.8038 101.029 13.0722 101.257 12.3559C101.486 11.6395 101.713 10.9109 101.937 10.1854C101.979 10.0507 102.057 9.79353 102.173 9.41699C102.29 9.04045 102.427 8.61495 102.588 8.13738C102.749 7.65982 102.925 7.16692 103.118 6.65262C103.31 6.13832 103.503 5.67299 103.698 5.26278C103.857 4.91112 104.052 4.57671 104.28 4.26479C104.472 4.01376 104.648 3.91275 104.809 3.96479L100.665 2.68825C100.733 2.75241 100.784 2.83087 100.817 2.91777C100.85 3.00467 100.863 3.09776 100.855 3.19027C100.865 3.50188 100.844 3.81375 100.79 4.12092C100.733 4.48215 100.651 4.86789 100.545 5.28116C100.439 5.69444 100.331 6.08631 100.223 6.45673C100.115 6.82715 100.014 7.15469 99.9208 7.43633C99.8274 7.71797 99.7631 7.91388 99.7291 8.02714C99.6719 8.21082 99.5751 8.53537 99.4387 9.00069C99.3025 9.46295 99.1411 9.99867 98.9548 10.6017C98.7686 11.2048 98.5699 11.8385 98.3585 12.5028C98.1472 13.1671 97.938 13.7763 97.7328 14.3335C97.5276 14.8906 97.3374 15.3651 97.165 15.7477C97.0851 15.9956 96.9462 16.2204 96.7604 16.4029H96.7579ZM119.158 12.3497L120.049 10.4793L105.26 3.726L104.464 5.57504C104.618 5.61478 104.77 5.66385 104.918 5.72197C105.105 5.79544 105.298 5.87812 105.497 5.96996C105.696 6.0618 105.887 6.14754 106.072 6.22713C106.256 6.30673 106.406 6.37099 106.523 6.42609C107.289 6.76589 108.048 7.10879 108.801 7.44859C109.554 7.7884 110.308 8.13736 111.07 8.49247C110.859 9.03432 110.634 9.57005 110.397 10.0997C110.159 10.6293 109.918 11.1568 109.674 11.6823C109.591 11.8568 109.45 12.166 109.254 12.6068C109.058 13.0477 108.822 13.5558 108.559 14.1314C108.296 14.7069 108.008 15.3039 107.71 15.9345C107.412 16.5651 107.121 17.1406 106.842 17.6641C106.563 18.1876 106.315 18.6315 106.097 18.9928C105.99 19.2326 105.817 19.4374 105.599 19.5836L108.672 21.0071C108.634 20.8292 108.648 20.6439 108.715 20.4745C108.796 20.1868 108.895 19.9046 109.012 19.6295C109.135 19.3326 109.26 19.0509 109.383 18.7877L109.631 18.255C109.891 17.6917 110.155 17.1406 110.421 16.5957C110.688 16.0508 110.954 15.4967 111.214 14.9365C111.623 14.0579 112.033 13.1814 112.446 12.3068C112.859 11.43 113.317 10.5749 113.818 9.74457C113.91 9.78743 114.099 9.87616 114.387 10.0078C114.675 10.1394 115.006 10.2956 115.389 10.4731C115.772 10.6507 116.17 10.8405 116.596 11.0456C117.021 11.2507 117.413 11.4374 117.781 11.615C118.148 11.7925 118.458 11.9487 118.715 12.0803C118.874 12.1491 119.022 12.2398 119.156 12.3497H119.158ZM125.366 32.4135C125.361 32.2412 125.375 32.0688 125.406 31.8992C125.439 31.6726 125.476 31.437 125.522 31.186C125.568 30.9349 125.611 30.6931 125.657 30.4635C125.703 30.2339 125.743 30.0532 125.77 29.9308C125.828 29.6185 125.929 29.1196 126.07 28.4308C126.211 27.742 126.373 26.9644 126.557 26.095C126.741 25.2256 126.94 24.3102 127.151 23.3612C127.363 22.4122 127.571 21.5245 127.779 20.6949C127.987 19.8652 128.187 19.1489 128.376 18.5489C128.483 18.1397 128.646 17.7472 128.86 17.3825C128.879 17.3606 128.9 17.3401 128.922 17.3213C128.93 17.3114 128.941 17.3049 128.953 17.3032C128.966 17.3015 128.979 17.3047 128.989 17.3121L125.381 14.5723C125.391 14.5805 125.398 14.5925 125.4 14.6056C125.402 14.6187 125.398 14.632 125.39 14.6427C125.376 14.668 125.361 14.6925 125.344 14.7161C125.053 15.0208 124.72 15.2826 124.355 15.4937C123.824 15.8407 123.188 16.2243 122.447 16.6448C121.703 17.0703 120.901 17.5111 120.043 17.9672C119.185 18.4264 118.361 18.8621 117.571 19.2744C116.781 19.6866 116.07 20.0499 115.439 20.3642C114.812 20.6826 114.355 20.9091 114.07 21.0499C113.96 21.1112 113.798 21.1938 113.586 21.301L112.934 21.6316C112.711 21.7479 112.493 21.8489 112.285 21.9438C112.128 22.0175 111.965 22.076 111.798 22.1183L114.683 24.3072C114.683 24.2935 114.685 24.2799 114.691 24.2673C114.696 24.2547 114.704 24.2432 114.714 24.2337C114.817 24.1211 114.936 24.0233 115.066 23.9429C115.25 23.8235 115.442 23.6949 115.651 23.5602C115.859 23.4255 116.061 23.3031 116.263 23.1867C116.465 23.0704 116.606 22.9908 116.692 22.9418C117.813 23.7286 118.924 24.5317 120.024 25.3511C121.125 26.1705 122.205 27.0144 123.265 27.8828C123.243 27.9777 123.203 28.1369 123.145 28.3634C123.087 28.59 123.02 28.8195 122.943 29.0583C122.867 29.2971 122.79 29.5267 122.72 29.738C122.676 29.8887 122.612 30.0329 122.53 30.1665C122.515 30.1899 122.492 30.2072 122.465 30.2155L125.366 32.4135ZM118.435 21.9591C119.578 21.3499 120.714 20.7387 121.844 20.1254C122.973 19.5121 124.128 18.9397 125.311 18.4081C125.115 19.6693 124.878 20.9142 124.6 22.1428C124.322 23.3715 124.04 24.6143 123.752 25.8715C122.162 24.7602 120.602 23.6245 119.072 22.4643L118.435 21.9591ZM133.932 43.174L135.461 41.6495C135.336 41.5554 135.223 41.4476 135.124 41.328C134.958 41.1443 134.765 40.9239 134.545 40.6637C134.324 40.4035 134.082 40.1188 133.825 39.8127C133.568 39.5066 133.326 39.2188 133.102 38.9432C132.879 38.6677 132.68 38.4259 132.508 38.2178C132.337 38.0096 132.223 37.8657 132.165 37.7983C131.889 37.4585 131.629 37.1402 131.387 36.8463C131.145 36.5524 130.912 36.2616 130.686 35.983C130.459 35.7044 130.226 35.4166 129.994 35.1227C129.761 34.8289 129.519 34.5044 129.262 34.1493C129.935 33.5646 130.622 32.9992 131.323 32.4533C132.027 31.9053 132.723 31.3502 133.412 30.788C133.522 30.6961 133.73 30.5277 134.033 30.2797C134.337 30.0318 134.689 29.7532 135.087 29.444C135.485 29.1348 135.908 28.8196 136.352 28.4981C136.796 28.1767 137.215 27.8981 137.608 27.6624C137.934 27.4585 138.281 27.2892 138.643 27.1572C138.94 27.0531 139.145 27.0685 139.249 27.1971L136.508 23.8388C136.529 23.9301 136.528 24.0249 136.507 24.1161C136.486 24.2073 136.444 24.2925 136.385 24.3654C136.222 24.6309 136.031 24.8782 135.816 25.1031C135.568 25.3725 135.286 25.648 134.971 25.9327C134.655 26.2174 134.346 26.4838 134.049 26.7317C133.752 26.9797 133.485 27.2001 133.246 27.3868C133.007 27.5736 132.848 27.6991 132.768 27.7664C132.618 27.8889 132.355 28.1063 131.981 28.4216C131.608 28.7369 131.17 29.0951 130.683 29.493C130.196 29.891 129.678 30.3073 129.139 30.7389C128.6 31.1706 128.089 31.5625 127.611 31.9114C127.133 32.2604 126.71 32.5482 126.352 32.7747C126.147 32.9346 125.908 33.0447 125.654 33.0962L133.932 43.174ZM153.914 58.6673L155.996 58.107L151.059 44.9588C151.034 45.0092 151.012 45.0614 150.995 45.1149C150.973 45.173 150.952 45.2251 150.93 45.2741C150.823 45.4252 150.683 45.5498 150.52 45.6384C150.267 45.7946 150.007 45.9376 149.739 46.0669C149.439 46.2169 149.105 46.3669 148.741 46.5169C148.376 46.6669 148.033 46.8078 147.712 46.9394C147.39 47.071 147.093 47.1812 146.826 47.2822C146.56 47.3833 146.376 47.4537 146.266 47.4935C146.085 47.5639 145.77 47.6864 145.32 47.8639C144.869 48.0415 144.349 48.2405 143.758 48.4639C143.166 48.6874 142.542 48.9201 141.889 49.1619C141.237 49.4038 140.624 49.6119 140.058 49.7926C139.491 49.9732 139.004 50.1109 138.594 50.2119C138.349 50.3012 138.086 50.3296 137.828 50.2946L139.026 53.46C139.123 53.3054 139.265 53.1837 139.433 53.111C139.688 52.9628 139.953 52.8319 140.226 52.7191C140.517 52.5936 140.799 52.4804 141.078 52.3732C141.356 52.2661 141.543 52.1987 141.638 52.162C142.183 51.9569 142.722 51.7548 143.261 51.5589C143.8 51.3629 144.342 51.1609 144.885 50.9558C145.485 52.4252 146.061 53.8896 146.612 55.3488C146.652 55.4559 146.747 55.7039 146.894 56.0896C147.041 56.4753 147.188 56.8825 147.344 57.3049C147.5 57.7274 147.635 58.1315 147.754 58.505C147.838 58.7274 147.9 58.9569 147.941 59.1908L149.886 58.4744L146.685 50.2946C147.301 50.0619 147.908 49.8385 148.511 49.6242C149.114 49.4099 149.727 49.2201 150.352 49.0517C150.979 50.5946 151.585 52.1375 152.168 53.6804C152.205 53.7784 152.272 53.959 152.373 54.2223C152.474 54.4855 152.59 54.7947 152.719 55.1376C152.848 55.4805 152.986 55.8478 153.126 56.2365C153.267 56.6253 153.393 56.9897 153.509 57.3325C153.626 57.6754 153.721 57.9662 153.8 58.205C153.856 58.3542 153.894 58.5093 153.914 58.6673ZM157.105 66.5256C156.693 65.598 156.114 64.7543 155.396 64.0367C154.684 63.3345 153.831 62.7918 152.894 62.4449C151.866 62.0733 150.764 61.9567 149.681 62.1051C148.598 62.2044 147.554 62.5578 146.633 63.1367C145.817 63.6658 145.126 64.3669 144.609 65.1909C144.089 66.039 143.734 66.9781 143.565 67.9583C143.376 69.0133 143.347 70.0904 143.476 71.1543C143.595 72.177 143.868 73.176 144.284 74.1177C144.688 75.0533 145.251 75.9111 145.95 76.6524C146.632 77.3756 147.459 77.9472 148.376 78.33C149.351 78.7314 150.415 78.8676 151.46 78.7249C152.532 78.6173 153.562 78.2552 154.465 77.6687C155.314 77.1103 156.039 76.3841 156.597 75.535C157.161 74.6703 157.561 73.7095 157.779 72.7002C158.008 71.6718 158.064 70.6123 157.944 69.5655C157.825 68.5144 157.541 67.4887 157.103 66.5256H157.105ZM152.146 65.4909C152.808 65.6722 153.432 65.9697 153.99 66.3695C154.541 66.7662 155.012 67.2638 155.378 67.8359C155.752 68.4238 155.986 69.09 156.061 69.7828C156.142 70.4505 156.104 71.1272 155.95 71.7819C155.8 72.4123 155.516 73.0033 155.117 73.5146C154.684 74.0509 154.144 74.4909 153.531 74.8065C152.785 75.1816 151.976 75.4132 151.145 75.4891C150.472 75.5684 149.79 75.5016 149.145 75.2932C148.5 75.0877 147.897 74.7707 147.362 74.3565C146.826 73.9444 146.371 73.4356 146.021 72.8564C145.663 72.2795 145.438 71.6301 145.362 70.9553C145.274 70.264 145.338 69.5616 145.552 68.8981C145.758 68.2687 146.085 67.6854 146.514 67.1807C146.951 66.672 147.481 66.2513 148.076 65.9409C148.697 65.6141 149.375 65.4073 150.073 65.3317C150.767 65.2496 151.471 65.3037 152.145 65.4909H152.146ZM157.5 87.9701C157.352 86.9654 157.02 85.9963 156.523 85.1108C156.025 84.2437 155.349 83.4924 154.538 82.9067C153.647 82.2752 152.616 81.8667 151.534 81.7158C150.464 81.5216 149.363 81.5824 148.321 81.8934C147.393 82.1832 146.54 82.6733 145.822 83.3291C145.092 84.0069 144.497 84.8172 144.07 85.7169C143.607 86.6822 143.289 87.7107 143.127 88.769C142.967 89.7869 142.961 90.8229 143.108 91.8426C143.247 92.8511 143.56 93.8279 144.033 94.7294C144.497 95.608 145.138 96.3806 145.917 96.9979C146.75 97.6435 147.739 98.0593 148.783 98.204C149.845 98.3896 150.935 98.3171 151.963 97.9928C152.93 97.6818 153.823 97.1765 154.587 96.508C155.363 95.8273 156.007 95.0109 156.489 94.0988C156.988 93.1702 157.326 92.1642 157.491 91.1232C157.656 90.0787 157.658 89.0152 157.498 87.9701H157.5ZM152.998 85.6404C153.587 85.9928 154.11 86.4468 154.541 86.9813C154.965 87.5111 155.285 88.1168 155.482 88.766C155.685 89.4332 155.731 90.1383 155.616 90.8262C155.514 91.4904 155.296 92.1317 154.973 92.7212C154.659 93.288 154.227 93.7807 153.705 94.1662C153.145 94.5689 152.507 94.8485 151.831 94.9866C151.012 95.147 150.171 95.1533 149.35 95.0049C148.68 94.8995 148.041 94.6509 147.476 94.2763C146.911 93.9048 146.415 93.4388 146.009 92.8987C145.603 92.3568 145.302 91.7444 145.12 91.0926C144.932 90.4404 144.89 89.7546 144.998 89.0844C145.097 88.3951 145.348 87.7364 145.733 87.1557C146.1 86.6032 146.571 86.128 147.12 85.7568C147.678 85.3843 148.302 85.1215 148.958 84.9822C149.644 84.8346 150.351 84.8169 151.044 84.9301C151.734 85.0378 152.398 85.279 152.996 85.6404H152.998ZM147.604 115.237L149.515 116.039L155.574 100.959L153.687 100.252C153.657 100.408 153.615 100.562 153.561 100.711C153.497 100.901 153.424 101.097 153.341 101.302C153.258 101.507 153.182 101.7 153.114 101.887C153.047 102.073 152.986 102.227 152.937 102.346C152.63 103.127 152.324 103.901 152.018 104.669C151.711 105.438 151.4 106.208 151.084 106.981C150.532 106.797 149.984 106.601 149.445 106.387C148.906 106.173 148.367 105.955 147.828 105.738C147.65 105.664 147.335 105.539 146.885 105.361C146.434 105.184 145.917 104.976 145.332 104.737C144.747 104.498 144.131 104.244 143.488 103.975C142.845 103.705 142.257 103.445 141.718 103.191C141.179 102.937 140.728 102.707 140.355 102.508C140.111 102.412 139.899 102.25 139.742 102.04L138.462 105.172C138.639 105.125 138.825 105.133 138.998 105.193C139.289 105.261 139.575 105.347 139.856 105.45C140.159 105.557 140.444 105.667 140.713 105.778C140.983 105.888 141.163 105.961 141.261 106.001C141.834 106.237 142.398 106.473 142.955 106.714C143.513 106.956 144.076 107.192 144.649 107.428C145.547 107.792 146.443 108.16 147.335 108.533C148.227 108.905 149.102 109.322 149.96 109.782C149.92 109.88 149.84 110.073 149.721 110.367C149.601 110.66 149.463 110.997 149.304 111.386C149.145 111.775 148.973 112.185 148.79 112.62C148.606 113.054 148.434 113.455 148.275 113.829C148.116 114.202 147.975 114.521 147.852 114.784C147.789 114.945 147.706 115.097 147.604 115.237ZM136.438 129.592C136.88 129.654 137.331 129.628 137.764 129.515C138.216 129.394 138.649 129.209 139.05 128.967C139.475 128.716 139.88 128.431 140.26 128.116C140.64 127.801 141.002 127.465 141.344 127.109C141.681 126.757 141.981 126.429 142.251 126.129C142.704 125.615 143.142 125.094 143.558 124.568C143.975 124.041 144.382 123.503 144.787 122.952C144.952 122.774 145.102 122.584 145.237 122.382C145.411 122.131 145.552 121.935 145.659 121.788L147.301 119.538C147.218 119.581 147.127 119.604 147.033 119.607C146.94 119.61 146.847 119.591 146.762 119.554C146.463 119.462 146.175 119.34 145.901 119.189C145.58 119.018 145.243 118.816 144.888 118.58C144.532 118.344 144.196 118.115 143.88 117.891C143.565 117.668 143.286 117.469 143.05 117.288C142.814 117.108 142.649 116.985 142.557 116.915C142.41 116.807 142.137 116.615 141.736 116.33C141.335 116.045 140.885 115.721 140.379 115.35C139.874 114.98 139.341 114.591 138.784 114.175C138.226 113.758 137.715 113.364 137.252 112.987C136.79 112.61 136.407 112.277 136.091 111.983C135.881 111.824 135.712 111.619 135.595 111.383L133.598 114.117C133.787 114.122 133.971 114.178 134.131 114.279C134.394 114.412 134.649 114.562 134.894 114.726C135.157 114.9 135.402 115.075 135.632 115.24C135.862 115.405 136.021 115.525 136.116 115.595C136.48 115.862 136.836 116.122 137.182 116.382C137.528 116.642 137.88 116.905 138.248 117.172C137.957 117.57 137.601 118.078 137.176 118.702C136.75 119.327 136.327 120.007 135.902 120.744C135.472 121.489 135.083 122.256 134.738 123.043C134.404 123.785 134.159 124.563 134.006 125.361C133.867 126.045 133.873 126.751 134.024 127.433C134.183 128.082 134.574 128.649 135.124 129.028C135.509 129.32 135.959 129.513 136.436 129.592H136.438ZM136.502 125.024C136.462 124.523 136.524 124.019 136.686 123.542C136.855 123.024 137.076 122.523 137.344 122.048C137.62 121.562 137.858 121.16 138.058 120.842C138.33 120.405 138.612 119.973 138.903 119.557C139.194 119.14 139.491 118.718 139.794 118.301C140.428 118.767 141.062 119.235 141.69 119.71C142.318 120.184 142.924 120.689 143.506 121.225L142.958 121.975C142.814 122.174 142.615 122.443 142.364 122.789C142.113 123.135 141.825 123.5 141.497 123.891C141.166 124.292 140.814 124.675 140.444 125.039C140.101 125.387 139.722 125.697 139.313 125.964C138.977 126.19 138.601 126.35 138.205 126.435C138.032 126.471 137.853 126.47 137.681 126.431C137.509 126.392 137.347 126.316 137.206 126.209C137.008 126.077 136.841 125.901 136.719 125.696C136.597 125.491 136.522 125.262 136.5 125.024H136.502ZM121.626 135.628C121.264 136.196 120.965 136.802 120.735 137.435C120.511 138.03 120.4 138.663 120.407 139.299C120.421 139.927 120.654 140.53 121.066 141.004C121.463 141.513 122.035 141.857 122.671 141.971C123.337 142.079 124.019 142.05 124.674 141.886C125.427 141.7 126.156 141.422 126.842 141.059C127.577 140.673 128.285 140.259 128.964 139.816C129.644 139.369 130.263 138.929 130.83 138.485C131.396 138.041 131.853 137.673 132.211 137.379C132.242 137.355 132.337 137.278 132.499 137.153C132.661 137.027 132.86 136.865 133.096 136.672C133.332 136.479 133.577 136.271 133.84 136.054C134.104 135.837 134.352 135.631 134.585 135.439C134.817 135.246 135.02 135.08 135.182 134.943C135.344 134.805 135.442 134.728 135.473 134.704C135.382 134.725 135.288 134.725 135.197 134.704C135.107 134.683 135.022 134.642 134.949 134.585C134.682 134.423 134.433 134.234 134.205 134.021C133.912 133.755 133.633 133.474 133.369 133.179C133.081 132.864 132.811 132.561 132.56 132.267C132.309 131.973 132.092 131.71 131.908 131.477C131.724 131.245 131.592 131.082 131.519 130.994C131.396 130.844 131.176 130.583 130.857 130.21C130.539 129.836 130.177 129.408 129.776 128.921C129.375 128.434 128.955 127.92 128.523 127.381C128.092 126.843 127.7 126.334 127.341 125.86C126.983 125.385 126.689 124.972 126.462 124.617C126.298 124.414 126.186 124.175 126.135 123.919L123.525 126.08C123.704 126.127 123.867 126.224 123.994 126.359C124.218 126.552 124.428 126.759 124.625 126.98C124.839 127.219 125.038 127.449 125.219 127.669C125.399 127.889 125.528 128.039 125.602 128.128C125.826 128.398 126.047 128.664 126.263 128.927C126.481 129.191 126.695 129.46 126.909 129.735C126.517 130.094 126.128 130.443 125.742 130.788C125.357 131.134 124.983 131.496 124.615 131.884C123.73 131.866 122.851 131.832 121.988 131.79C121.124 131.747 120.245 131.685 119.363 131.612C119.228 131.606 119.057 131.597 118.851 131.584C118.646 131.572 118.438 131.554 118.223 131.538C118.009 131.523 117.801 131.502 117.596 131.48C117.43 131.462 117.265 131.435 117.102 131.398L114.015 133.954C114.254 133.882 114.504 133.854 114.753 133.871C115.167 133.865 115.666 133.865 116.251 133.874C116.836 133.883 117.47 133.899 118.15 133.923C118.83 133.948 119.479 133.969 120.095 133.994C120.71 134.018 121.256 134.046 121.73 134.073C122.205 134.101 122.52 134.113 122.674 134.119C122.339 134.548 121.989 135.051 121.624 135.628H121.626ZM123.424 137.921C123.405 137.589 123.455 137.257 123.571 136.945C123.699 136.594 123.868 136.26 124.076 135.95C124.295 135.62 124.531 135.302 124.784 134.998C125.038 134.698 125.286 134.419 125.528 134.168C125.77 133.917 125.984 133.706 126.165 133.541C126.517 133.198 126.884 132.861 127.265 132.53C127.644 132.2 128.021 131.869 128.401 131.538L128.735 131.943C129.197 132.497 129.649 133.056 130.089 133.62C130.533 134.183 130.959 134.764 131.369 135.362C131.17 135.527 130.879 135.766 130.496 136.085C130.113 136.403 129.684 136.737 129.206 137.089C128.729 137.441 128.223 137.79 127.693 138.129C127.205 138.446 126.69 138.717 126.153 138.941C125.719 139.126 125.255 139.229 124.784 139.244C124.595 139.252 124.406 139.217 124.234 139.14C124.061 139.063 123.908 138.946 123.788 138.8C123.575 138.554 123.446 138.246 123.422 137.921H123.424ZM113.09 133.887L110.15 135.567C110.318 135.637 110.462 135.757 110.56 135.91C110.745 136.141 110.916 136.382 111.072 136.633C111.24 136.899 111.397 137.162 111.544 137.419C111.691 137.676 111.792 137.851 111.844 137.94C112.227 138.613 112.602 139.279 112.971 139.936C113.341 140.594 113.715 141.255 114.092 141.913C114.162 142.039 114.297 142.268 114.49 142.611C114.683 142.954 114.903 143.346 115.142 143.79C115.381 144.234 115.623 144.699 115.865 145.192C116.107 145.685 116.315 146.141 116.484 146.563C116.632 146.919 116.743 147.29 116.815 147.669C116.867 147.981 116.821 148.177 116.674 148.262L120.438 146.11C120.345 146.115 120.252 146.099 120.167 146.064C120.081 146.028 120.004 145.974 119.942 145.905C119.707 145.699 119.493 145.469 119.305 145.22C119.081 144.932 118.854 144.607 118.628 144.249C118.401 143.891 118.187 143.542 117.988 143.208C117.789 142.875 117.62 142.581 117.479 142.32C117.338 142.06 117.237 141.88 117.179 141.779C117.084 141.61 116.913 141.316 116.668 140.9C116.423 140.484 116.141 140 115.828 139.452C115.516 138.904 115.188 138.325 114.848 137.716C114.508 137.107 114.202 136.541 113.936 136.008C113.669 135.475 113.455 135.016 113.292 134.627C113.168 134.4 113.099 134.146 113.09 133.887ZM99.2813 155.404L103.355 153.923C103.262 153.911 103.174 153.88 103.095 153.83C103.016 153.78 102.95 153.714 102.9 153.635C102.703 153.393 102.532 153.132 102.389 152.854C102.217 152.53 102.049 152.175 101.885 151.78C101.722 151.385 101.57 151.008 101.432 150.647C101.294 150.286 101.177 149.964 101.081 149.686C100.986 149.407 100.918 149.208 100.879 149.098C100.574 148.261 100.268 147.43 99.9597 146.603C99.6514 145.777 99.3573 144.94 99.0773 144.093C99.3267 144.249 99.7359 144.515 100.305 144.892C100.874 145.268 101.52 145.703 102.242 146.196C102.963 146.689 103.716 147.211 104.501 147.763C105.285 148.315 106.013 148.843 106.684 149.346C107.355 149.851 107.92 150.308 108.379 150.718C108.705 150.969 108.977 151.283 109.178 151.642C109.194 151.667 109.203 151.696 109.202 151.725C109.202 151.755 109.192 151.784 109.175 151.807L113.576 150.206C113.484 150.195 113.395 150.163 113.317 150.113C113.239 150.064 113.172 149.997 113.123 149.919C112.926 149.677 112.754 149.415 112.611 149.138C112.44 148.813 112.271 148.458 112.109 148.063C111.947 147.669 111.794 147.292 111.656 146.931C111.518 146.57 111.398 146.248 111.303 145.97C111.209 145.691 111.141 145.492 111.101 145.382C111.034 145.201 110.915 144.88 110.74 144.424C110.565 143.967 110.372 143.438 110.158 142.844C109.944 142.25 109.72 141.626 109.496 140.973C109.273 140.321 109.071 139.712 108.893 139.146C108.715 138.58 108.578 138.09 108.483 137.679C108.398 137.433 108.372 137.169 108.409 136.911L105.227 138.068C105.375 138.197 105.489 138.361 105.555 138.546C105.691 138.827 105.827 139.134 105.963 139.47C106.098 139.807 106.222 140.125 106.335 140.435C106.447 140.744 106.521 140.949 106.557 141.044C106.781 141.662 107 142.283 107.213 142.905C107.426 143.528 107.633 144.152 107.833 144.779C107.968 145.186 108.1 145.593 108.238 146.003C108.376 146.413 108.489 146.827 108.587 147.243C107.382 146.542 106.199 145.82 105.037 145.076C103.875 144.332 102.716 143.58 101.559 142.819L99.5022 141.469C99.2859 141.329 99.0734 141.182 98.859 141.032C98.6446 140.882 98.4302 140.747 98.2051 140.621L95.0036 141.788C95.1575 141.885 95.2778 142.027 95.3485 142.195C95.4938 142.456 95.6228 142.726 95.7347 143.003C95.8572 143.3 95.9678 143.588 96.067 143.86C96.1662 144.133 96.2336 144.316 96.2688 144.414C96.5343 145.143 96.7895 145.863 97.0345 146.576C97.2795 147.288 97.5326 148.002 97.7938 148.719C97.8421 148.85 97.9337 149.104 98.0694 149.472C98.2051 149.839 98.3545 150.265 98.5202 150.739C98.6859 151.214 98.8476 151.716 99.0048 152.242C99.1619 152.769 99.2844 153.255 99.3723 153.702C99.4516 154.079 99.4978 154.462 99.5104 154.847C99.5147 155.16 99.4381 155.346 99.2804 155.404H99.2813ZM81.3618 155.946L81.6069 158L97.7184 155.821L97.403 153.834C97.2517 153.884 97.0969 153.923 96.9399 153.95C96.7429 153.99 96.5362 154.024 96.3184 154.051C96.1007 154.079 95.8933 154.11 95.6961 154.14C95.4988 154.171 95.3356 154.198 95.2079 154.214C94.3775 154.333 93.5533 154.449 92.7353 154.563C91.9174 154.676 91.0924 154.786 90.2603 154.893C90.1472 154.322 90.0503 153.749 89.9697 153.176C89.889 152.602 89.8113 152.027 89.7366 151.449C89.7118 151.256 89.6656 150.923 89.5966 150.442C89.5277 149.961 89.4536 149.41 89.3725 148.786C89.2913 148.161 89.2095 147.5 89.1274 146.808C89.0453 146.116 88.981 145.474 88.9366 144.88C88.8922 144.286 88.8662 143.781 88.857 143.361C88.8188 143.101 88.8556 142.836 88.963 142.596L85.6037 143.031C85.7329 143.16 85.8191 143.325 85.8506 143.505C85.9358 143.791 86.0028 144.083 86.0512 144.378C86.1054 144.693 86.151 144.996 86.1884 145.284C86.2258 145.572 86.2497 145.767 86.2641 145.872C86.3435 146.484 86.4157 147.092 86.4806 147.696C86.5458 148.299 86.6178 148.905 86.6975 149.521C86.8214 150.48 86.9423 151.44 87.0601 152.401C87.1781 153.364 87.248 154.331 87.2693 155.3C87.167 155.313 86.959 155.34 86.6454 155.38C86.3317 155.42 85.9673 155.469 85.5514 155.521C85.1355 155.573 84.6938 155.628 84.2255 155.683C83.7572 155.738 83.3217 155.787 82.9177 155.833C82.5138 155.879 82.167 155.913 81.8764 155.937C81.7053 155.962 81.5318 155.965 81.36 155.946H81.3618Z" fill="#555555"/>
</svg>
