<svg width="39" height="40" viewBox="0 0 39 40" fill="none" xmlns="http://www.w3.org/2000/svg">
<g clip-path="url(#clip0_915_22731)">
<g opacity="0.8" filter="url(#filter0_di_915_22731)">
<path d="M17.7328 0C16.8859 1.27114 16.0043 2.49608 15.2253 3.78409C13.7527 6.21832 12.6496 8.8124 12.1495 11.6366C11.259 16.6861 12.7107 20.9261 16.5044 24.3568C18.1957 25.8866 20.0698 27.1091 22.2788 27.7465C25.2891 28.6156 28.2324 28.2835 31.1238 27.2059C33.8998 26.1709 36.349 24.5893 38.5687 22.6334C38.6701 22.5439 38.7707 22.4535 38.8716 22.364L39.0005 22.388C38.9646 23.111 38.9738 23.8379 38.8848 24.5532C38.4267 28.2389 36.7146 31.3001 34.2087 33.9536C31.0559 37.2927 27.18 39.2237 22.6615 39.8221C13.3229 41.0599 4.45554 35.7416 1.29077 26.8055C-1.01316 20.2992 -0.243719 14.0339 3.69368 8.32122C5.95092 5.04679 9.12366 2.83666 12.7741 1.32696C14.2711 0.707659 15.8191 0.263464 17.4247 0.0341376C17.5332 0.0184743 17.6422 0.00963894 17.7328 0Z" fill="#503614"/>
</g>
</g>
<defs>
<filter id="filter0_di_915_22731" x="-3.99963" y="0" width="47.0001" height="47.9999" filterUnits="userSpaceOnUse" color-interpolation-filters="sRGB">
<feFlood flood-opacity="0" result="BackgroundImageFix"/>
<feColorMatrix in="SourceAlpha" type="matrix" values="0 0 0 0 0 0 0 0 0 0 0 0 0 0 0 0 0 0 127 0" result="hardAlpha"/>
<feOffset dy="4"/>
<feGaussianBlur stdDeviation="2"/>
<feComposite in2="hardAlpha" operator="out"/>
<feColorMatrix type="matrix" values="0 0 0 0 1 0 0 0 0 1 0 0 0 0 1 0 0 0 0.55 0"/>
<feBlend mode="normal" in2="BackgroundImageFix" result="effect1_dropShadow_915_22731"/>
<feBlend mode="normal" in="SourceGraphic" in2="effect1_dropShadow_915_22731" result="shape"/>
<feColorMatrix in="SourceAlpha" type="matrix" values="0 0 0 0 0 0 0 0 0 0 0 0 0 0 0 0 0 0 127 0" result="hardAlpha"/>
<feOffset dy="4"/>
<feGaussianBlur stdDeviation="2"/>
<feComposite in2="hardAlpha" operator="arithmetic" k2="-1" k3="1"/>
<feColorMatrix type="matrix" values="0 0 0 0 0 0 0 0 0 0 0 0 0 0 0 0 0 0 0.65 0"/>
<feBlend mode="normal" in2="shape" result="effect2_innerShadow_915_22731"/>
</filter>
<clipPath id="clip0_915_22731">
<rect width="39" height="40" fill="white"/>
</clipPath>
</defs>
</svg>
