<svg width="359" height="362" viewBox="0 0 359 362" fill="none" xmlns="http://www.w3.org/2000/svg">
<g filter="url(#filter0_d_121:3179)">
<path fill-rule="evenodd" clip-rule="evenodd" d="M194.091 60.1534L194.162 56.4211C193.893 56.4544 193.622 56.4544 193.353 56.4211C192.929 56.3941 192.423 56.3511 191.835 56.2919C191.247 56.2327 190.608 56.1686 189.919 56.0997C189.231 56.03 188.583 55.9588 187.973 55.8862L186.362 55.6951L185.431 55.5827L183.32 55.3332L181.409 55.1084C180.788 55.0335 180.156 54.953 179.516 54.8668C178.875 54.7807 178.181 54.6705 177.433 54.5364C177.568 53.002 177.744 51.472 177.959 49.9466C178.174 48.4212 178.371 46.8942 178.551 45.3658C178.58 45.1222 178.634 44.6622 178.714 43.9857C178.793 43.3091 178.895 42.5404 179.02 41.6795C179.146 40.8171 179.291 39.9181 179.458 38.9823C179.624 38.0465 179.809 37.1976 180.012 36.4356C180.171 35.7892 180.397 35.161 180.686 34.561C180.734 34.3787 180.837 34.2155 180.981 34.0939C181.125 33.9722 181.304 33.8979 181.491 33.8811L174.046 33C174.18 33.089 174.293 33.2068 174.375 33.3448C174.458 33.4829 174.509 33.6377 174.525 33.7979C174.64 34.3257 174.7 34.8638 174.705 35.4039C174.72 36.0355 174.701 36.7188 174.648 37.4538C174.595 38.1888 174.536 38.889 174.467 39.5554C174.399 40.2219 174.329 40.8153 174.256 41.3334C174.183 41.8515 174.137 42.2021 174.116 42.3786C174.076 42.7112 174.012 43.2994 173.925 44.143C173.837 44.9867 173.728 45.9513 173.599 47.0369C173.471 48.1226 173.33 49.2577 173.178 50.4422C173.026 51.6267 172.863 52.7255 172.688 53.7385C172.512 54.7514 172.338 55.613 172.164 56.3233C172.103 56.768 171.937 57.1918 171.679 57.5596L194.091 60.1534ZM209.768 40.1488C208.015 40.0734 206.262 40.3215 204.599 40.8805C202.963 41.4409 201.467 42.3449 200.21 43.5316C198.844 44.8406 197.815 46.4599 197.21 48.2518C196.531 50.0054 196.276 51.8946 196.466 53.7654C196.655 55.4373 197.211 57.047 198.093 58.48C199.005 59.94 200.187 61.2125 201.576 62.2292C203.066 63.3311 204.71 64.2064 206.456 64.8264C208.134 65.4284 209.892 65.7747 211.672 65.8536C213.432 65.9471 215.194 65.7342 216.881 65.2243C218.524 64.7225 220.045 63.8831 221.345 62.7597C222.714 61.5548 223.743 60.0116 224.328 58.2845C224.987 56.5421 225.218 54.6671 225.003 52.8169C224.789 51.0721 224.221 49.3893 223.334 47.872C222.428 46.3328 221.247 44.9726 219.851 43.8587C218.434 42.7106 216.835 41.8091 215.12 41.1918C213.401 40.5672 211.595 40.2153 209.768 40.1488ZM204.349 47.0369C205.138 46.1497 206.079 45.4106 207.128 44.8544C208.166 44.3052 209.299 43.9592 210.467 43.8351C211.666 43.7071 212.878 43.8579 214.009 44.2756C215.105 44.6645 216.125 45.2435 217.021 45.9861C217.884 46.7019 218.581 47.5965 219.064 48.6081C219.566 49.6899 219.834 50.8657 219.851 52.0583C219.858 53.5018 219.595 54.9339 219.075 56.2806C218.679 57.3839 218.05 58.3886 217.23 59.2262C216.417 60.0664 215.463 60.7582 214.412 61.2705C213.359 61.7815 212.221 62.0946 211.054 62.1943C209.885 62.3 208.707 62.1465 207.604 61.7448C206.464 61.3492 205.426 60.7076 204.563 59.8657C203.746 59.0633 203.093 58.1089 202.641 57.0561C202.187 55.9889 201.941 54.8443 201.919 53.6845C201.891 52.4713 202.091 51.2636 202.509 50.1242C202.915 48.9845 203.54 47.9353 204.349 47.0358V47.0369ZM244.039 73.0867C245.153 73.4273 246.3 73.6477 247.461 73.7442C248.557 73.8432 249.662 73.7376 250.719 73.4329C251.76 73.1228 252.658 72.4584 253.26 71.5549C253.926 70.6564 254.239 69.5446 254.139 68.4306C254.012 67.2707 253.65 66.1488 253.076 65.1332C252.422 63.961 251.624 62.8745 250.702 61.8988C249.723 60.8453 248.707 59.8549 247.654 58.9273C246.601 57.9998 245.577 57.1673 244.582 56.4301C243.586 55.6913 242.76 55.092 242.102 54.632C242.047 54.5937 241.877 54.4678 241.591 54.2543C241.304 54.0408 240.946 53.7834 240.516 53.4822L239.145 52.5225L237.775 51.5627L236.678 50.7951L236.143 50.4209C236.22 50.5626 236.263 50.7197 236.271 50.8806C236.278 51.0415 236.25 51.202 236.187 51.3503C236.04 51.87 235.838 52.3728 235.587 52.8506C235.301 53.4133 234.962 54.0059 234.568 54.6286C234.173 55.2512 233.788 55.8401 233.412 56.3953C233.038 56.9497 232.699 57.4341 232.395 57.8484C232.092 58.2628 231.883 58.5519 231.767 58.716C231.576 58.9902 231.242 59.4773 230.764 60.177C230.286 60.8768 229.734 61.6755 229.109 62.5731C228.482 63.4722 227.817 64.4027 227.114 65.3647C226.411 66.3268 225.747 67.2169 225.122 68.035C224.497 68.8509 223.94 69.5305 223.451 70.0737C223.188 70.438 222.841 70.734 222.44 70.9368L227.238 74.296C227.237 73.976 227.323 73.6618 227.486 73.3868C227.707 72.9263 227.957 72.4807 228.236 72.0528C228.535 71.583 228.827 71.147 229.11 70.7446L229.705 69.895L230.731 68.4272C231.071 67.9432 231.422 67.4607 231.786 66.9797C232.561 67.4675 233.324 67.9545 234.074 68.4407C234.825 68.927 235.607 69.3855 236.419 69.8163C236.794 71.3043 237.143 72.781 237.467 74.2465C237.79 75.712 238.092 77.1971 238.372 78.7015C238.43 78.9323 238.493 79.2218 238.562 79.5702C238.631 79.9186 238.702 80.2745 238.775 80.6379C238.85 81.002 238.912 81.3594 238.963 81.7101C239.011 81.995 239.042 82.2824 239.056 82.5709L244.731 86.5449C244.505 86.179 244.344 85.7761 244.257 85.3547C244.055 84.6692 243.829 83.8357 243.576 82.8542C243.324 81.8727 243.061 80.8099 242.79 79.6658C242.515 78.5202 242.258 77.4278 242.019 76.3886C241.78 75.3494 241.573 74.4283 241.398 73.6251C241.224 72.8241 241.106 72.2922 241.044 72.0292C241.907 72.3896 242.906 72.7421 244.039 73.0867ZM247.037 69.0409C246.492 69.2236 245.916 69.2925 245.344 69.2431C244.698 69.1919 244.062 69.0621 243.448 68.8566C242.797 68.6456 242.16 68.3972 241.538 68.1126C240.919 67.8294 240.344 67.5424 239.812 67.2517C239.28 66.961 238.834 66.7033 238.473 66.4785C237.739 66.0469 237.01 65.5906 236.286 65.1096L234.109 63.6688L234.627 62.9282C235.344 61.9048 236.071 60.8952 236.808 59.8994C237.545 58.9037 238.318 57.926 239.126 56.9662L240.731 58.09C241.434 58.5823 242.191 59.1442 243 59.7758C243.809 60.4074 244.618 61.09 245.428 61.8235C246.179 62.4914 246.868 63.2264 247.485 64.0195C247.996 64.6556 248.381 65.3829 248.62 66.1627C248.721 66.4741 248.748 66.8047 248.699 67.1284C248.65 67.452 248.526 67.7598 248.337 68.0271C248.024 68.4951 247.568 68.8492 247.037 69.0364V69.0409ZM260.971 105.59L263.534 102.876C263.307 102.717 263.101 102.531 262.92 102.322C262.621 102.008 262.26 101.62 261.839 101.155C261.418 100.69 260.974 100.197 260.508 99.6737C260.038 99.1493 259.591 98.6432 259.167 98.1554L258.044 96.8664L257.406 96.1336L254.299 92.5519C253.268 91.3636 252.257 90.1498 251.265 88.9106L252.277 88.0318C253.035 87.3732 253.793 86.7225 254.55 86.0796C255.307 85.4368 256.065 84.7861 256.822 84.1275C258.717 86.2066 260.578 88.2989 262.407 90.4042L262.912 90.9852L263.757 91.9585C264.072 92.3204 264.404 92.7115 264.754 93.1318L265.728 94.3028C266.028 94.6647 266.278 94.9869 266.479 95.2694C266.61 95.4452 266.732 95.6279 266.843 95.8167L269.569 93.4925L259.344 81.9787C260.203 81.2294 261.056 80.5027 261.904 79.7984C262.752 79.0941 263.635 78.4164 264.551 77.7653C266.489 79.8939 268.395 82.0367 270.268 84.1938L270.927 84.9513L272.035 86.228C272.452 86.7082 272.89 87.2214 273.35 87.7676C273.81 88.3138 274.237 88.8301 274.629 89.3163C275.022 89.8026 275.353 90.2173 275.621 90.5604C275.803 90.7689 275.958 90.9987 276.083 91.2448L279.129 89.0859L263.243 70.6974C263.243 70.7918 263.234 70.8896 263.235 70.993C263.236 71.0964 263.235 71.1953 263.226 71.2897C263.142 71.5984 262.988 71.8836 262.776 72.1236C262.46 72.5289 262.122 72.9171 261.765 73.2868C261.363 73.7094 260.913 74.1525 260.417 74.6163C259.92 75.0801 259.447 75.5135 258.998 75.9166C258.548 76.3205 258.139 76.6831 257.77 77.0045C257.4 77.327 257.138 77.5529 256.984 77.6855C256.731 77.9043 256.293 78.2924 255.668 78.8499C255.043 79.4073 254.319 80.0442 253.494 80.7604C252.67 81.4774 251.798 82.2267 250.88 83.0081C249.962 83.7896 249.101 84.4984 248.299 85.1345C247.488 85.7661 246.779 86.286 246.173 86.6944C245.829 86.9845 245.42 87.1876 244.981 87.2866L260.971 105.59ZM275.991 136.945L278.423 142.564C278.602 142.234 278.866 141.956 279.187 141.76C279.636 141.42 280.184 141.044 280.831 140.629C281.477 140.215 282.181 139.789 282.941 139.353C283.699 138.914 284.427 138.502 285.123 138.116C285.82 137.73 286.435 137.397 286.969 137.117C287.506 136.836 287.872 136.641 288.067 136.533C289.593 135.679 291.138 134.81 292.701 133.927C294.239 133.057 295.821 132.269 297.442 131.566L298.041 131.307C298.319 131.187 298.605 131.088 298.897 131.01C299.171 130.935 299.452 130.892 299.736 130.884C299.848 130.874 299.961 130.889 300.066 130.928C300.172 130.967 300.267 131.029 300.346 131.109L297.104 123.613C297.085 123.673 297.052 123.727 297.008 123.772C296.964 123.816 296.909 123.85 296.85 123.869C296.195 124.065 295.509 124.138 294.827 124.086C293.849 124.072 292.714 124.004 291.421 123.883C290.129 123.761 288.749 123.604 287.28 123.412C285.811 123.221 284.405 123.02 283.063 122.811C281.722 122.601 280.513 122.406 279.437 122.227C278.363 122.047 277.578 121.919 277.083 121.842C277.356 121.406 277.795 120.736 278.401 119.831C279.007 118.926 279.695 117.917 280.465 116.805C281.236 115.692 282.048 114.531 282.901 113.321C283.753 112.111 284.582 110.992 285.387 109.965C286.194 108.935 286.927 108.059 287.587 107.336C288.016 106.804 288.539 106.355 289.13 106.012C289.188 105.981 289.254 105.967 289.32 105.97C289.386 105.974 289.449 105.996 289.503 106.034L286.261 98.5364C286.26 98.6446 286.236 98.7514 286.19 98.8496C286.145 98.9478 286.079 99.0353 285.997 99.1062C285.797 99.308 285.574 99.4846 285.331 99.6322C285.074 99.7912 284.806 99.9317 284.529 100.052L283.93 100.311C282.308 101.011 280.65 101.625 278.963 102.15C277.249 102.684 275.564 103.225 273.907 103.772C273.693 103.841 273.299 103.968 272.723 104.157C272.148 104.346 271.482 104.56 270.724 104.803C269.967 105.046 269.168 105.293 268.329 105.547C267.489 105.801 266.698 106.021 265.954 106.21C265.21 106.399 264.559 106.539 264.004 106.634C263.646 106.727 263.271 106.739 262.908 106.67L265.339 112.289C265.435 112.108 265.599 111.972 265.795 111.91L266.348 111.671C267.62 111.12 268.92 110.637 270.243 110.222C271.571 109.806 272.895 109.41 274.214 109.034C275.423 108.68 276.672 108.309 277.963 107.923C279.254 107.536 280.501 107.216 281.705 106.961C280.682 108.644 279.6 110.273 278.457 111.848C277.315 113.424 276.176 115.005 275.039 116.591L273.027 119.358C272.81 119.646 272.597 119.926 272.387 120.2C272.178 120.473 271.985 120.745 271.81 121.015C271.956 121.467 272.13 121.909 272.329 122.341C272.529 122.777 272.722 123.21 272.909 123.64L273.471 124.93C273.656 125.361 273.851 125.786 274.058 126.207C274.388 126.286 274.724 126.343 275.062 126.375C275.405 126.409 275.745 126.45 276.081 126.499L279.462 126.897C281.417 127.146 283.36 127.394 285.29 127.641C287.219 127.888 289.147 128.215 291.074 128.621C290.065 129.324 288.979 130.019 287.816 130.704C286.652 131.39 285.524 132.042 284.432 132.661C283.254 133.365 282.058 134.058 280.845 134.74C279.637 135.42 278.395 136.037 277.123 136.588L276.57 136.827C276.394 136.923 276.192 136.959 275.994 136.93L275.991 136.945ZM279.328 157.887L279.728 163.731C279.966 163.523 280.262 163.392 280.576 163.355C281.073 163.238 281.577 163.153 282.085 163.1C282.628 163.04 283.156 162.993 283.668 162.958L284.703 162.887C286.039 162.795 287.359 162.71 288.662 162.632C289.964 162.554 291.272 162.47 292.586 162.38L293.971 162.285C294.65 162.238 295.424 162.197 296.295 162.16C297.165 162.123 298.075 162.1 299.023 162.089C299.974 162.08 300.842 162.105 301.629 162.163C302.294 162.2 302.954 162.307 303.597 162.481C303.785 162.495 303.964 162.566 304.11 162.685C304.256 162.804 304.362 162.965 304.413 163.147L303.901 155.665C303.839 155.814 303.744 155.946 303.623 156.053C303.503 156.16 303.36 156.239 303.206 156.283C302.708 156.494 302.19 156.654 301.66 156.759C301.044 156.891 300.37 156.999 299.638 157.082C298.906 157.166 298.206 157.236 297.539 157.293C296.871 157.35 296.281 157.391 295.769 157.414C295.257 157.437 294.9 157.456 294.699 157.471C294.365 157.494 293.781 157.539 292.947 157.607C292.114 157.675 291.151 157.747 290.061 157.822C288.969 157.897 287.822 157.97 286.62 158.041C285.418 158.112 284.302 158.155 283.274 158.17C282.246 158.185 281.367 158.172 280.637 158.133C280.188 158.157 279.74 158.072 279.329 157.887H279.328ZM297.839 193.717C298.552 193.419 299.197 192.98 299.737 192.426C300.3 191.841 300.778 191.18 301.157 190.462C301.563 189.709 301.909 188.926 302.192 188.119C302.475 187.314 302.712 186.494 302.901 185.662C303.088 184.838 303.245 184.085 303.374 183.403C303.592 182.234 303.776 181.073 303.925 179.919C304.074 178.765 304.201 177.6 304.308 176.424C304.394 176.014 304.448 175.597 304.471 175.179C304.506 174.655 304.538 174.238 304.566 173.927L305 169.126C304.915 169.263 304.8 169.379 304.664 169.466C304.528 169.552 304.374 169.608 304.213 169.627C303.69 169.757 303.154 169.832 302.614 169.852C301.984 169.884 301.301 169.884 300.564 169.852C299.827 169.819 299.125 169.778 298.458 169.728C297.79 169.679 297.202 169.625 296.691 169.568C296.181 169.512 295.826 169.474 295.626 169.456C295.315 169.428 294.737 169.382 293.891 169.317C293.046 169.252 292.084 169.17 291.007 169.072C289.928 168.975 288.79 168.867 287.592 168.747C286.394 168.627 285.286 168.493 284.267 168.346C283.25 168.196 282.378 168.044 281.653 167.891C281.2 167.843 280.765 167.689 280.383 167.441L279.856 173.275C280.139 173.114 280.46 173.032 280.785 173.039C281.294 173.004 281.805 172.999 282.315 173.027C282.861 173.054 283.379 173.091 283.868 173.139L284.902 173.232C285.679 173.303 286.44 173.378 287.183 173.457C287.926 173.536 288.687 173.611 289.465 173.682C289.39 174.527 289.315 175.601 289.24 176.905C289.165 178.209 289.141 179.595 289.167 181.063C289.192 182.551 289.299 184.036 289.488 185.511C289.654 186.907 289.98 188.279 290.462 189.6C290.867 190.739 291.505 191.781 292.336 192.659C293.148 193.481 294.234 193.974 295.387 194.045C296.219 194.137 297.06 194.021 297.837 193.708L297.839 193.717ZM293.869 186.888C293.365 186.18 293.009 185.377 292.823 184.528C292.61 183.606 292.493 182.665 292.471 181.718C292.446 180.753 292.441 179.946 292.455 179.298C292.469 178.399 292.504 177.511 292.561 176.635C292.618 175.759 292.687 174.875 292.768 173.982C294.123 174.104 295.477 174.238 296.831 174.383C298.185 174.528 299.533 174.74 300.876 175.017L300.731 176.617C300.693 177.039 300.64 177.617 300.574 178.35C300.508 179.083 300.408 179.887 300.273 180.76C300.138 181.633 299.957 182.513 299.731 183.4C299.53 184.219 299.244 185.016 298.878 185.777C298.58 186.412 298.163 186.984 297.65 187.462C297.426 187.671 297.159 187.829 296.868 187.924C296.577 188.02 296.269 188.051 295.965 188.017C295.552 187.995 295.15 187.882 294.787 187.685C294.424 187.489 294.109 187.213 293.867 186.879L293.869 186.888ZM283.24 218.256L281.514 223.043C281.918 223.235 282.315 223.42 282.703 223.595C283.09 223.771 283.489 223.933 283.913 224.085C285.348 224.667 286.904 224.892 288.445 224.74C289.681 224.582 290.852 224.095 291.835 223.329C292.855 222.502 293.705 221.486 294.337 220.335C296.139 217.132 297.247 213.585 297.59 209.926C297.7 208.782 297.711 207.631 297.621 206.486C297.541 205.391 297.307 204.312 296.926 203.282C296.566 202.305 296.019 201.407 295.317 200.637C294.568 199.842 293.636 199.244 292.601 198.893C291.662 198.516 290.616 198.5 289.665 198.849C288.69 199.242 287.812 199.842 287.092 200.608C286.222 201.514 285.455 202.515 284.807 203.591C284.091 204.756 283.401 205.961 282.74 207.205C282.078 208.45 281.442 209.673 280.83 210.875C280.286 211.964 279.67 213.015 278.986 214.021C278.482 214.79 277.858 215.474 277.137 216.044C276.872 216.262 276.554 216.405 276.215 216.461C275.876 216.517 275.529 216.483 275.208 216.362C274.948 216.256 274.725 216.076 274.565 215.845C274.405 215.613 274.316 215.341 274.309 215.06C274.212 214.305 274.218 213.541 274.327 212.788C274.433 211.971 274.599 211.163 274.825 210.371C275.049 209.585 275.225 209.014 275.353 208.658C276.152 206.456 277.218 204.361 278.527 202.419C279.82 200.469 281.407 198.73 283.231 197.265C283.06 197.094 282.921 196.893 282.822 196.672C282.659 196.366 282.489 196.032 282.312 195.67C282.134 195.308 281.977 194.955 281.84 194.61C281.703 194.264 281.595 194.007 281.514 193.835C281.397 194.07 281.257 194.294 281.096 194.502C280.901 194.758 280.694 195.004 280.474 195.24C280.242 195.488 280.018 195.728 279.8 195.959C279.586 196.19 279.399 196.395 279.238 196.576C277.681 198.345 276.312 200.272 275.156 202.327C274.001 204.379 273.019 206.524 272.221 208.74C272.041 209.245 271.849 209.876 271.646 210.633C271.435 211.436 271.272 212.251 271.158 213.073C271.034 213.943 270.962 214.82 270.941 215.698C270.916 216.54 270.995 217.381 271.177 218.203C271.333 218.94 271.631 219.639 272.054 220.262C272.464 220.852 273.052 221.295 273.732 221.526C274.368 221.767 275.064 221.793 275.716 221.601C276.401 221.39 277.041 221.053 277.603 220.608C278.244 220.107 278.826 219.535 279.338 218.903C279.883 218.242 280.392 217.553 280.866 216.839C281.334 216.129 281.756 215.434 282.133 214.752C282.51 214.07 282.831 213.492 283.096 213.018C283.303 212.643 283.565 212.132 283.883 211.485C284.2 210.837 284.566 210.151 284.98 209.426C285.396 208.698 285.843 207.969 286.32 207.24C286.757 206.56 287.259 205.925 287.821 205.344C288.287 204.852 288.836 204.448 289.444 204.149C289.704 204.021 289.988 203.947 290.278 203.932C290.568 203.917 290.857 203.962 291.129 204.064C291.751 204.278 292.298 204.669 292.702 205.188C293.104 205.708 293.404 206.299 293.587 206.93C293.785 207.619 293.887 208.332 293.89 209.049C293.9 209.8 293.861 210.551 293.772 211.297C293.688 212.012 293.563 212.722 293.398 213.422C293.259 214.022 293.087 214.613 292.883 215.194C292.602 215.981 292.251 216.742 291.833 217.466C291.458 218.126 290.959 218.707 290.363 219.178C289.787 219.621 289.108 219.909 288.389 220.014C287.531 220.113 286.663 219.997 285.861 219.677C285.391 219.508 284.938 219.297 284.506 219.045C284.085 218.798 283.663 218.539 283.239 218.268L283.24 218.256ZM264.102 232.345C264.757 231.758 265.502 231.281 266.308 230.932C267.078 230.599 267.911 230.438 268.749 230.462C269.652 230.505 270.522 230.818 271.246 231.361C272.559 232.288 273.88 233.193 275.209 234.077C276.538 234.96 277.859 235.865 279.171 236.792L280.251 237.554C280.734 237.895 281.225 238.255 281.723 238.634C282.221 239.012 282.685 239.38 283.114 239.738C283.446 239.997 283.747 240.292 284.013 240.617L287.641 235.476C287.327 235.521 287.007 235.485 286.711 235.371C286.356 235.247 286.012 235.094 285.683 234.913C285.344 234.727 285.016 234.523 284.701 234.301L283.908 233.739C282.322 232.62 280.769 231.483 279.249 230.327C277.729 229.172 276.167 228.028 274.563 226.896C273.357 225.985 271.89 225.489 270.379 225.48C268.956 225.502 267.555 225.834 266.273 226.453C264.92 227.105 263.674 227.959 262.579 228.988C261.488 229.988 260.505 231.1 259.645 232.304C259.089 233.098 258.586 233.927 258.139 234.786C257.662 235.697 257.259 236.646 256.936 237.623C256.611 238.599 256.383 239.604 256.252 240.624C256.123 241.604 256.133 242.596 256.28 243.573C256.427 244.519 256.751 245.429 257.236 246.255C257.767 247.137 258.484 247.895 259.336 248.474C260.939 249.607 262.539 250.696 264.137 251.741C265.735 252.786 267.336 253.875 268.94 255.008L269.719 255.559C270.029 255.778 270.327 256.015 270.61 256.269C270.891 256.518 271.152 256.791 271.387 257.084C271.593 257.325 271.734 257.615 271.796 257.926L275.309 252.949C274.915 252.807 274.539 252.623 274.185 252.399C273.703 252.113 273.2 251.8 272.677 251.458C272.154 251.116 271.651 250.775 271.168 250.433L270.088 249.671C268.776 248.744 267.481 247.803 266.203 246.846C264.925 245.889 263.629 244.948 262.317 244.021C261.554 243.516 260.976 242.777 260.67 241.915C260.39 241.084 260.287 240.204 260.367 239.331C260.447 238.409 260.675 237.505 261.041 236.656C261.385 235.835 261.813 235.053 262.32 234.322C262.834 233.592 263.431 232.926 264.1 232.336L264.102 232.345ZM224.364 265.596L219.444 269.243C219.807 269.343 220.137 269.537 220.401 269.805C220.833 270.165 221.325 270.614 221.876 271.154C222.426 271.693 223.001 272.281 223.599 272.918C224.199 273.557 224.765 274.172 225.298 274.762C225.832 275.353 226.296 275.877 226.692 276.336C227.086 276.793 227.358 277.105 227.51 277.272C228.69 278.564 229.888 279.87 231.105 281.192C232.3 282.492 233.426 283.854 234.476 285.273L234.865 285.797C235.046 286.04 235.208 286.296 235.35 286.563C235.485 286.811 235.59 287.076 235.663 287.349C235.698 287.456 235.709 287.57 235.694 287.682C235.679 287.793 235.64 287.9 235.579 287.995L242.14 283.133C242.078 283.128 242.017 283.108 241.964 283.075C241.911 283.042 241.866 282.997 241.833 282.944C241.493 282.351 241.264 281.7 241.159 281.024C240.95 280.068 240.758 278.947 240.583 277.661C240.407 276.374 240.246 274.994 240.098 273.52C239.948 272.046 239.824 270.631 239.725 269.277C239.626 267.922 239.541 266.701 239.469 265.613C239.399 264.525 239.346 263.732 239.308 263.233C239.794 263.401 240.546 263.676 241.566 264.059C242.585 264.442 243.724 264.882 244.983 265.381C246.24 265.879 247.553 266.403 248.923 266.955C250.292 267.506 251.57 268.06 252.755 268.615C253.941 269.165 254.961 269.68 255.815 270.159C256.431 270.455 256.987 270.863 257.455 271.36C257.498 271.41 257.528 271.471 257.539 271.536C257.551 271.601 257.544 271.668 257.52 271.729L264.081 266.867C263.975 266.89 263.866 266.89 263.76 266.868C263.654 266.846 263.554 266.802 263.466 266.739C263.225 266.59 263.002 266.412 262.803 266.21C262.59 265.996 262.392 265.766 262.211 265.523L261.828 264.999C260.777 263.579 259.802 262.104 258.907 260.58C257.996 259.032 257.086 257.512 256.175 256.021C256.06 255.829 255.846 255.474 255.532 254.957C255.218 254.439 254.857 253.839 254.448 253.158C254.04 252.475 253.617 251.754 253.179 250.995C252.741 250.236 252.346 249.515 251.994 248.832C251.641 248.15 251.355 247.55 251.137 247.033C250.965 246.706 250.868 246.344 250.852 245.975L245.93 249.622C246.129 249.674 246.299 249.802 246.403 249.979L246.763 250.463C247.588 251.577 248.354 252.733 249.059 253.927C249.765 255.126 250.452 256.325 251.119 257.523C251.737 258.62 252.382 259.754 253.053 260.923C253.724 262.093 254.32 263.234 254.841 264.348C252.968 263.734 251.136 263.05 249.344 262.297C247.552 261.543 245.754 260.794 243.95 260.049L240.798 258.718C240.469 258.573 240.147 258.429 239.834 258.288C239.521 258.146 239.213 258.021 238.909 257.911C238.503 258.156 238.111 258.425 237.736 258.717C237.358 259.011 236.98 259.298 236.604 259.578L235.48 260.414C235.105 260.693 234.735 260.982 234.37 261.278C234.369 261.617 234.39 261.954 234.434 262.29C234.479 262.631 234.516 262.972 234.546 263.311L234.928 266.694C235.13 268.656 235.331 270.604 235.531 272.538C235.73 274.473 235.85 276.425 235.89 278.395C234.976 277.57 234.053 276.671 233.121 275.697C232.189 274.723 231.298 273.773 230.447 272.846C229.494 271.859 228.548 270.852 227.607 269.827C226.67 268.805 225.787 267.735 224.961 266.621L224.603 266.138C224.47 265.988 224.389 265.8 224.371 265.601L224.364 265.596ZM210.431 298.525C210.124 298.273 209.909 297.927 209.82 297.541C209.582 296.941 209.333 296.195 209.071 295.302C208.81 294.409 208.552 293.431 208.299 292.367C208.047 291.302 207.813 290.297 207.597 289.351C207.38 288.406 207.197 287.566 207.047 286.832C206.898 286.1 206.798 285.613 206.748 285.371C206.703 285.153 206.622 284.754 206.504 284.175C206.385 283.595 206.254 282.927 206.111 282.171C205.968 281.414 205.82 280.607 205.667 279.75C205.515 278.893 205.381 278.095 205.263 277.356C205.145 276.617 205.054 275.98 204.991 275.446C204.932 275.112 204.919 274.771 204.954 274.434L201.021 275.239C199.754 275.498 198.293 275.814 196.639 276.187C194.985 276.56 193.292 277.026 191.562 277.585C189.841 278.139 188.163 278.819 186.541 279.617C185.018 280.353 183.607 281.304 182.353 282.439C181.206 283.478 180.312 284.765 179.741 286.203C179.169 287.771 179.071 289.472 179.461 291.095C179.752 292.667 180.441 294.137 181.462 295.366C182.454 296.532 183.661 297.497 185.016 298.209C186.458 298.963 187.997 299.516 189.589 299.853C191.252 300.217 192.944 300.437 194.645 300.511C197.791 300.643 200.942 300.405 204.033 299.803L210.431 298.525ZM201.064 282.213C201.332 283.468 201.594 284.73 201.85 285.999C202.213 287.77 202.562 289.53 202.898 291.281C203.233 293.031 203.528 294.804 203.782 296.601C203.502 296.681 203.221 296.756 202.939 296.826C202.658 296.895 202.374 296.959 202.09 297.017C200.981 297.238 199.859 297.388 198.731 297.466C197.506 297.555 196.275 297.544 195.052 297.434C193.82 297.325 192.599 297.112 191.402 296.797C190.253 296.501 189.154 296.035 188.144 295.413C187.176 294.814 186.324 294.045 185.63 293.143C184.907 292.181 184.415 291.066 184.194 289.884C183.95 288.828 184.028 287.722 184.419 286.711C184.817 285.737 185.409 284.855 186.159 284.117C186.979 283.312 187.909 282.627 188.921 282.083C189.988 281.5 191.093 280.989 192.228 280.552C193.324 280.128 194.441 279.763 195.575 279.457C196.666 279.165 197.627 278.934 198.457 278.764C198.741 278.707 199.027 278.652 199.312 278.607C199.597 278.562 199.884 278.507 200.168 278.449C200.499 279.704 200.798 280.96 201.066 282.215L201.064 282.213ZM164.504 303.51C166.214 303.112 167.837 302.4 169.289 301.412C170.713 300.432 171.911 299.158 172.802 297.677C173.764 296.049 174.319 294.213 174.42 292.325C174.601 290.454 174.338 288.567 173.651 286.818C173.018 285.259 172.049 283.859 170.814 282.716C169.542 281.555 168.059 280.649 166.446 280.044C164.715 279.385 162.896 278.985 161.047 278.859C159.27 278.731 157.484 278.872 155.748 279.275C154.028 279.658 152.388 280.339 150.901 281.285C149.454 282.211 148.215 283.429 147.266 284.861C146.272 286.39 145.697 288.153 145.599 289.974C145.434 291.83 145.716 293.698 146.422 295.422C147.099 297.044 148.098 298.511 149.361 299.733C150.648 300.969 152.15 301.96 153.794 302.655C155.467 303.379 157.25 303.817 159.068 303.95C160.893 304.088 162.727 303.94 164.506 303.512L164.504 303.51ZM167.867 295.419C167.346 296.486 166.639 297.451 165.779 298.269C164.927 299.078 163.929 299.716 162.838 300.151C161.718 300.597 160.51 300.778 159.309 300.681C158.148 300.602 157.01 300.319 155.947 299.846C154.923 299.388 154.011 298.714 153.273 297.87C152.499 296.963 151.924 295.903 151.588 294.759C151.193 293.372 151.06 291.924 151.197 290.488C151.282 289.319 151.617 288.182 152.181 287.154C152.738 286.126 153.47 285.203 154.344 284.427C155.22 283.65 156.232 283.04 157.329 282.629C158.426 282.211 159.601 282.039 160.772 282.127C161.975 282.201 163.148 282.54 164.206 283.118C165.21 283.67 166.096 284.414 166.814 285.306C167.539 286.213 168.084 287.25 168.419 288.362C168.772 289.522 168.905 290.739 168.81 291.948C168.725 293.155 168.406 294.334 167.869 295.419H167.867ZM122.641 270.02L121.81 273.66C122.08 273.681 122.347 273.735 122.604 273.82C123.013 273.934 123.5 274.079 124.064 274.257C124.629 274.434 125.241 274.627 125.901 274.836C126.56 275.045 127.18 275.247 127.762 275.442L129.301 275.958C129.746 276.108 130.042 276.207 130.19 276.256L132.206 276.93L134.03 277.542C134.623 277.74 135.224 277.948 135.834 278.164C136.444 278.381 137.101 278.63 137.806 278.913C137.357 280.387 136.873 281.848 136.355 283.296C135.838 284.743 135.333 286.198 134.841 287.661C134.766 287.893 134.618 288.332 134.399 288.978C134.179 289.624 133.923 290.355 133.629 291.173C133.33 291.991 133.004 292.841 132.652 293.723C132.3 294.605 131.946 295.398 131.59 296.103C131.301 296.703 130.951 297.272 130.545 297.8C130.46 297.969 130.326 298.108 130.16 298.197C129.994 298.287 129.805 298.323 129.618 298.301L136.727 300.683C136.614 300.569 136.527 300.43 136.474 300.278C136.421 300.126 136.403 299.964 136.422 299.804C136.416 299.264 136.466 298.725 136.571 298.196C136.686 297.575 136.844 296.91 137.045 296.201C137.247 295.492 137.449 294.818 137.652 294.178C137.854 293.54 138.044 292.974 138.221 292.48C138.397 291.986 138.514 291.655 138.571 291.485C138.678 291.167 138.86 290.605 139.118 289.799C139.377 288.994 139.68 288.072 140.028 287.033C140.375 285.996 140.744 284.914 141.133 283.785C141.523 282.655 141.907 281.613 142.286 280.658C142.664 279.703 143.011 278.895 143.327 278.236C143.476 277.811 143.726 277.429 144.054 277.12L122.641 270.02ZM103.19 286.385C104.892 286.817 106.66 286.931 108.404 286.722C110.119 286.507 111.769 285.928 113.242 285.023C114.845 284.02 116.183 282.646 117.141 281.017C118.163 279.438 118.798 277.641 118.994 275.77C119.148 274.096 118.933 272.408 118.364 270.825C117.768 269.209 116.869 267.722 115.715 266.442C114.482 265.059 113.05 263.867 111.467 262.903C109.948 261.972 108.297 261.274 106.571 260.833C104.868 260.382 103.099 260.229 101.344 260.384C99.6324 260.54 97.9726 261.051 96.4702 261.885C94.8842 262.785 93.5621 264.086 92.6362 265.657C91.6362 267.228 91.0277 269.017 90.8618 270.873C90.7153 272.624 90.9279 274.386 91.4866 276.052C92.0579 277.744 92.9339 279.316 94.0711 280.692C95.2232 282.105 96.6052 283.315 98.159 284.269C99.7158 285.234 101.414 285.95 103.192 286.39L103.19 286.385ZM109.9 280.748C108.947 281.457 107.875 281.99 106.734 282.321C105.606 282.648 104.426 282.755 103.257 282.638C102.06 282.518 100.906 282.123 99.8861 281.484C98.8918 280.88 98.0116 280.105 97.2859 279.196C96.5884 278.319 96.09 277.3 95.8251 276.211C95.5545 275.05 95.5327 273.844 95.7611 272.674C96.0488 271.26 96.5984 269.912 97.3814 268.699C97.9939 267.699 98.8154 266.844 99.7895 266.192C100.757 265.535 101.832 265.052 102.965 264.766C104.1 264.48 105.278 264.406 106.441 264.546C107.607 264.679 108.73 265.069 109.729 265.686C110.763 266.306 111.648 267.146 112.321 268.146C112.958 269.099 113.403 270.169 113.629 271.293C113.856 272.432 113.863 273.603 113.648 274.744C113.428 275.937 112.986 277.078 112.344 278.108C111.711 279.14 110.883 280.038 109.906 280.752L109.9 280.748ZM76.3551 247.207C75.3333 246.648 74.2548 246.201 73.138 245.871C72.083 245.553 70.9781 245.433 69.8793 245.517C68.7979 245.611 67.7834 246.08 67.0117 246.844C66.1784 247.589 65.6478 248.614 65.5205 249.725C65.4094 250.887 65.5371 252.059 65.8958 253.17C66.2988 254.45 66.8602 255.675 67.5667 256.817C68.3158 258.046 69.1107 259.222 69.9512 260.343C70.7917 261.465 71.6266 262.487 72.4559 263.41C73.2799 264.334 73.9684 265.088 74.5212 265.671C74.5673 265.72 74.71 265.878 74.946 266.146C75.1819 266.413 75.482 266.737 75.8449 267.119L76.9933 268.335L78.1429 269.552C78.5025 269.934 78.8088 270.259 79.062 270.525C79.3149 270.794 79.4643 270.951 79.5115 271.001C79.4661 270.846 79.4556 270.684 79.4806 270.525C79.5057 270.366 79.5658 270.214 79.6565 270.081C79.9066 269.603 80.2051 269.151 80.5475 268.733C80.9408 268.239 81.3937 267.727 81.9061 267.198C82.4185 266.668 82.914 266.169 83.3927 265.701C83.8722 265.233 84.3022 264.827 84.6827 264.484C85.0633 264.14 85.3254 263.898 85.4693 263.76C85.7135 263.531 86.1397 263.12 86.748 262.529C87.3563 261.938 88.0583 261.268 88.8538 260.519C89.6486 259.769 90.4876 258.992 91.3709 258.187C92.2541 257.381 93.0841 256.644 93.8609 255.974C94.6385 255.299 95.3214 254.746 95.9094 254.315C96.2415 254.011 96.6415 253.792 97.0758 253.674L93.0553 249.415C92.9916 249.728 92.844 250.018 92.6283 250.254C92.3189 250.661 91.9838 251.047 91.6248 251.41C91.2345 251.809 90.86 252.177 90.5011 252.514L89.7471 253.227L88.4448 254.456C88.0155 254.862 87.5739 255.263 87.1199 255.661C86.4607 255.027 85.812 254.397 85.1737 253.771C84.5355 253.145 83.8613 252.537 83.1511 251.948C83.0852 250.415 83.0421 248.899 83.0219 247.399C83.0017 245.899 83.0054 244.383 83.0331 242.852C83.0242 242.616 83.0207 242.319 83.023 241.964C83.0252 241.609 83.023 241.246 83.0309 240.875C83.0387 240.504 83.0444 240.141 83.0624 239.787C83.0736 239.498 83.1018 239.21 83.1467 238.925L78.3901 233.887C78.5391 234.29 78.6152 234.717 78.6148 235.148C78.674 235.86 78.7283 236.722 78.7778 237.732C78.8272 238.743 78.8706 239.838 78.9081 241.016C78.9463 242.193 78.9774 243.315 79.0014 244.381C79.0253 245.447 79.0415 246.391 79.0497 247.212C79.0587 248.033 79.0669 248.577 79.0744 248.846C78.3043 248.323 77.3986 247.778 76.3573 247.211L76.3551 247.207ZM72.6009 250.568C73.1714 250.499 73.7502 250.548 74.301 250.712C74.9221 250.893 75.519 251.148 76.0786 251.473C76.6724 251.811 77.2465 252.184 77.7979 252.588C78.3478 252.99 78.8534 253.387 79.3149 253.78C79.7763 254.173 80.161 254.515 80.4689 254.807C81.1004 255.378 81.7229 255.972 82.3365 256.59L84.1771 258.442L83.5197 259.063C82.6117 259.92 81.6959 260.762 80.7723 261.588C79.8486 262.415 78.8942 263.216 77.9091 263.992L76.5607 262.568C75.9704 261.944 75.3434 261.24 74.6797 260.454C74.0159 259.669 73.3612 258.838 72.7155 257.96C72.1136 257.154 71.587 256.295 71.1423 255.393C70.7721 254.666 70.5433 253.876 70.4681 253.064C70.4322 252.739 70.4727 252.409 70.5862 252.102C70.6997 251.795 70.8832 251.519 71.1221 251.295C71.524 250.901 72.0422 250.648 72.5997 250.572L72.6009 250.568ZM51.1475 208.163L49.2372 203.449C48.8072 203.576 48.3892 203.704 47.9832 203.833C47.5772 203.961 47.1677 204.111 46.755 204.282C45.2988 204.809 43.9921 205.681 42.9468 206.823C42.1347 207.767 41.5913 208.912 41.3737 210.138C41.1673 211.435 41.2147 212.76 41.513 214.038C42.3131 217.626 43.8583 221.005 46.0482 223.956C46.731 224.882 47.4923 225.746 48.3236 226.541C49.1157 227.302 50.0107 227.948 50.9823 228.46C51.9029 228.946 52.9094 229.249 53.9455 229.351C55.0337 229.441 56.1275 229.263 57.1311 228.833C58.0823 228.485 58.8713 227.798 59.3459 226.903C59.8079 225.959 60.0598 224.926 60.0841 223.875C60.1265 222.619 60.0277 221.362 59.7897 220.128C59.5448 218.78 59.2526 217.423 58.9132 216.059C58.5739 214.695 58.2301 213.359 57.8817 212.051C57.5592 210.879 57.316 209.686 57.1536 208.481C57.0149 207.573 57.0237 206.648 57.1794 205.743C57.2316 205.404 57.3718 205.085 57.5862 204.817C57.8006 204.549 58.0815 204.342 58.4009 204.217C58.6656 204.122 58.9523 204.106 59.2259 204.171C59.4994 204.237 59.7481 204.38 59.9415 204.584C60.5172 205.081 61.0233 205.654 61.4461 206.286C61.9133 206.966 62.3294 207.68 62.6911 208.421C63.0491 209.155 63.2997 209.697 63.4428 210.049C64.3198 212.221 64.927 214.492 65.2508 216.812C65.592 219.127 65.5735 221.481 65.1958 223.79C65.4373 223.803 65.6744 223.859 65.8958 223.956C66.2217 224.077 66.5715 224.212 66.9453 224.361C67.3192 224.51 67.672 224.668 68.0039 224.834C68.341 225 68.5904 225.119 68.7646 225.194C68.6948 224.94 68.6496 224.68 68.6298 224.417C68.6033 224.097 68.5932 223.775 68.5994 223.454C68.6061 223.117 68.6118 222.786 68.6163 222.472C68.6208 222.157 68.623 221.879 68.6163 221.639C68.5935 219.281 68.3235 216.933 67.8106 214.632C67.2987 212.332 66.5951 210.08 65.7071 207.899C65.5063 207.402 65.2276 206.804 64.871 206.106C64.4915 205.368 64.0683 204.653 63.6035 203.965C63.1144 203.235 62.5823 202.534 62.0102 201.867C61.467 201.224 60.8461 200.652 60.1617 200.162C59.5548 199.719 58.868 199.398 58.1391 199.216C57.4397 199.052 56.7062 199.116 56.0456 199.398C55.4122 199.643 54.8766 200.089 54.5208 200.668C54.1518 201.282 53.9004 201.96 53.7792 202.667C53.638 203.468 53.5871 204.283 53.6275 205.096C53.6647 205.952 53.7461 206.805 53.8713 207.652C53.9964 208.493 54.1462 209.293 54.3208 210.052C54.4953 210.811 54.6429 211.456 54.7635 211.986C54.8609 212.404 55.0077 212.959 55.204 213.649C55.4003 214.34 55.5876 215.095 55.7658 215.915C55.9419 216.735 56.0965 217.576 56.2299 218.437C56.36 219.235 56.4104 220.043 56.3805 220.851C56.3622 221.528 56.2237 222.195 55.9715 222.823C55.864 223.093 55.7023 223.338 55.4965 223.543C55.2907 223.748 55.045 223.908 54.7747 224.015C54.1721 224.269 53.5089 224.345 52.8645 224.233C52.2184 224.114 51.6005 223.875 51.043 223.528C50.4352 223.148 49.8828 222.685 49.4013 222.154C48.8905 221.601 48.4167 221.015 47.9832 220.399C47.5682 219.811 47.1873 219.2 46.8426 218.568C46.5451 218.03 46.2773 217.475 46.0403 216.907C45.7232 216.134 45.4765 215.333 45.3032 214.515C45.141 213.773 45.1242 213.007 45.2537 212.259C45.3848 211.544 45.6983 210.875 46.1639 210.317C46.7367 209.671 47.4612 209.178 48.272 208.882C48.7343 208.693 49.2132 208.547 49.7025 208.446C50.1804 208.349 50.6673 208.259 51.1632 208.176L51.1475 208.163ZM61.3899 194.443L60.2021 188.711C59.9952 188.949 59.721 189.119 59.4156 189.199C58.9386 189.381 58.4507 189.534 57.9548 189.655C57.4233 189.788 56.9075 189.906 56.4041 190.01L55.3927 190.22C54.0818 190.492 52.7862 190.755 51.5059 191.007C50.2257 191.26 48.941 191.52 47.6517 191.788L46.2909 192.07C45.625 192.209 44.8635 192.355 44.0065 192.51C43.1495 192.664 42.2506 192.81 41.3097 192.948C40.3703 193.086 39.5065 193.179 38.7184 193.228C38.0544 193.281 37.3867 193.265 36.7261 193.18C36.5382 193.191 36.3512 193.145 36.1905 193.047C36.0297 192.949 35.9029 192.803 35.8272 192.631L37.3476 199.973C37.3896 199.818 37.4657 199.674 37.5705 199.551C37.6752 199.429 37.806 199.332 37.9532 199.266C38.4158 198.991 38.9053 198.763 39.414 198.586C40.0073 198.373 40.6613 198.175 41.3759 197.993C42.0906 197.811 42.7742 197.646 43.4267 197.5C44.0799 197.35 44.659 197.23 45.1639 197.14C45.6688 197.05 46.0194 196.983 46.2156 196.939C46.5437 196.871 47.1161 196.747 47.9326 196.566C48.7492 196.384 49.6931 196.183 50.7643 195.962C51.8356 195.737 52.9618 195.51 54.1432 195.28C55.3246 195.05 56.4239 194.856 57.4412 194.699C58.4585 194.549 59.3309 194.443 60.0583 194.38C60.5003 194.295 60.9562 194.318 61.3876 194.446L61.3899 194.443ZM36.5744 163.89L33 164.101L35.0889 192.142L38.5555 191.805C38.4836 191.539 38.4314 191.268 38.3993 190.994C38.3536 190.65 38.3162 190.289 38.287 189.91C38.2611 189.531 38.2307 189.171 38.1959 188.826C38.161 188.481 38.1352 188.199 38.1206 187.976C37.9993 186.531 37.8843 185.096 37.7757 183.672C37.667 182.247 37.5629 180.811 37.4633 179.364C38.4596 179.229 39.4585 179.122 40.4601 179.041C41.4617 178.961 42.4633 178.886 43.4649 178.817C43.7982 178.793 44.3822 178.748 45.2167 178.68C46.0512 178.611 47.0134 178.54 48.1034 178.465C49.1949 178.39 50.3418 178.317 51.5441 178.246C52.7465 178.175 53.8615 178.132 54.8893 178.118C55.9179 178.103 56.7963 178.11 57.5244 178.138C57.9773 178.098 58.432 178.19 58.8346 178.401L58.4334 172.557C58.196 172.765 57.901 172.897 57.5873 172.934C57.0845 173.052 56.5749 173.137 56.0614 173.189C55.5074 173.25 54.9781 173.302 54.4781 173.331L53.4589 173.402C52.3914 173.477 51.3333 173.538 50.2845 173.585C49.2358 173.632 48.1776 173.694 47.1101 173.769C45.4411 173.884 43.7713 173.993 42.1007 174.096C40.4302 174.2 38.754 174.22 37.0722 174.156C37.061 173.977 37.0363 173.617 36.998 173.07C36.9598 172.524 36.9172 171.89 36.8677 171.167C36.8183 170.443 36.7711 169.675 36.7261 168.862C36.6812 168.048 36.6419 167.288 36.6048 166.588C36.5677 165.888 36.5429 165.283 36.5306 164.781C36.5054 164.483 36.5187 164.184 36.5699 163.89H36.5744ZM66.0318 125.706C65.757 125.824 65.4713 125.916 65.1789 125.98C64.7961 126.074 64.3901 126.168 63.9608 126.261C63.5327 126.354 63.1158 126.439 62.7147 126.517C62.3135 126.595 62.0034 126.65 61.7865 126.684C61.2494 126.795 60.3849 126.962 59.1931 127.186C58.0012 127.41 56.6468 127.66 55.1298 127.936C53.6128 128.213 52.0251 128.493 50.3666 128.777C48.708 129.061 47.1464 129.308 45.6819 129.517C44.2174 129.727 42.9416 129.877 41.8546 129.966C41.1315 130.065 40.398 130.062 39.6758 129.956C39.6272 129.942 39.5798 129.923 39.5342 129.901C39.5131 129.894 39.4952 129.88 39.4842 129.861C39.4731 129.842 39.4697 129.819 39.4746 129.798L37.452 137.366C37.4581 137.344 37.4721 137.326 37.4912 137.315C37.5102 137.304 37.5328 137.301 37.5543 137.306C37.6046 137.309 37.6547 137.317 37.7037 137.328C38.3828 137.597 39.0207 137.96 39.5983 138.407C40.4972 139.028 41.528 139.794 42.6906 140.707C43.8532 141.619 45.0834 142.612 46.3808 143.685C47.6768 144.759 48.9129 145.794 50.089 146.79C51.2651 147.786 52.3139 148.685 53.2353 149.487C54.1537 150.287 54.8182 150.869 55.2287 151.233C55.3995 151.371 55.64 151.57 55.949 151.841C56.258 152.112 56.5782 152.385 56.9063 152.669C57.2344 152.953 57.5413 153.231 57.8256 153.504C58.0474 153.705 58.2491 153.927 58.4278 154.167L60.0437 148.12C59.9995 148.136 59.9508 148.136 59.9066 148.12C59.6575 148.028 59.4228 147.902 59.2099 147.743C58.8976 147.533 58.5656 147.306 58.2143 147.061C57.863 146.816 57.53 146.571 57.2154 146.326C56.8996 146.081 56.676 145.905 56.5412 145.8C57.0656 143.492 57.6237 141.187 58.2155 138.885C58.8073 136.583 59.4519 134.301 60.1493 132.038L60.9955 131.918C61.391 131.863 61.8071 131.818 62.2438 131.785C62.6798 131.751 63.0923 131.723 63.4799 131.699C63.7491 131.67 64.021 131.678 64.2878 131.724C64.335 131.73 64.3779 131.754 64.4081 131.791L66.0318 125.706ZM53.8241 143.647C52.1049 142.217 50.3819 140.798 48.6552 139.39C46.9284 137.981 45.2556 136.506 43.6368 134.965C45.7815 134.453 47.9304 134.016 50.0834 133.656C52.2363 133.295 54.411 132.936 56.6074 132.577C55.8726 135.845 55.0759 139.085 54.2174 142.298L53.8241 143.647ZM83.6568 97.1934L87.011 92.0675C86.636 92.0992 86.2594 92.0318 85.9188 91.872C85.3884 91.6854 84.7719 91.4355 84.0692 91.1224C83.3665 90.8092 82.6241 90.4563 81.842 90.0637C81.0592 89.6711 80.315 89.2905 79.6093 88.9218C78.9036 88.5532 78.2863 88.2228 77.7574 87.9306C77.2293 87.6384 76.8656 87.4402 76.6663 87.3361C75.1119 86.5329 73.5362 85.7219 71.939 84.903C70.3666 84.0977 68.8378 83.2102 67.3588 82.2439L66.8128 81.8865C66.5596 81.7212 66.3192 81.5371 66.0936 81.3358C65.8815 81.1488 65.6928 80.9367 65.5318 80.7042C65.4617 80.6161 65.4123 80.5135 65.3872 80.4038C65.3622 80.2941 65.362 80.1801 65.3868 80.0704L60.9134 86.8989C60.9736 86.8815 61.0371 86.8788 61.0985 86.8912C61.1599 86.9035 61.2174 86.9304 61.2662 86.9697C61.7902 87.4085 62.229 87.9399 62.5608 88.5375C63.0851 89.3616 63.6537 90.3469 64.2665 91.4932C64.8793 92.6395 65.5086 93.8784 66.1543 95.2098C66.8023 96.5412 67.4087 97.825 67.9735 99.0612C68.5383 100.297 69.0414 101.413 69.4826 102.409C69.9254 103.406 70.2505 104.132 70.458 104.587C69.9441 104.598 69.1425 104.601 68.0533 104.594C66.9641 104.587 65.7434 104.568 64.3912 104.537C63.0383 104.506 61.6236 104.468 60.1471 104.424C58.6706 104.38 57.2806 104.305 55.9771 104.2C54.6736 104.094 53.5387 103.964 52.5723 103.811C51.8918 103.746 51.2293 103.555 50.6183 103.249C50.5601 103.217 50.5116 103.171 50.4783 103.113C50.445 103.056 50.4281 102.991 50.4294 102.925L45.9572 109.759C46.0484 109.701 46.1509 109.662 46.2579 109.646C46.365 109.63 46.4743 109.637 46.5786 109.666C46.8569 109.722 47.1274 109.812 47.3842 109.933C47.657 110.06 47.9199 110.206 48.1708 110.372L48.717 110.729C50.1946 111.698 51.6199 112.744 52.9869 113.864C54.3773 115.001 55.7576 116.111 57.1277 117.195C57.3015 117.335 57.6255 117.594 58.0997 117.97C58.5739 118.346 59.1208 118.784 59.7403 119.284C60.3606 119.784 61.0071 120.314 61.6798 120.874C62.3525 121.434 62.9728 121.973 63.5406 122.492C64.1077 123.011 64.5838 123.475 64.9688 123.886C65.2442 124.135 65.4607 124.442 65.6025 124.785L68.9567 119.659C68.7544 119.677 68.5531 119.616 68.3949 119.488L67.8904 119.158C66.7303 118.399 65.6111 117.579 64.5373 116.702C63.4585 115.824 62.3989 114.937 61.3584 114.042C60.3988 113.227 59.4013 112.388 58.366 111.524C57.3307 110.66 56.3767 109.795 55.504 108.93C57.4719 108.855 59.4275 108.862 61.3708 108.95C63.314 109.038 65.2617 109.119 67.2139 109.193L70.6311 109.349C70.9906 109.371 71.3423 109.394 71.6862 109.419C72.03 109.443 72.3604 109.455 72.684 109.452C72.9806 109.082 73.2546 108.693 73.5043 108.289C73.7583 107.882 74.0133 107.483 74.2695 107.09C74.5257 106.697 74.7823 106.305 75.0392 105.913C75.2969 105.521 75.5442 105.123 75.7809 104.719C75.6656 104.4 75.5281 104.089 75.3696 103.789C75.2089 103.484 75.0561 103.178 74.9111 102.869L73.3818 99.8277C72.5136 98.0588 71.6521 96.3003 70.7973 94.5524C69.9426 92.8044 69.1538 91.0148 68.4309 89.1837C69.5725 89.6377 70.7498 90.1622 71.9626 90.7571C73.1755 91.352 74.3407 91.9349 75.4584 92.5058C76.6944 93.1014 77.9305 93.7173 79.1665 94.3534C80.4006 94.9877 81.6008 95.6858 82.7623 96.4449L83.2669 96.7753C83.4432 96.8694 83.5843 97.0181 83.6691 97.199L83.6568 97.1934ZM108.752 75.04L106.116 72.3967C105.95 72.6184 105.758 72.8188 105.544 72.9935C105.221 73.2872 104.821 73.6355 104.345 74.0386C103.868 74.4417 103.362 74.8707 102.825 75.3255C102.288 75.7795 101.769 76.2114 101.268 76.6213L99.9468 77.7013L99.1951 78.316L95.5296 81.3145C94.3115 82.3102 93.0684 83.2842 91.8001 84.2365L90.9517 83.2003C90.3165 82.4226 89.6887 81.646 89.0684 80.8705C88.4481 80.0951 87.8204 79.3185 87.1852 78.5408C89.3187 76.7089 91.4652 74.9108 93.625 73.1463L94.2205 72.6585C94.5149 72.4192 94.8464 72.1472 95.2184 71.8426C95.5903 71.5381 95.9903 71.2189 96.4207 70.8806L97.6208 69.9433C97.9909 69.6541 98.3201 69.4132 98.6085 69.2207C98.8969 69.0281 99.0842 68.912 99.1703 68.8723L96.9297 66.0784L85.1176 75.956C84.3969 75.0749 83.6957 74.1997 83.014 73.3306C82.3323 72.4615 81.6814 71.5598 81.0611 70.6255C83.247 68.7524 85.4453 66.9112 87.656 65.1018L88.4335 64.4657L89.7415 63.3957C90.2337 62.9934 90.7581 62.5705 91.3147 62.1269C91.8713 61.6834 92.3998 61.2713 92.9002 60.8907C93.3976 60.5161 93.822 60.1976 94.1733 59.9354C94.3876 59.7607 94.6223 59.6128 94.8723 59.4949L92.8047 56.3852L73.9527 71.7179C74.0471 71.7269 74.1448 71.7336 74.2482 71.7359C74.3516 71.7381 74.4493 71.7437 74.5437 71.7527C74.85 71.8462 75.1306 72.0088 75.364 72.2281C75.7595 72.555 76.1376 72.9023 76.4967 73.2688C76.9064 73.6839 77.3357 74.1473 77.7844 74.659C78.2331 75.1707 78.6523 75.6578 79.0418 76.12C79.4314 76.5786 79.7816 76.9981 80.0925 77.3787L80.7498 78.1823C80.9611 78.4408 81.3357 78.8903 81.8735 79.5309C82.4114 80.1715 83.0267 80.9151 83.7197 81.7618C84.4119 82.6077 85.1348 83.5007 85.8884 84.441C86.6421 85.3813 87.3226 86.2662 87.9301 87.0956C88.5369 87.9257 89.0351 88.6499 89.4246 89.268C89.7062 89.6202 89.8989 90.0349 89.9865 90.4773L108.752 75.04ZM121.684 44.8286L120.085 41.6233L95.124 54.5623L96.7971 57.6169C97.0139 57.4467 97.2426 57.2924 97.4814 57.155C97.7811 56.9774 98.0987 56.8025 98.4343 56.6301C98.7715 56.4571 99.0928 56.293 99.3962 56.1199C99.6996 55.9468 99.9502 55.8187 100.148 55.7176C101.43 55.0373 102.703 54.3674 103.968 53.7081C105.234 53.0488 106.513 52.3891 107.806 51.729C108.322 52.5936 108.813 53.4703 109.28 54.3588C109.747 55.2474 110.209 56.1394 110.666 57.0347C110.815 57.3344 111.087 57.8533 111.479 58.5913C111.872 59.3293 112.316 60.1864 112.811 61.1626C113.309 62.1366 113.827 63.1627 114.365 64.2409C114.903 65.319 115.38 66.3279 115.798 67.2674C116.215 68.207 116.552 69.0176 116.809 69.6994C117.023 70.1 117.118 70.5536 117.082 71.0065L122.298 68.3418C122.015 68.2044 121.78 67.9847 121.624 67.7113C121.319 67.295 121.04 66.86 120.789 66.4088C120.516 65.9225 120.265 65.4558 120.036 65.0085C119.807 64.5612 119.652 64.2581 119.572 64.0993C119.086 63.1455 118.614 62.1962 118.156 61.2514C117.698 60.3066 117.226 59.3578 116.739 58.4047C115.979 56.9137 115.223 55.4205 114.47 53.925C113.718 52.4295 113.041 50.8959 112.44 49.324L113.409 48.8295L115.108 47.9619C115.753 47.6314 116.441 47.286 117.172 46.9257L119.215 45.9198C119.845 45.6111 120.389 45.3519 120.846 45.1421C121.11 45.002 121.391 44.8965 121.682 44.8286H121.684ZM138.56 53.1046C138.979 52.9237 139.413 52.7819 139.858 52.6809C140.517 52.5063 141.229 52.3393 141.993 52.1797C142.757 52.0201 143.49 51.8703 144.191 51.7302L145.668 51.4424L146.556 51.2694C146.994 51.184 147.493 51.0925 148.054 50.9951C148.615 50.8977 149.214 50.7921 149.852 50.6782C150.489 50.5658 151.078 50.4681 151.618 50.3849C152.158 50.3017 152.63 50.244 153.034 50.2118C153.285 50.1701 153.542 50.1782 153.789 50.2354L153.1 46.1749C152.783 46.3415 152.448 46.4697 152.1 46.557C151.576 46.7166 150.944 46.8852 150.205 47.0628C149.465 47.2404 148.679 47.4277 147.845 47.6247C147.008 47.821 146.208 47.9997 145.444 48.1608C144.68 48.3219 143.997 48.4661 143.396 48.5935C142.797 48.7231 142.377 48.8108 142.136 48.8565L141.237 49.0329C140.831 49.1116 140.397 49.1914 139.935 49.2689C139.474 49.3465 139.036 49.4105 138.625 49.4566C138.338 49.5025 138.047 49.5078 137.759 49.4723L138.56 53.1046Z" fill="white"/>
</g>
<defs>
<filter id="filter0_d_121:3179" x="-21" y="-17" width="380" height="379" filterUnits="userSpaceOnUse" color-interpolation-filters="sRGB">
<feFlood flood-opacity="0" result="BackgroundImageFix"/>
<feColorMatrix in="SourceAlpha" type="matrix" values="0 0 0 0 0 0 0 0 0 0 0 0 0 0 0 0 0 0 127 0" result="hardAlpha"/>
<feOffset dy="4"/>
<feGaussianBlur stdDeviation="27"/>
<feComposite in2="hardAlpha" operator="out"/>
<feColorMatrix type="matrix" values="0 0 0 0 0 0 0 0 0 0 0 0 0 0 0 0 0 0 0.25 0"/>
<feBlend mode="normal" in2="BackgroundImageFix" result="effect1_dropShadow_121:3179"/>
<feBlend mode="normal" in="SourceGraphic" in2="effect1_dropShadow_121:3179" result="shape"/>
</filter>
</defs>
</svg>
