<svg width="40" height="40" viewBox="0 0 40 40" fill="none" xmlns="http://www.w3.org/2000/svg">
<g opacity="0.8" filter="url(#filter0_i_815_3923)">
<path fill-rule="evenodd" clip-rule="evenodd" d="M20 40C31.0457 40 40 31.0457 40 20C40 8.9543 31.0457 0 20 0C8.9543 0 0 8.9543 0 20C0 31.0457 8.9543 40 20 40ZM23.3167 9.59998C25.227 9.93085 27.0543 10.5119 28.7632 11.3115C31.7512 15.7737 33.2359 20.8064 32.6877 26.611C30.4015 28.3204 28.1839 29.3575 26.0036 30.0361C25.4637 29.296 24.9862 28.5071 24.573 27.68C25.3599 27.3809 26.1157 27.0119 26.83 26.5814C26.6432 26.4414 26.4584 26.295 26.2777 26.1444C21.9857 28.1762 17.2659 28.1762 12.922 26.1444C12.7434 26.295 12.5586 26.4414 12.3697 26.5814C13.0819 27.0098 13.8356 27.3788 14.6226 27.6778C14.2094 28.5071 13.7297 29.2939 13.1919 30.034C11.0138 29.3554 8.79818 28.3183 6.51201 26.611C6.04481 21.6038 6.97921 16.5245 10.4261 11.3157C12.135 10.5141 13.9644 9.93085 15.8768 9.59998C16.1135 10.0241 16.3938 10.5947 16.5828 11.0485C18.5762 10.7431 20.5883 10.7431 22.619 11.0485C22.808 10.5947 23.0821 10.0241 23.3167 9.59998ZM12.841 20.8318C12.841 22.3143 13.9104 23.5316 15.2144 23.5316C16.5413 23.5316 17.5898 22.3143 17.5878 20.8318C17.6106 19.3472 16.5413 18.1299 15.2144 18.1299C13.8876 18.1299 12.841 19.3494 12.841 20.8318ZM21.6119 20.8318C21.6119 22.3143 22.6813 23.5316 23.9853 23.5316C25.3122 23.5316 26.3587 22.3143 26.3587 20.8318C26.3815 19.3472 25.3122 18.1299 23.9853 18.1299C22.6584 18.1299 21.6119 19.3494 21.6119 20.8318Z" fill="#503614"/>
</g>
<defs>
<filter id="filter0_i_815_3923" x="0" y="0" width="40" height="44" filterUnits="userSpaceOnUse" color-interpolation-filters="sRGB">
<feFlood flood-opacity="0" result="BackgroundImageFix"/>
<feBlend mode="normal" in="SourceGraphic" in2="BackgroundImageFix" result="shape"/>
<feColorMatrix in="SourceAlpha" type="matrix" values="0 0 0 0 0 0 0 0 0 0 0 0 0 0 0 0 0 0 127 0" result="hardAlpha"/>
<feOffset dy="4"/>
<feGaussianBlur stdDeviation="2"/>
<feComposite in2="hardAlpha" operator="arithmetic" k2="-1" k3="1"/>
<feColorMatrix type="matrix" values="0 0 0 0 0 0 0 0 0 0 0 0 0 0 0 0 0 0 0.65 0"/>
<feBlend mode="normal" in2="shape" result="effect1_innerShadow_815_3923"/>
</filter>
</defs>
</svg>
