<svg width="40" height="40" viewBox="0 0 40 40" fill="none" xmlns="http://www.w3.org/2000/svg">
<g opacity="0.8" filter="url(#filter0_i_815_3926)">
<path fill-rule="evenodd" clip-rule="evenodd" d="M20 40C31.0457 40 40 31.0457 40 20C40 8.9543 31.0457 0 20 0C8.9543 0 0 8.9543 0 20C0 31.0457 8.9543 40 20 40ZM30.0012 17.7446C31.5383 17.7446 32.7997 19.0024 32.7997 20.5863C32.7997 21.7508 32.1117 22.7524 31.1484 23.1953C31.1941 23.4745 31.2172 23.7775 31.2172 24.0571C31.2172 28.4593 26.1935 32 19.9999 32C13.8063 32 8.78263 28.4359 8.78263 24.0571C8.78263 23.7541 8.80529 23.4745 8.85147 23.1953C7.88769 22.7524 7.19971 21.7742 7.19971 20.6098C7.19971 19.0489 8.43842 17.768 9.99826 17.768C10.7244 17.767 11.4229 18.0507 11.948 18.56C13.8978 17.1389 16.5818 16.2306 19.5638 16.1373L20.9864 9.33583C21.009 9.19602 21.0779 9.07966 21.1925 9.00976C21.2844 8.93985 21.4221 8.91641 21.5598 8.93986L26.2162 9.94151C26.5373 9.26592 27.2257 8.80005 28.0056 8.80005C29.1066 8.80005 30.0012 9.70835 30.0012 10.8264C30.0012 11.9448 29.1066 12.8531 28.0056 12.8531C26.9272 12.8531 26.0558 11.9913 26.0096 10.9197L21.8347 10.0114L20.5502 16.1143C23.4865 16.2306 26.1247 17.1389 28.0514 18.5365C28.5559 18.0472 29.2443 17.7446 30.0012 17.7446ZM15.5727 20.5863C14.4712 20.5863 13.5767 21.4946 13.5767 22.6126C13.5767 23.7306 14.4712 24.6624 15.5727 24.6394C16.6737 24.6394 17.5682 23.7306 17.5682 22.6126C17.5682 21.4946 16.6737 20.5863 15.5727 20.5863ZM19.9999 29.4844C20.7567 29.4844 23.3719 29.3911 24.7483 27.9934C24.9317 27.7837 24.9317 27.4577 24.7483 27.2479C24.5417 27.0387 24.2206 27.0387 24.0141 27.2479C23.1653 28.1332 21.3075 28.4359 19.9999 28.4359C18.6924 28.4359 16.8572 28.1332 15.9853 27.2479C15.7788 27.0387 15.4577 27.0387 15.2512 27.2479C15.0451 27.4577 15.0451 27.7837 15.2512 27.9934C16.6049 29.3676 19.22 29.4844 19.9999 29.4844ZM22.3854 22.6361C22.3854 23.7541 23.2799 24.6624 24.381 24.6624C25.4824 24.6624 26.3769 23.7306 26.3769 22.6361C26.3769 21.5181 25.4824 20.6098 24.381 20.6098C23.2799 20.6098 22.3854 21.5181 22.3854 22.6361Z" fill="#503614"/>
</g>
<defs>
<filter id="filter0_i_815_3926" x="0" y="0" width="40" height="44" filterUnits="userSpaceOnUse" color-interpolation-filters="sRGB">
<feFlood flood-opacity="0" result="BackgroundImageFix"/>
<feBlend mode="normal" in="SourceGraphic" in2="BackgroundImageFix" result="shape"/>
<feColorMatrix in="SourceAlpha" type="matrix" values="0 0 0 0 0 0 0 0 0 0 0 0 0 0 0 0 0 0 127 0" result="hardAlpha"/>
<feOffset dy="4"/>
<feGaussianBlur stdDeviation="2"/>
<feComposite in2="hardAlpha" operator="arithmetic" k2="-1" k3="1"/>
<feColorMatrix type="matrix" values="0 0 0 0 0 0 0 0 0 0 0 0 0 0 0 0 0 0 0.65 0"/>
<feBlend mode="normal" in2="shape" result="effect1_innerShadow_815_3926"/>
</filter>
</defs>
</svg>
