<svg width="41" height="40" viewBox="0 0 41 40" fill="none" xmlns="http://www.w3.org/2000/svg">
<g opacity="0.8" filter="url(#filter0_i_815_3929)">
<path fill-rule="evenodd" clip-rule="evenodd" d="M20.8003 40C31.846 40 40.8003 31.0457 40.8003 20C40.8003 8.9543 31.846 0 20.8003 0C9.7546 0 0.800293 8.9543 0.800293 20C0.800293 31.0457 9.7546 40 20.8003 40ZM33.6896 13.0999C33.6935 13.0982 33.6973 13.0965 33.7012 13.0947L33.6977 13.0877C33.695 13.0918 33.6923 13.0958 33.6896 13.0999ZM33.6896 13.0999C32.8306 13.4803 31.9093 13.7388 30.9431 13.8543C31.9346 13.2565 32.6957 12.3071 33.0518 11.1783C32.1231 11.7339 31.0967 12.1348 30.004 12.3528C29.1277 11.4139 27.8813 10.8267 26.4988 10.8267C23.8489 10.8267 21.6983 12.9928 21.6983 15.6617C21.6983 16.0415 21.7402 16.4107 21.824 16.7624C17.8335 16.5619 14.2969 14.6349 11.9298 11.7093C11.5179 12.4231 11.2805 13.253 11.2805 14.1391C11.2805 15.8164 12.1288 17.2969 13.4171 18.1619C12.6316 18.1373 11.8914 17.9193 11.242 17.5571V17.6169C11.242 19.9588 12.8969 21.9139 15.0929 22.357C14.6914 22.466 14.2655 22.5258 13.8291 22.5258C13.5183 22.5258 13.2181 22.4941 12.9248 22.4379C13.5358 24.3578 15.3093 25.7574 17.4076 25.796C15.7632 27.0936 13.6964 27.8672 11.4445 27.8672C11.057 27.8672 10.6765 27.8426 10.2994 27.8004C12.4221 29.1718 14.9462 29.9735 17.6589 29.9735C26.4883 29.9735 31.3167 22.6066 31.3167 16.2173C31.3167 16.0063 31.3132 15.7989 31.3027 15.5914C32.2379 14.9121 33.0485 14.0653 33.6896 13.0999Z" fill="#503614"/>
</g>
<defs>
<filter id="filter0_i_815_3929" x="0.800293" y="0" width="40" height="44" filterUnits="userSpaceOnUse" color-interpolation-filters="sRGB">
<feFlood flood-opacity="0" result="BackgroundImageFix"/>
<feBlend mode="normal" in="SourceGraphic" in2="BackgroundImageFix" result="shape"/>
<feColorMatrix in="SourceAlpha" type="matrix" values="0 0 0 0 0 0 0 0 0 0 0 0 0 0 0 0 0 0 127 0" result="hardAlpha"/>
<feOffset dy="4"/>
<feGaussianBlur stdDeviation="2"/>
<feComposite in2="hardAlpha" operator="arithmetic" k2="-1" k3="1"/>
<feColorMatrix type="matrix" values="0 0 0 0 0 0 0 0 0 0 0 0 0 0 0 0 0 0 0.65 0"/>
<feBlend mode="normal" in2="shape" result="effect1_innerShadow_815_3929"/>
</filter>
</defs>
</svg>
