<svg width="41" height="40" viewBox="0 0 41 40" fill="none" xmlns="http://www.w3.org/2000/svg">
<g opacity="0.8" filter="url(#filter0_i_815_3932)">
<path fill-rule="evenodd" clip-rule="evenodd" d="M20.4004 40C31.4461 40 40.4004 31.0457 40.4004 20C40.4004 8.9543 31.4461 0 20.4004 0C9.3547 0 0.400391 8.9543 0.400391 20C0.400391 31.0457 9.3547 40 20.4004 40ZM21.4105 14.7479C19.5264 15.5361 15.7742 17.1607 10.1379 19.6058C9.23611 19.9758 8.753 20.3296 8.70469 20.6835C8.63338 21.2819 9.38321 21.5144 10.3947 21.8279C10.5253 21.8684 10.6601 21.9102 10.7982 21.9543C11.7966 22.276 13.1171 22.646 13.8096 22.6621C14.4376 22.6782 15.1301 22.4208 15.9031 21.89C21.169 18.335 23.8744 16.5334 24.0515 16.5012C24.1804 16.4691 24.3414 16.4369 24.4541 16.5334C24.5669 16.6299 24.5669 16.8229 24.5507 16.8712C24.4739 17.191 21.3324 20.1042 19.9028 21.4299C19.5345 21.7714 19.2798 22.0076 19.2204 22.0669C19.0694 22.2222 18.9156 22.3692 18.7677 22.5106C17.8434 23.3944 17.1497 24.0576 18.8017 25.1393C19.5528 25.6346 20.1585 26.0474 20.7551 26.4539C21.476 26.9453 22.1834 27.4274 23.1175 28.0347C23.3376 28.1791 23.5483 28.3288 23.7538 28.4749C24.556 29.0449 25.2799 29.5593 26.1772 29.4824C26.6925 29.4342 27.224 28.9516 27.4977 27.5039C28.1419 24.0937 29.398 16.6782 29.6878 13.6219C29.72 13.3645 29.6878 13.0267 29.6556 12.8658C29.6234 12.705 29.5751 12.4959 29.3819 12.335C29.1403 12.142 28.786 12.1098 28.625 12.1098C27.9003 12.1259 26.7731 12.512 21.4105 14.7479Z" fill="#503614"/>
</g>
<defs>
<filter id="filter0_i_815_3932" x="0.400391" y="0" width="40" height="44" filterUnits="userSpaceOnUse" color-interpolation-filters="sRGB">
<feFlood flood-opacity="0" result="BackgroundImageFix"/>
<feBlend mode="normal" in="SourceGraphic" in2="BackgroundImageFix" result="shape"/>
<feColorMatrix in="SourceAlpha" type="matrix" values="0 0 0 0 0 0 0 0 0 0 0 0 0 0 0 0 0 0 127 0" result="hardAlpha"/>
<feOffset dy="4"/>
<feGaussianBlur stdDeviation="2"/>
<feComposite in2="hardAlpha" operator="arithmetic" k2="-1" k3="1"/>
<feColorMatrix type="matrix" values="0 0 0 0 0 0 0 0 0 0 0 0 0 0 0 0 0 0 0.65 0"/>
<feBlend mode="normal" in2="shape" result="effect1_innerShadow_815_3932"/>
</filter>
</defs>
</svg>
